<?xml version="1.0" encoding="utf-8"?>
<svg viewBox="23.429 17.93 442.8 93.581" xmlns="http://www.w3.org/2000/svg">
  <g transform="matrix(1, 0, 0, 1, 23.029329, -249.188583)">
    <line x1="103.1" y1="358.2" x2="3.2" y2="358.2"/>
    <rect x="3.2" y="357.6" width="99.9" height="1.3"/>
  </g>
  <g transform="matrix(1, 0, 0, 1, 23.029329, -249.188583)">
    <g>
      <path d="M48.7,278.3c0,5.9-6.7,8.7-10.7,7.8c3.3-0.9,5.1-6.1,5.1-9c0-3.6-2.2-4.8-4.8-4.8c-6.6,0-10.3,9.2-10.3,16.4 c0,1.7,0.6,4.2,1.4,5.1c1.1-0.1,3.2,0,4.7,0.3c2.2,0.4,2.5,1.1,2.4,1.6c-0.1,0.6-1.1,0.9-2.4,0.8c-1.7-0.1-4.8-0.9-6.4-1.8 c-7.8,2.2-17.4,16.8-17.4,24.1c0,3.5,1.3,5.4,5.4,5.4c3.6,0,7.1-1.8,10.7-4.7c3.3-2.6,5.7-5.4,7-8.6c-0.4,3.7-2.6,7.2-6,9.9 c-3.4,2.7-7.6,4.2-12.1,4.2c-8.6,0-14.9-2.7-14.9-11.5c0-10.1,10.7-18.9,25.9-19.5c-5.5-2.1-7.6-6.4-7.2-10.2 c0.8-7.6,8.6-12.4,18.7-12.4C41.7,271.4,48.7,272.7,48.7,278.3z" style="fill: rgb(83, 174, 50);"/>
    </g>
    <g>
      <path d="M67.7,296.8c0,2.3-2.4,4-5.1,4.1c0.1-0.4,0.2-1,0.2-1.7c0-2.4-0.6-4.3-1.9-4.3c-1.7,0-2.7,1.6-2.6,3.9 c0.1,2,0.9,4.9,0.7,9.1c-0.1,3.5-1.7,6.6-3.7,8.9c-1.2,1.3-2.4,1.9-3.5,2.4c-0.4,0.1-0.3,0.3,0.1,0.2c3.4-0.9,6.4-2.8,8.5-4.5 c2.2-1.8,5-4.5,6-6.6c-0.6,2.4-2.7,4.9-5.5,7.2c-2.2,1.8-5.6,3.7-8.6,4.6c-2.1,0.6-5,1.1-8.3,1.1c-3.9,0-7.6-1.7-7.6-6 c0-5,4.3-7.6,7.5-7.2c1.9-2.1,4.6-5.2,7.5-7.9c3.6-3.5,8.2-6.6,12.2-6.6C65.9,293.4,67.7,294.8,67.7,296.8z M46.6,310.1 c-2.1,0.3-5.1,3.7-5.1,7.6c0,1.7,0.6,2.7,2.2,2.7c1.6,0,2.5-1.2,3.5-3.2c1.3-2.8,1.9-6.6,3.2-10.7c1.4-4.2,4-8.1,7.4-10.4 c0.2-0.1,0.1-0.2-0.1-0.1c-1.7,0.8-4.5,3.2-6,4.8c-2.7,2.6-4.6,5.1-7,7.5C45.3,308.3,46.2,309,46.6,310.1z" style="fill: rgb(83, 174, 50);"/>
    </g>
    <g>
      <path d="M81.9,301.5c-0.1,0.3,0.1,0.4,0.3,0.1c2.9-4.2,6.1-7.8,10.2-7.8c2.7,0,5.4,1.4,5.4,5.3c0,3.8-1.8,8.5-4.5,12 c-5.8,7.8-12.2,9.9-16.3,9.9c-3.5,0-4.2-2.1-3.8-4.5c0.1-0.2,0-0.3-0.1-0.1l-7,11.8c-1.9,3.4-3.8,5.5-7.1,5.5 c-1.8,0-3.5-0.1-5,0.6c-2.1,1.1-2.4,3-3.7,3c1-1.1,3.6-5.1,6.5-9.7c4.3-7,8.6-14.5,12.7-21.5c3.3-5.5,4.6-7.8,4.6-8.7 c0-0.6-0.3-0.9-0.9-0.9c-1.4,0-3.1,1.7-4.8,4c0.9-3.3,4.8-7.1,9.6-7.1c3.2,0,4.8,1.7,4.8,4C83.1,298.9,82.6,300.4,81.9,301.5z M89.4,296c-1.5,0-3.9,2.3-9.1,9c-1.7,2.4-4.6,7.6-5.8,9.6c-1.3,3.3-0.4,4.8,1,4.8c1.7,0,3.5-1.9,9.2-11.1 c3.6-5.8,5.5-9.9,5.5-11.5C90.2,296.3,89.8,296,89.4,296z" style="fill: rgb(83, 174, 50);"/>
    </g>
    <g>
      <path d="M106.3,319.2c0,0.9,0.3,1.5,1,1.8c-5.3,0.4-7.9-2.1-7.9-5.6c0-2.2,0.9-4.9,2.7-7.8c2.6-4.3,5.6-8.4,5.6-10 c0-0.6-0.3-0.9-0.9-0.9c-1.4,0-3.1,1.7-4.8,4c0.9-3.3,4.8-7.1,9.6-7.1c3.2,0,4.8,1.7,4.8,4c0,1.6-0.9,3.7-2.2,5.4 c-0.3,0.4,0,0.5,0.2,0.2c3.6-5,7-9.6,11.1-9.6c2.9,0,4.8,1.4,4.8,4c0,4.8-4.4,7.8-7.8,7.8c-2,0-3.4-0.5-4.2-1.2 c1.2,0,4.9-5.2,4.9-7.4c0-0.6-0.4-0.6-0.6-0.6c-1.5,0-3.7,2.5-8.1,8.2C111.1,308.9,106.4,315.9,106.3,319.2z" style="fill: rgb(83, 174, 50);"/>
    </g>
    <g>
      <path d="M128.5,315.6c0-3.1,1.6-6.2,5-10.8c2.7-3.7,4-5.9,4-7.3c0-0.6-0.3-0.9-0.9-0.9c-1.4,0-3.1,1.7-4.8,4 c0.9-3.3,4.8-7.1,9.6-7.1c3.2,0,5,1.7,5,4c0,2.7-2.2,6.5-5,10.6c-3.4,4.9-5.1,7.7-5.1,9.6c0,0.7,0.4,1.5,1.5,1.5 c1.3,0,3.3-1.2,5.7-3.9c2.2-2.5,3.5-4.6,5-7.2c-0.6,2.4-2.4,5.3-4.5,7.8c-2.5,2.9-5.4,5.1-9.4,5.1 C130.5,321.1,128.5,318.8,128.5,315.6z M147.2,280.8c2.5,0,4.4,2.4,4.1,4.8c-0.3,2.7-2.7,5-5.6,5c-2.7,0-4.5-2.4-4.1-4.9 C142,282.9,144.6,280.8,147.2,280.8z" style="fill: rgb(83, 174, 50);"/>
    </g>
    <g>
      <path d="M148.4,315.6c-0.1-1.9,0.4-3.9,1.6-6.3c1.4-2.8,4.4-7.6,7.6-12.2H153c-0.8,0-0.9-0.3-0.7-0.6s1.1-0.4,1.8-0.4 h4.2c1.1-1.7,2.8-4.1,3.8-5.5c2.3-3.2,3.1-3.7,5.1-3.7c1,0,2.9,0.1,4.4,0.1c3,0,4.2-3.2,5.2-3.2c-2.5,3.2-7.3,10.3-8.6,12.3h2.7 c0.8,0,1,0.2,0.9,0.6c-0.1,0.4-0.4,0.4-1.7,0.4h-2.6c-4,5.7-7.5,11.5-9.4,15.3c-0.8,1.6-1.4,3.2-1.4,4.7c0,0.6,0.1,2.2,1.9,2.2 c1.3,0,3.3-1.2,5.7-3.9c2.2-2.5,3.5-4.6,5-7.2c-0.6,2.4-2.4,5.3-4.5,7.8c-2.9,3.3-5.7,5.1-9.6,5.1 C151,321.1,148.5,318.9,148.4,315.6z" style="fill: rgb(83, 174, 50);"/>
    </g>
    <g>
      <path d="M250,268.1c-0.5,0.5-1.2,1.4-2,2.7c7.8,2.3,12.3,8.5,11.3,15c-1.3,8.2-13.1,14-21,14c-1.7,0-3.6-0.6-3.1-1.9 c0.3-0.6,1.4-0.7,2.2-0.6c0.9,0.1,2.1,0.9,2.7,1.7c3.5-0.4,8.4-7.3,9.9-13.6c1.4-5.7-0.4-11.6-3-13.1c-4,5.6-8.3,14.4-12.1,20.7 c-5,8.2-9.7,14.6-14.6,19.5c-7.2,7.3-15.4,11.1-23.6,11.1c-5.3,0-10.2-0.9-10.2-5.5c0-2.8,3-4.6,5.7-4.6c0.7,0,1.6,0.1,2,0.4 c-0.9,0.9-1.9,3.2-1.9,4.6c0,3,1.7,4.5,4.4,4.5c9.8,0,17.9-17.4,24.8-27.8c7.6-11.6,15.6-19.6,22.1-24.1c-1.2-0.3-3.2-0.6-5.8-0.6 c-10.7,0-20.2,4.5-27.3,12.5c-5.3,5.9-8.7,12.3-8.7,18.2c0,3.7,2.4,5.2,4.3,5.2c2.4,0,3.9-1.1,4.4-1.7c-0.1,1.1-1.8,2.7-4.9,2.7 c-4.6,0-9.1-3-9.1-9.2c0-6.3,4.2-12.5,10.4-17.4c8.4-6.6,20.4-11.1,30.5-11.1c3.3,0,5.5,0.2,7.2,0.4c1.7-1.2,3.4-2.2,4.5-2.7 c0.7-0.3,1.2-0.4,1.4-0.1C250.6,267.5,250.5,267.7,250,268.1z" style="fill: rgb(83, 174, 50);"/>
    </g>
    <g>
      <path d="M257.2,319.2c0,0.9,0.3,1.5,1,1.8c-5.3,0.4-7.9-2.1-7.9-5.6c0-2.2,0.9-4.9,2.7-7.8c2.6-4.3,5.6-8.4,5.6-10 c0-0.6-0.3-0.9-0.9-0.9c-1.4,0-3.1,1.7-4.8,4c0.9-3.3,4.8-7.1,9.6-7.1c3.2,0,4.8,1.7,4.8,4c0,1.6-0.9,3.7-2.2,5.4 c-0.3,0.4,0,0.5,0.2,0.2c3.6-5,7-9.6,11.1-9.6c2.9,0,4.8,1.4,4.8,4c0,4.8-4.4,7.8-7.8,7.8c-2,0-3.4-0.5-4.2-1.2 c1.2,0,4.9-5.2,4.9-7.4c0-0.6-0.4-0.6-0.6-0.6c-1.5,0-3.7,2.5-8.1,8.2C261.9,308.9,257.2,315.9,257.2,319.2z" style="fill: rgb(83, 174, 50);"/>
    </g>
    <g>
      <path d="M279.3,315.6c0-3.1,1.6-6.2,5-10.8c2.7-3.7,4-5.9,4-7.3c0-0.6-0.3-0.9-0.9-0.9c-1.4,0-3.1,1.7-4.8,4 c0.9-3.3,4.8-7.1,9.6-7.1c3.2,0,5,1.7,5,4c0,2.7-2.2,6.5-5,10.6c-3.4,4.9-5.1,7.7-5.1,9.6c0,0.7,0.4,1.5,1.5,1.5 c1.3,0,3.3-1.2,5.7-3.9c2.2-2.5,3.5-4.6,5-7.2c-0.6,2.4-2.4,5.3-4.5,7.8c-2.5,2.9-5.4,5.1-9.4,5.1 C281.4,321.1,279.3,318.8,279.3,315.6z M298.1,280.8c2.5,0,4.4,2.4,4.1,4.8c-0.3,2.7-2.7,5-5.6,5c-2.7,0-4.5-2.4-4.1-4.9 C292.9,282.9,295.5,280.8,298.1,280.8z" style="fill: rgb(83, 174, 50);"/>
    </g>
    <g>
      <path d="M307.4,297.6c0-0.6-0.3-0.9-0.9-0.9c-1.4,0-3.1,1.7-4.8,4c0.9-3.3,4.8-7.1,9.6-7.1c3.2,0,4.8,1.7,4.8,4 c0,1.6-0.9,3.7-2.2,5.4c-0.2,0.3,0,0.4,0.2,0.2c3.6-4.8,7.5-9.5,12.4-9.5c3,0,5.3,1.4,5.3,4.5c0,1.4-1,3.5-1.9,4.8 c-0.2,0.4,0.1,0.4,0.2,0.2c3.6-4.8,7.5-9.5,12.4-9.5c3,0,5.5,1.6,5.5,4.8c0,2.7-1.7,5.6-4.5,9.7c-3.4,4.9-5.1,7.7-5.1,9.6 c0,0.7,0.4,1.5,1.5,1.5c1.3,0,3.3-1.2,5.7-3.9c2.2-2.5,3.5-4.6,5-7.2c-0.6,2.4-2.4,5.3-4.5,7.8c-2.5,2.9-5.4,5.1-9.4,5.1 c-4.2,0-6.1-2.4-6.1-5.5c0-3,1.5-6,4.8-10.4c2.7-3.8,4.9-7.1,4.9-8.5c0-0.4-0.2-0.8-0.8-0.8c-1.6,0-4.8,2.6-9.3,8.5 c-2.2,3-4.9,7-6.8,10.4c-1.9,3.2-3,5.9-2.4,6.3c-3.2-0.1-5.8-2.1-5.8-5.6c0-2.2,0.9-5.1,2.8-8c2.9-4.3,6.4-9,6.4-10.8 c0-0.4-0.2-0.8-0.8-0.8c-1.6,0-4.8,2.6-9.3,8.5c-2.2,3-4.9,7-6.8,10.4c-1.9,3.2-3,5.9-2.4,6.3c-3.2-0.1-5.8-2.1-5.8-5.6 c0-2.2,0.9-4.9,2.7-7.8C304.4,303.3,307.4,299.2,307.4,297.6z" style="fill: rgb(83, 174, 50);"/>
    </g>
    <g>
      <path d="M368.2,315.9c1.6-1.7,4.2-5.2,3.7-7.7c0.3,0.5,0.5,1.2,0.5,1.9c0,1.9-0.6,4.4-3.1,6.8 c-2.7,2.6-6.4,4.2-10.4,4.2c-5.7,0-8.7-2.7-8.7-7.4c0-3.7,2.2-8.9,5.9-12.8c5.2-5.5,11.7-7.4,16.1-7.4c3.6,0,6,1.8,6,4.6 c0,4.8-5.3,7.6-10.7,7.6c-1.4,0-2.8-0.6-3.3-1.4c-3.5,5-5.5,10.5-5.5,12.9c0,1.9,0.9,2.8,2.7,2.8 C362.8,320,365.7,318.5,368.2,315.9z M372.6,294.3c-1.6,0-3.7,3.1-5.7,5.8c-0.7,1-1.9,2.7-2.6,3.8c0.3,0.5,0.9,0.8,1.4,0.9 c3.2,0.3,7.6-6.3,7.6-9.4C373.4,294.5,373.2,294.3,372.6,294.3z" style="fill: rgb(83, 174, 50);"/>
    </g>
    <g>
      <path d="M392.5,315.9c0-1.2,0.4-2.8,1.3-4.2c0.1-0.2,0.1-0.4-0.1-0.1c-3.6,4.8-7.3,9.3-12.7,9.3c-3.2,0-5.2-2-5.2-4.7 c0-2.1,0.9-4.4,3.8-8.6c2.8-4.2,5.7-8.4,5.7-10c0-0.6-0.3-0.9-0.9-0.9c-1.4,0-3.1,1.7-4.8,4c0.9-3.3,4.8-7.1,9.6-7.1 c3.2,0,4.8,1.7,4.8,4c-0.1,3-2.2,7.1-5.3,11.5c-2.9,4.1-5.2,7.5-5.2,8.9c0,0.6,0.3,0.9,0.9,0.9c1.7,0,6.3-4.2,9.7-9.1 c1.7-2.3,4.1-6,6.1-9.5c0.5-0.9,1-1.9,1-2.8c0-0.6-0.4-0.9-0.9-0.9c-0.4,0-0.9,0.1-1.5,0.6c1.8-2.4,4.1-3.5,6.3-3.5 c3.3,0,4.9,1.7,4.9,4.2c0,2.4-1.7,5.6-3.8,9.1c-2.9,4.6-5.5,8.6-5.5,10.7c0,0.9,0.4,1.6,1.5,1.6c1.3,0,3.1-1.2,5.5-3.9 c2.2-2.5,3.5-4.6,5-7.2c-0.6,2.4-2.4,5.4-4.5,7.8c-2.7,3.1-5.3,5.1-9.5,5.1C394.5,321.1,392.5,318.9,392.5,315.9z" style="fill: rgb(83, 174, 50);"/>
    </g>
    <g>
      <path d="M419.2,319.2c0,0.9,0.3,1.5,1,1.8c-5.3,0.4-7.9-2.1-7.9-5.6c0-2.2,0.9-4.9,2.7-7.8c2.6-4.3,5.6-8.4,5.6-10 c0-0.6-0.3-0.9-0.9-0.9c-1.4,0-3.1,1.7-4.8,4c0.9-3.3,4.8-7.1,9.6-7.1c3.2,0,4.8,1.7,4.8,4c0,1.6-0.9,3.7-2.2,5.4 c-0.3,0.4,0,0.5,0.2,0.2c3.6-5,7-9.6,11.1-9.6c2.9,0,4.8,1.4,4.8,4c0,4.8-4.4,7.8-7.8,7.8c-2,0-3.4-0.5-4.2-1.2 c1.2,0,4.9-5.2,4.9-7.4c0-0.6-0.4-0.6-0.6-0.6c-1.5,0-3.7,2.5-8.1,8.2C424,308.9,419.3,315.9,419.2,319.2z" style="fill: rgb(83, 174, 50);"/>
    </g>
  </g>
  <g transform="matrix(1, 0, 0, 1, 23.029329, -249.188583)">
    <g>
      <path d="M128.5,355c-0.5,3.5-2.8,5.4-6.1,5.4c-3.7,0-6.6-2.3-6.6-7.2c0-4.9,3-7.2,6.6-7.2c3.3,0,5.7,1.9,6.1,5.4h-1.1 c-0.4-3-2.4-4.5-5.1-4.5c-3.2,0-5.6,2-5.6,6.3c0,4.3,2.4,6.3,5.6,6.3c2.7,0,4.6-1.5,5.1-4.5H128.5z"/>
    </g>
    <g>
      <path d="M135.1,352.6h9.6v-6.4h1v14h-1v-6.7h-9.6v6.7h-1v-14h1V352.6z"/>
    </g>
    <g>
      <path d="M152.1,346.1h9v0.9h-8v5.5h7.2v0.9h-7.2v5.8h8.2v0.9h-9.2V346.1z"/>
    </g>
    <g>
      <path d="M175.5,346.1v0.8l-6.9,10c-0.6,0.8-1.1,1.6-1.7,2.3c0.8,0,1.6,0,2.4,0h6.4v0.9h-10v-0.8l6.9-10 c0.6-0.8,1.1-1.6,1.7-2.3c-0.8,0-1.6,0-2.4,0h-6v-0.9H175.5z"/>
    </g>
    <g>
      <path d="M187.9,346.1h1.4l5.8,7.6c1.2,1.5,2.4,3.1,3.6,4.8c0-1.7-0.1-3.5-0.1-5.2v-7.2h1v14h-0.9l-7.1-9.5 c-1-1.3-1.8-2.5-2.7-3.7c0,1.4,0,2.8,0,4.2v8.9h-1V346.1z"/>
    </g>
    <g>
      <path d="M214.7,356.4h-7.6l-1.5,3.8h-1.1l5.9-14h1.1l5.9,14h-1.1L214.7,356.4z M207.5,355.5h6.8l-0.8-1.8 c-1-2.5-1.9-4.6-2.7-6.7c-0.8,2.1-1.7,4.2-2.7,6.7L207.5,355.5z"/>
    </g>
    <g>
      <path d="M232.3,346.1v0.9h-5.1v13.1h-1V347H221v-0.9H232.3z"/>
    </g>
    <g>
      <path d="M253.6,358.1l2.1,2.1h-1.3l-1.4-1.4c-1.1,1-2.5,1.6-4.3,1.6c-3.1,0-5.2-1.5-5.2-4c0-2.1,1.5-3,3.2-3.7 c-1.2-1.3-1.9-2.1-1.9-3.5c0-2,1.7-3.2,3.8-3.2s3.8,1.2,3.8,3.1c0,2.2-2.1,2.9-4.2,3.7c0.2,0.1,0.3,0.3,0.5,0.5l4.3,4.2 c0.6-0.9,1-2.2,1-3.7v-1.2h1v1.3C254.9,355.5,254.4,357,253.6,358.1z M248.6,359.5c1.5,0,2.8-0.5,3.7-1.3l-4.7-4.6 c-0.1-0.1-0.3-0.3-0.4-0.4c-1.5,0.7-2.8,1.5-2.8,3.2C244.5,358.2,246.1,359.5,248.6,359.5z M247.6,352.2c1.9-0.7,3.7-1.3,3.7-3.2 c0-1.4-1.2-2.3-2.8-2.3c-1.6,0-2.8,0.9-2.8,2.3C245.7,350.2,246.4,351,247.6,352.2z"/>
    </g>
    <g>
      <path d="M278,346.1v0.9h-5.1v13.1h-1V347h-5.1v-0.9H278z"/>
    </g>
    <g>
      <path d="M284,352.6h9.6v-6.4h1v14h-1v-6.7H284v6.7h-1v-14h1V352.6z"/>
    </g>
    <g>
      <path d="M300.9,346.1h9v0.9h-8v5.5h7.2v0.9h-7.2v5.8h8.2v0.9h-9.2V346.1z M305,344.8l1.4-2.7h1.3l-1.8,2.7H305z"/>
    </g>
    <g>
      <path d="M315.2,353.2c0-4.9,3-7.2,6.6-7.2c3.7,0,6.6,2.3,6.6,7.2c0,4.9-3,7.2-6.6,7.2 C318.1,360.4,315.2,358.1,315.2,353.2z M327.4,353.2c0-4.3-2.4-6.3-5.6-6.3s-5.6,2-5.6,6.3c0,4.3,2.4,6.3,5.6,6.3 S327.4,357.4,327.4,353.2z"/>
    </g>
  </g>
  <g transform="matrix(1, 0, 0, 1, 23.029329, -249.188583)">
    <line x1="440.9" y1="360" x2="341" y2="360"/>
    <rect x="341" y="359.4" width="99.9" height="1.3"/>
  </g>
</svg>