<?xml version="1.0" encoding="utf-8"?>
<!-- Generator: Adobe Illustrator 26.3.1, SVG Export Plug-In . SVG Version: 6.00 Build 0)  -->
<svg version="1.1" id="Calque_1" xmlns="http://www.w3.org/2000/svg" xmlns:xlink="http://www.w3.org/1999/xlink" x="0px" y="0px"
	 viewBox="0 0 442.8 485.8" style="enable-background:new 0 0 442.8 485.8;" xml:space="preserve">
<style type="text/css">
	.st0{fill:#53AE32;}
	.st1{fill:currentColor;}
</style>
<g>
	<g>
		<g>
			<path class="st0" d="M266.6,59.9c7.9-9,18.2-15.7,29-15.4c25.1,0.7,48.7,16.5,60.1,38.6c3.5,6.8,6,14.3,6,21.9
				c0,7.7-3.5,12.5-6.3,19.2c-2.3,5.5-3.7,10.3-7.6,15.1c-8.3,10.1-21.4,16.3-34.6,15.6c-14.6-0.8-27.6-9.3-38.2-19.3
				c-11.9-11.1-22.2-25.6-22.4-41.9c0-2.6,0.2-5.2,0.7-7.8C254.8,77.4,259.7,67.7,266.6,59.9z"/>
		</g>
	</g>
	<path class="st1" d="M315.4,159.5c-22.6,0-42.5-8-53.3-34.3c-10.1-24.6-15.5-45.2-17-65.1c-0.2-2,0.8-3.8,2.5-4.9
		c1.7-1.1,3.8-1.1,5.5-0.1c3.2,1.8,6.2,3.9,9.1,6c11.2,8.3,20.3,18.9,27,31.5c0.6,1.2,1.8,2,3.1,2.3c1.3,0.2,2.7-0.2,3.6-1.1
		c12.9-12.2,28.7-22.3,45.6-29.3c1.7-0.7,3.7-0.5,5.2,0.6c1.5,1.1,2.4,2.9,2.2,4.7c-1,15.7-5.3,31.5-12.5,45.7
		c-0.7,1.3-0.6,2.9,0.1,4.2c0.8,1.3,2.1,2.1,3.6,2.1c18.5,0.7,35.4,5,50.1,12.9c2,1.1,3,3.1,2.7,5.3c-0.3,2.2-1.8,4-4,4.6
		c-4.4,1.1-8.8,2.4-13.5,3.7C356.3,153.6,334.9,159.5,315.4,159.5z M250.4,55.4c-0.8,0-1.6,0.2-2.3,0.7c-1.4,0.9-2.1,2.4-2,4
		c1.5,19.7,6.9,40.3,16.9,64.8c19.8,48.2,71.1,33.9,112.4,22.4c4.7-1.3,9.2-2.6,13.5-3.7c2.1-0.6,3.1-2.3,3.2-3.7
		c0.2-1.4-0.3-3.3-2.2-4.3c-14.6-7.8-31.3-12.1-49.7-12.8c-1.8-0.1-3.5-1-4.4-2.6s-1-3.5-0.2-5.1c7.1-14.1,11.4-29.7,12.4-45.3
		c0.1-1.5-0.6-3-1.8-3.9c-1.2-0.9-2.8-1.1-4.2-0.5c-16.8,7-32.5,17.1-45.3,29.1c-1.2,1.1-2.8,1.6-4.5,1.4c-1.7-0.3-3.1-1.3-3.9-2.8
		c-6.6-12.4-15.6-22.9-26.7-31.2c0,0,0,0,0,0c-2.9-2.1-5.9-4.2-9-6C251.9,55.6,251.2,55.4,250.4,55.4z"/>
	<g>
		<path class="st1" d="M80.5,224.2c4.8-39.6,20.2-75.3,53.8-100.5c10.8-8.7,23.8-14.3,36.7-15.8c2.2-0.3,4.4-0.4,6.6-0.4
			c15.7,0,29,6.5,37.9,12.4c7.9,5.3,14.3,12.2,20.5,18.9c4.2,4.5,8.4,9.1,13.2,13.3c14.3,12.5,31.7,21.9,50.2,27.2
			c7.2,2,14.5,3.1,21.5,4.1c9.4,1.4,19.2,2.8,28.5,6.6c12.4,5.1,25,16.3,31.9,34.2h1c-0.8-2.2-1.7-4.3-2.7-6.3
			c-6.5-13.5-16.8-23.4-29.7-28.8c-9.5-3.9-19.3-5.3-28.8-6.7c-7-1-14.2-2-21.4-4.1c-18.3-5.2-35.6-14.6-49.8-27
			c-4.7-4.1-9-8.7-13.1-13.2c-6.2-6.7-12.7-13.7-20.7-19c-10.2-6.8-26.3-14.4-45.1-12.2c-13.1,1.6-26.3,7.3-37.2,16.1
			c-33.9,25.4-49.4,61.4-54.2,101.3H80.5z"/>
		<path class="st1" d="M324.1,363.8c-9.2,7-19.3,13.7-30.3,20c-17.4,9.9-36.8,19.1-63.1,29.9c-3.2,1.3-6.3,2.6-9.5,3.9
			c-21.6,8.9-43.8,18.2-65.8,21.7c-12.9,2-22.3,1.1-30.3-3.2h0c-1.8-1-3.6-2.1-5.3-3.5c-14.2-11.1-18.9-33.8-23.1-53.9
			c-0.7-3.3-1.3-6.4-2-9.5c-0.4-1.8-0.8-3.6-1.3-5.5h-1c0.4,1.9,0.9,3.8,1.3,5.7c0.7,3,1.3,6.2,2,9.5c4.2,20.2,9,43.1,23.5,54.5
			c1.7,1.4,3.6,2.6,5.5,3.6c5.5,2.9,11.6,4.3,18.9,4.3c3.7,0,7.6-0.3,12-1c22.1-3.5,44.4-12.8,66-21.7c3.2-1.3,6.3-2.6,9.5-3.9
			c26.4-10.8,45.9-20,63.3-29.9c11.5-6.5,22-13.5,31.5-20.8H324.1z"/>
	</g>
	<g>
		<line class="st1" x1="102.5" y1="335.4" x2="2.6" y2="335.4"/>
		<rect x="2.6" y="334.8" class="st1" width="99.9" height="1.3"/>
	</g>
	<g>
		<path class="st0" d="M48.1,255.5c0,5.9-6.7,8.7-10.7,7.8c3.3-0.9,5.1-6.1,5.1-9c0-3.6-2.2-4.8-4.8-4.8c-6.6,0-10.3,9.2-10.3,16.4
			c0,1.7,0.6,4.2,1.4,5.1c1.1-0.1,3.2,0,4.7,0.3c2.2,0.4,2.5,1.1,2.4,1.6c-0.1,0.6-1.1,0.9-2.4,0.8c-1.7-0.1-4.8-0.9-6.4-1.8
			C19.4,274,9.9,288.7,9.9,296c0,3.5,1.3,5.4,5.4,5.4c3.6,0,7.1-1.8,10.7-4.7c3.3-2.6,5.7-5.4,7-8.6c-0.4,3.7-2.6,7.2-6,9.9
			c-3.4,2.7-7.6,4.2-12.1,4.2c-8.6,0-14.9-2.7-14.9-11.5c0-10.1,10.7-18.9,25.8-19.5c-5.5-2.1-7.6-6.4-7.2-10.2
			c0.8-7.6,8.6-12.4,18.7-12.4C41.1,248.6,48.1,249.9,48.1,255.5z"/>
		<path class="st0" d="M67.2,274c0,2.3-2.4,4-5.1,4.1c0.1-0.4,0.2-1,0.2-1.7c0-2.4-0.6-4.3-1.9-4.3c-1.7,0-2.7,1.6-2.6,3.9
			c0.1,2,0.9,4.9,0.7,9.1c-0.1,3.5-1.7,6.6-3.7,8.9c-1.2,1.3-2.4,1.9-3.5,2.4c-0.4,0.1-0.3,0.3,0.1,0.2c3.4-0.9,6.4-2.8,8.5-4.5
			c2.2-1.8,5-4.5,6-6.6c-0.6,2.4-2.7,4.9-5.5,7.2c-2.2,1.8-5.6,3.7-8.6,4.6c-2.1,0.6-5,1.1-8.3,1.1c-3.9,0-7.6-1.7-7.6-6
			c0-5,4.3-7.6,7.5-7.2c1.9-2.1,4.6-5.2,7.5-7.9c3.6-3.5,8.2-6.6,12.2-6.6C65.4,270.6,67.2,271.9,67.2,274z M46.1,287.3
			c-2.1,0.3-5.1,3.7-5.1,7.6c0,1.7,0.6,2.7,2.2,2.7c1.6,0,2.5-1.2,3.5-3.2c1.3-2.8,1.9-6.6,3.2-10.7c1.4-4.2,4-8.1,7.4-10.4
			c0.2-0.1,0.1-0.2-0.1-0.1c-1.7,0.8-4.5,3.2-6,4.8c-2.7,2.6-4.6,5.1-7,7.5C44.7,285.5,45.6,286.2,46.1,287.3z"/>
		<path class="st0" d="M81.4,278.6c-0.1,0.3,0.1,0.4,0.3,0.1c2.9-4.2,6.1-7.8,10.2-7.8c2.7,0,5.4,1.4,5.4,5.3c0,3.8-1.8,8.5-4.5,12
			c-5.8,7.8-12.2,9.9-16.3,9.9c-3.5,0-4.2-2.1-3.8-4.5c0.1-0.2,0-0.3-0.1-0.1l-7,11.8c-1.9,3.4-3.8,5.5-7.1,5.5
			c-1.8,0-3.5-0.1-5,0.6c-2.1,1.1-2.4,3-3.7,3c1-1.1,3.6-5.1,6.5-9.7c4.3-7,8.6-14.5,12.7-21.5c3.3-5.5,4.6-7.8,4.6-8.7
			c0-0.6-0.3-0.9-0.9-0.9c-1.4,0-3.1,1.7-4.8,4c0.9-3.3,4.8-7.1,9.6-7.1c3.2,0,4.8,1.7,4.8,4C82.5,276,82,277.6,81.4,278.6z
			 M88.8,273.2c-1.5,0-3.9,2.3-9.1,9c-1.7,2.4-4.6,7.6-5.8,9.6c-1.3,3.3-0.4,4.8,1,4.8c1.7,0,3.5-1.9,9.2-11.1
			c3.6-5.8,5.5-9.9,5.5-11.5C89.6,273.5,89.3,273.2,88.8,273.2z"/>
		<path class="st0" d="M105.8,296.4c0,0.9,0.3,1.5,1,1.8c-5.3,0.4-7.9-2.1-7.9-5.6c0-2.2,0.9-4.9,2.7-7.8c2.6-4.3,5.6-8.4,5.6-10
			c0-0.6-0.3-0.9-0.9-0.9c-1.4,0-3.1,1.7-4.8,4c0.9-3.3,4.8-7.1,9.6-7.1c3.2,0,4.8,1.7,4.8,4c0,1.6-0.9,3.7-2.2,5.4
			c-0.3,0.4,0,0.5,0.2,0.2c3.6-5,7-9.6,11.1-9.6c2.9,0,4.8,1.4,4.8,4c0,4.8-4.4,7.8-7.8,7.8c-2,0-3.4-0.5-4.2-1.2
			c1.2,0,4.9-5.2,4.9-7.4c0-0.6-0.4-0.6-0.6-0.6c-1.5,0-3.7,2.5-8.1,8.2C110.5,286.1,105.8,293,105.8,296.4z"/>
		<path class="st0" d="M127.9,292.8c0-3.1,1.6-6.2,5-10.8c2.7-3.7,4-5.9,4-7.3c0-0.6-0.3-0.9-0.9-0.9c-1.4,0-3.1,1.7-4.8,4
			c0.9-3.3,4.8-7.1,9.6-7.1c3.2,0,5,1.7,5,4c0,2.7-2.2,6.5-5,10.6c-3.4,4.9-5.1,7.7-5.1,9.6c0,0.7,0.4,1.5,1.5,1.5
			c1.3,0,3.3-1.2,5.7-3.9c2.2-2.5,3.5-4.6,5-7.2c-0.6,2.4-2.4,5.3-4.5,7.8c-2.5,2.9-5.4,5.1-9.4,5.1
			C130,298.3,127.9,296,127.9,292.8z M146.7,258c2.5,0,4.4,2.4,4.1,4.8c-0.3,2.7-2.7,5-5.6,5c-2.7,0-4.5-2.4-4.1-4.9
			C141.5,260.1,144.1,258,146.7,258z"/>
		<path class="st0" d="M147.8,292.8c-0.1-1.9,0.4-3.9,1.6-6.3c1.4-2.8,4.4-7.6,7.6-12.2h-4.5c-0.8,0-0.9-0.3-0.7-0.6
			c0.2-0.4,1.1-0.4,1.8-0.4h4.2c1.1-1.7,2.8-4.1,3.8-5.5c2.3-3.2,3.1-3.7,5.1-3.7c1,0,2.9,0.1,4.4,0.1c3,0,4.2-3.2,5.2-3.2
			c-2.5,3.2-7.3,10.3-8.6,12.3h2.7c0.8,0,1,0.2,0.9,0.6c-0.1,0.4-0.4,0.4-1.7,0.4H167c-4,5.7-7.5,11.5-9.4,15.3
			c-0.8,1.6-1.4,3.2-1.4,4.7c0,0.6,0.1,2.2,1.9,2.2c1.3,0,3.3-1.2,5.7-3.9c2.2-2.5,3.5-4.6,5-7.2c-0.6,2.4-2.4,5.3-4.5,7.8
			c-2.9,3.3-5.7,5.1-9.6,5.1C150.4,298.3,148,296.1,147.8,292.8z"/>
		<path class="st0" d="M249.5,245.3c-0.5,0.5-1.2,1.4-2,2.7c7.8,2.3,12.3,8.5,11.3,15c-1.3,8.2-13.1,14-21,14
			c-1.7,0-3.6-0.6-3.1-1.9c0.3-0.6,1.4-0.7,2.2-0.6c0.9,0.1,2.1,0.9,2.7,1.7c3.5-0.4,8.4-7.3,9.9-13.6c1.4-5.7-0.4-11.6-3-13.1
			c-4,5.6-8.3,14.4-12.1,20.7c-5,8.2-9.7,14.6-14.6,19.5c-7.2,7.3-15.4,11.1-23.6,11.1c-5.3,0-10.2-0.9-10.2-5.5
			c0-2.8,3-4.6,5.7-4.6c0.7,0,1.6,0.1,2,0.4c-0.9,0.9-1.9,3.2-1.9,4.6c0,3,1.7,4.5,4.4,4.5c9.8,0,17.9-17.4,24.8-27.8
			c7.6-11.6,15.6-19.6,22.1-24c-1.2-0.3-3.2-0.6-5.8-0.6c-10.7,0-20.2,4.5-27.3,12.5c-5.3,5.9-8.7,12.3-8.7,18.2
			c0,3.7,2.4,5.2,4.3,5.2c2.4,0,3.9-1.1,4.4-1.7c-0.1,1.1-1.8,2.7-4.9,2.7c-4.6,0-9.1-3-9.1-9.2c0-6.3,4.2-12.5,10.4-17.4
			c8.4-6.6,20.4-11.1,30.5-11.1c3.3,0,5.5,0.2,7.2,0.4c1.7-1.2,3.4-2.2,4.5-2.7c0.7-0.3,1.2-0.4,1.4-0.1
			C250.1,244.6,249.9,244.9,249.5,245.3z"/>
		<path class="st0" d="M256.6,296.4c0,0.9,0.3,1.5,1,1.8c-5.3,0.4-7.9-2.1-7.9-5.6c0-2.2,0.9-4.9,2.7-7.8c2.6-4.3,5.6-8.4,5.6-10
			c0-0.6-0.3-0.9-0.9-0.9c-1.4,0-3.1,1.7-4.8,4c0.9-3.3,4.8-7.1,9.6-7.1c3.2,0,4.8,1.7,4.8,4c0,1.6-0.9,3.7-2.2,5.4
			c-0.3,0.4,0,0.5,0.2,0.2c3.6-5,7-9.6,11.1-9.6c2.9,0,4.8,1.4,4.8,4c0,4.8-4.4,7.8-7.8,7.8c-2,0-3.4-0.5-4.2-1.2
			c1.2,0,4.9-5.2,4.9-7.4c0-0.6-0.4-0.6-0.6-0.6c-1.5,0-3.7,2.5-8.1,8.2C261.4,286.1,256.7,293,256.6,296.4z"/>
		<path class="st0" d="M278.8,292.8c0-3.1,1.6-6.2,5-10.8c2.7-3.7,4-5.9,4-7.3c0-0.6-0.3-0.9-0.9-0.9c-1.4,0-3.1,1.7-4.8,4
			c0.9-3.3,4.8-7.1,9.6-7.1c3.2,0,5,1.7,5,4c0,2.7-2.2,6.5-5,10.6c-3.4,4.9-5.1,7.7-5.1,9.6c0,0.7,0.4,1.5,1.5,1.5
			c1.3,0,3.3-1.2,5.7-3.9c2.2-2.5,3.5-4.6,5-7.2c-0.6,2.4-2.4,5.3-4.5,7.8c-2.5,2.9-5.4,5.1-9.4,5.1
			C280.8,298.3,278.8,296,278.8,292.8z M297.5,258c2.5,0,4.4,2.4,4.1,4.8c-0.3,2.7-2.7,5-5.6,5c-2.7,0-4.5-2.4-4.1-4.9
			C292.3,260.1,294.9,258,297.5,258z"/>
		<path class="st0" d="M306.9,274.7c0-0.6-0.3-0.9-0.9-0.9c-1.4,0-3.1,1.7-4.8,4c0.9-3.3,4.8-7.1,9.6-7.1c3.2,0,4.8,1.7,4.8,4
			c0,1.6-0.9,3.7-2.2,5.4c-0.2,0.3,0,0.4,0.2,0.2c3.6-4.8,7.5-9.5,12.4-9.5c3,0,5.3,1.4,5.3,4.5c0,1.4-1,3.5-1.9,4.8
			c-0.2,0.4,0.1,0.4,0.2,0.2c3.6-4.8,7.5-9.5,12.4-9.5c3,0,5.5,1.6,5.5,4.8c0,2.7-1.7,5.6-4.5,9.7c-3.4,4.9-5.1,7.7-5.1,9.6
			c0,0.7,0.4,1.5,1.5,1.5c1.3,0,3.3-1.2,5.7-3.9c2.2-2.5,3.5-4.6,5-7.2c-0.6,2.4-2.4,5.3-4.5,7.8c-2.5,2.9-5.4,5.1-9.4,5.1
			c-4.2,0-6.1-2.4-6.1-5.5c0-3,1.5-6,4.8-10.4c2.7-3.8,4.9-7.1,4.9-8.5c0-0.4-0.2-0.8-0.8-0.8c-1.6,0-4.8,2.6-9.3,8.5
			c-2.2,3-4.9,7-6.8,10.4c-1.9,3.2-3,5.9-2.4,6.3c-3.2-0.1-5.8-2.1-5.8-5.6c0-2.2,0.9-5.1,2.8-8c2.9-4.3,6.4-9,6.4-10.8
			c0-0.4-0.2-0.8-0.8-0.8c-1.6,0-4.8,2.6-9.3,8.5c-2.2,3-4.9,7-6.8,10.4c-1.9,3.2-3,5.9-2.4,6.3c-3.2-0.1-5.8-2.1-5.8-5.6
			c0-2.2,0.9-4.9,2.7-7.8C303.8,280.4,306.9,276.3,306.9,274.7z"/>
		<path class="st0" d="M367.6,293.1c1.6-1.7,4.2-5.2,3.7-7.7c0.3,0.5,0.5,1.2,0.5,1.9c0,1.9-0.6,4.4-3.1,6.8
			c-2.7,2.6-6.4,4.2-10.4,4.2c-5.7,0-8.7-2.7-8.7-7.4c0-3.7,2.2-8.9,5.9-12.8c5.2-5.5,11.7-7.4,16.1-7.4c3.6,0,6,1.8,6,4.6
			c0,4.8-5.3,7.6-10.7,7.6c-1.4,0-2.8-0.6-3.3-1.4c-3.5,5-5.5,10.5-5.5,12.9c0,1.9,0.9,2.8,2.7,2.8
			C362.2,297.1,365.2,295.7,367.6,293.1z M372.1,271.4c-1.6,0-3.7,3.1-5.7,5.8c-0.7,1-1.9,2.7-2.6,3.8c0.3,0.5,0.9,0.8,1.4,0.9
			c3.2,0.3,7.6-6.3,7.6-9.4C372.8,271.7,372.6,271.4,372.1,271.4z"/>
		<path class="st0" d="M392,293.1c0-1.2,0.4-2.8,1.3-4.2c0.1-0.2,0.1-0.4-0.1-0.1c-3.6,4.8-7.3,9.3-12.7,9.3c-3.2,0-5.2-2-5.2-4.7
			c0-2.1,0.9-4.4,3.8-8.6c2.8-4.2,5.7-8.4,5.7-10c0-0.6-0.3-0.9-0.9-0.9c-1.4,0-3.1,1.7-4.8,4c0.9-3.3,4.8-7.1,9.6-7.1
			c3.2,0,4.8,1.7,4.8,4c-0.1,3-2.2,7.1-5.3,11.5c-2.9,4.1-5.2,7.5-5.2,8.9c0,0.6,0.3,0.9,0.9,0.9c1.7,0,6.3-4.2,9.7-9.1
			c1.7-2.3,4.1-6,6.1-9.5c0.5-0.9,1-1.9,1-2.8c0-0.6-0.4-0.9-0.9-0.9c-0.4,0-0.9,0.1-1.5,0.6c1.8-2.4,4.1-3.5,6.3-3.5
			c3.3,0,4.9,1.7,4.9,4.2c0,2.4-1.7,5.6-3.8,9.1c-2.9,4.6-5.5,8.6-5.5,10.7c0,0.9,0.4,1.6,1.5,1.6c1.3,0,3.1-1.2,5.5-3.9
			c2.2-2.5,3.5-4.6,5-7.2c-0.6,2.4-2.4,5.4-4.5,7.8c-2.7,3.1-5.3,5.1-9.5,5.1C393.9,298.3,392,296.1,392,293.1z"/>
		<path class="st0" d="M418.7,296.4c0,0.9,0.3,1.5,1,1.8c-5.3,0.4-7.9-2.1-7.9-5.6c0-2.2,0.9-4.9,2.7-7.8c2.6-4.3,5.6-8.4,5.6-10
			c0-0.6-0.3-0.9-0.9-0.9c-1.4,0-3.1,1.7-4.8,4c0.9-3.3,4.8-7.1,9.6-7.1c3.2,0,4.8,1.7,4.8,4c0,1.6-0.9,3.7-2.2,5.4
			c-0.3,0.4,0,0.5,0.2,0.2c3.6-5,7-9.6,11.1-9.6c2.9,0,4.8,1.4,4.8,4c0,4.8-4.4,7.8-7.8,7.8c-2,0-3.4-0.5-4.2-1.2
			c1.2,0,4.9-5.2,4.9-7.4c0-0.6-0.4-0.6-0.6-0.6c-1.5,0-3.7,2.5-8.1,8.2C423.4,286.1,418.7,293,418.7,296.4z"/>
	</g>
	<g>
		<path class="st1" d="M127.9,332.1c-0.5,3.5-2.8,5.4-6.1,5.4c-3.7,0-6.6-2.3-6.6-7.2c0-4.9,3-7.2,6.6-7.2c3.3,0,5.7,1.9,6.1,5.4
			h-1.1c-0.4-3-2.4-4.5-5.1-4.5c-3.2,0-5.6,2-5.6,6.3c0,4.3,2.4,6.3,5.6,6.3c2.7,0,4.6-1.5,5.1-4.5H127.9z"/>
		<path class="st1" d="M134.6,329.8h9.6v-6.4h1v14h-1v-6.7h-9.6v6.7h-1v-14h1V329.8z"/>
		<path class="st1" d="M151.5,323.3h9v0.9h-8v5.5h7.2v0.9h-7.2v5.8h8.2v0.9h-9.2V323.3z"/>
		<path class="st1" d="M174.9,323.3v0.8l-6.9,10c-0.6,0.8-1.1,1.6-1.7,2.3c0.8,0,1.6,0,2.4,0h6.4v0.9h-10v-0.8l6.9-10
			c0.6-0.8,1.1-1.6,1.7-2.3c-0.8,0-1.6,0-2.4,0h-6v-0.9H174.9z"/>
		<path class="st1" d="M187.3,323.3h1.4l5.8,7.6c1.2,1.5,2.4,3.1,3.6,4.8c0-1.7-0.1-3.5-0.1-5.2v-7.2h1v14h-0.9l-7.1-9.5
			c-1-1.3-1.8-2.5-2.7-3.7c0,1.4,0,2.8,0,4.2v8.9h-1V323.3z"/>
		<path class="st1" d="M214.2,333.6h-7.6l-1.5,3.8H204l5.9-14h1.1l5.9,14h-1.1L214.2,333.6z M207,332.7h6.8l-0.8-1.8
			c-1-2.5-1.9-4.6-2.7-6.7c-0.8,2.1-1.7,4.2-2.7,6.7L207,332.7z"/>
		<path class="st1" d="M231.7,323.3v0.9h-5.1v13.1h-1v-13.1h-5.1v-0.9H231.7z"/>
		<path class="st1" d="M253,335.3l2.1,2.1h-1.3l-1.4-1.4c-1.1,1-2.5,1.6-4.3,1.6c-3.1,0-5.2-1.5-5.2-4c0-2.1,1.5-3,3.2-3.7
			c-1.2-1.3-1.9-2.1-1.9-3.5c0-2,1.7-3.2,3.8-3.2s3.8,1.2,3.8,3.1c0,2.2-2.1,2.9-4.2,3.7c0.2,0.1,0.3,0.3,0.5,0.5l4.3,4.2
			c0.6-0.9,1-2.2,1-3.7v-1.2h1v1.3C254.4,332.7,253.9,334.2,253,335.3z M248.1,336.7c1.5,0,2.8-0.5,3.7-1.3l-4.7-4.6
			c-0.1-0.1-0.3-0.3-0.4-0.4c-1.5,0.7-2.8,1.5-2.8,3.2C243.9,335.4,245.5,336.7,248.1,336.7z M247,329.4c1.9-0.7,3.7-1.3,3.7-3.2
			c0-1.4-1.2-2.3-2.8-2.3c-1.6,0-2.8,0.9-2.8,2.3C245.2,327.4,245.8,328.2,247,329.4z"/>
		<path class="st1" d="M277.4,323.3v0.9h-5.1v13.1h-1v-13.1h-5.1v-0.9H277.4z"/>
		<path class="st1" d="M283.4,329.8h9.6v-6.4h1v14h-1v-6.7h-9.6v6.7h-1v-14h1V329.8z"/>
		<path class="st1" d="M300.4,323.3h9v0.9h-8v5.5h7.2v0.9h-7.2v5.8h8.2v0.9h-9.2V323.3z M304.5,322l1.4-2.7h1.3l-1.8,2.7H304.5z"/>
		<path class="st1" d="M314.6,330.3c0-4.9,3-7.2,6.6-7.2c3.7,0,6.6,2.3,6.6,7.2c0,4.9-3,7.2-6.6,7.2
			C317.6,337.5,314.6,335.2,314.6,330.3z M326.8,330.3c0-4.3-2.4-6.3-5.6-6.3s-5.6,2-5.6,6.3c0,4.3,2.4,6.3,5.6,6.3
			S326.8,334.6,326.8,330.3z"/>
	</g>
	<g>
		<line class="st1" x1="440.3" y1="337.2" x2="340.4" y2="337.2"/>
		<rect x="340.4" y="336.5" class="st1" width="99.9" height="1.3"/>
	</g>
</g>
</svg>
