<?xml version="1.0" encoding="utf-8"?>
<!-- Generator: Adobe Illustrator 26.3.1, SVG Export Plug-In . SVG Version: 6.00 Build 0)  -->
<svg version="1.1" id="Calque_1" xmlns="http://www.w3.org/2000/svg" xmlns:xlink="http://www.w3.org/1999/xlink" x="0px" y="0px"
	 viewBox="0 0 442.8 485.8" style="enable-background:new 0 0 442.8 485.8;" xml:space="preserve">
<style type="text/css">
	.st0{fill:none;}
	.st1{fill:#53AE32;}
	.st2{fill:currentColor;}
</style>
<g>
	<path class="st0" d="M374,61.9c3.7-1.3,7.7-3.6,9.4-7.4c1.5-3.3,1-7.5-1.6-12.2c-1.9-3.7-4.5-5.8-7.5-6.3c-4-0.7-8.6,1.3-12.6,4.1
		c3.8,4.5,7.4,8.5,9.9,14.5C372.6,56.9,373.4,59.4,374,61.9z"/>
	<path class="st0" d="M369,101.5c4.1-1.6,8.2-4.5,11.3-9.8c5.6-9.3,0.7-16.8-4.8-21.6C376.6,80.9,374.5,92.1,369,101.5z"/>
	<path class="st0" d="M242.6,46.6c-1.7-1.6-2.8-2.3-2.9-2.4l0.6-0.8c0.1,0,1.2,0.8,2.9,2.4c5.9-7.3,13-13.5,20.9-18.6
		c-1.3,0.1-2.6-0.2-3.7-1c-5.5-3.8-13.6-8-21.2-6.3c-4.8,1.1-8.8,4.5-11.9,10c-9.7,17.3-1.3,35.7,4,44.5c0.1-6.3,1.5-12.4,4.5-17.7
		C237.7,53.3,240.1,49.9,242.6,46.6z"/>
	<path class="st0" d="M235.8,98.1c-2.4-6.1-3.9-12.5-4.4-18.7c-0.3,0.1-0.5,0.1-0.8,0c-5.3-1.1-14.6-1.4-17.2,8.2
		c-2.2,8.4,2.6,14,7,17.2c0.9,0.6,1.3,1.6,1.1,2.6c-0.2,1-0.9,1.9-1.9,2.2c-4,1.3-9.1,4-10.9,9.1c-1.9,5.1-1.2,12.9,3.1,17.3
		c3,3,7.1,3.5,12,1.7c4.3-1.6,9-4.1,13.6-6.5c5.9-3.1,11.3-5.9,15.4-6.8C245.9,117.9,239.7,108.4,235.8,98.1z"/>
	<path class="st0" d="M303.5,103.7c-1.8,0.6-3.4,1.4-4.8,2.4c1.5,0.2,3,0.2,4.5,0c0.8-0.1,1.6-0.3,2.4-0.6c2.1-0.7,4.5-0.5,6.5,0.6
		c4.2,2.2,8.3,3.6,12.2,4c6.2,0.7,12.5-1.1,17.5-3.2C328.1,104.8,312.8,100.5,303.5,103.7z"/>
	<path class="st0" d="M289.1,8.2c-1.4-1-2.9-1.2-4.6-0.7c-4.6,1.4-8.8,5-12.6,10.8c-1.2,1.8-2.3,3.8-3.3,5.9
		c-0.1,0.2-0.2,0.4-0.4,0.6c7.9-4.5,16.4-7.8,25.3-9.8C292.4,12,291,9.5,289.1,8.2z"/>
	<path class="st0" d="M347.9,12.7c9.6,7.7,8.7,13,9,17.8c1.4-6.1,1.8-12.5-0.4-17.8c-1.9-4.6-5.5-8-10.7-10.1
		c-11.7-4.7-22.6,1.7-31.1,10.1C324.2,12.1,335.8,3,347.9,12.7z"/>
	<path class="st0" d="M272.3,161.7c2.1,0.4,4.2,0.9,6.2,1.5c0.9-13.1,1.9-26.5,2.8-34.5c0-0.1,0-0.2,0-0.2
		c-4.1,5.7-8.7,8.9-16.2,5.1c-1.6-0.8-3.2-1.8-4.7-2.8c0,0.5,0,1,0,1.6c-0.4,6.5-1.1,17.6-2,28.7c0.3,0.1,0.6,0.3,0.8,0.4
		C263.5,160.9,267.9,161,272.3,161.7z"/>
	<path class="st1" d="M371.7,63.7c-0.6,0.1-0.8,0.6-0.9,1c-0.1,0.5,0.1,0.9,0.5,1.2c1.1,0.7,2.5,1.7,3.9,2.9c-0.2-1.9-0.6-3.9-1-5.8
		C373.4,63.2,372.5,63.4,371.7,63.7z"/>
	<path class="st1" d="M298,32.5c0.2,0.1,0.6,0,0.8-0.3c2.6-4.5,7.7-12.5,14.4-19.4c-6.3,0-12.6,0.7-18.8,2
		c1.9,5.4,2.7,12.4,3.1,17.1C297.5,32.2,297.8,32.4,298,32.5z"/>
	<path class="st1" d="M257.5,126c-0.9-0.6-2.2-0.7-3.8-0.5c1,1,2.1,1.9,3.2,2.7c0.8,0.6,1.7,1.3,2.5,1.9
		C259.2,128,258.6,126.7,257.5,126z"/>
	<path class="st1" d="M231.7,78.1c0.2-0.2,0.2-0.6,0-1c-0.1-0.2-0.3-0.5-0.4-0.7c0,0.7,0,1.3,0.1,2
		C231.5,78.4,231.6,78.3,231.7,78.1z"/>
	<path class="st1" d="M354.3,43.7c0.3,0.2,0.8,0.3,1.3-0.1c1.6-1.5,3.5-3,5.4-4.3c-0.6-0.7-1.1-1.3-1.7-2c-1.1-1.4-1.7-2.8-2-4.1
		c-0.9,3.3-2.1,6.5-3.3,9.3C353.7,43,354,43.5,354.3,43.7z"/>
	<path class="st1" d="M281.3,128.5c0.9-7.6,3.2-14.4,7-20.1c1.7-2.5,4.8-3.7,7.7-2.8c0.9,0.3,1.8,0.4,2.7,0.6c1.5-1,3.1-1.8,4.8-2.4
		c9.3-3.2,24.6,1.1,38.3,3.3c2.6-1.1,4.8-2.2,6.4-3.2c1.9-1.1,4.1-1.5,6.2-1.1c3.1,0.5,8.9,1,14.6-1.2c5.5-9.5,7.5-20.6,6.5-31.5
		c-1.6-1.4-3.2-2.5-4.7-3.5c-0.7-0.5-1.1-1.3-1-2.2c0.1-0.9,0.8-1.5,1.6-1.8c0.8-0.2,1.7-0.5,2.6-0.8c-0.6-2.5-1.4-5-2.4-7.3
		c-2.5-6-6.1-10-9.9-14.5c-2,1.3-3.8,2.9-5.4,4.3c-0.7,0.7-1.8,0.7-2.6,0.2c-0.8-0.6-1.1-1.6-0.7-2.5c1.5-3.4,2.9-7.4,3.9-11.6
		c-0.3-4.8,0.6-10.1-9-17.8c-12.2-9.7-23.8-0.6-33.2,0c-7.2,7.1-12.6,15.7-15.1,19.9c-0.4,0.7-1.1,1-1.9,0.8
		c-0.8-0.2-1.3-0.8-1.3-1.6c-0.3-3.9-1-11.2-3.1-16.9c-8.8,2-17.4,5.4-25.3,9.8c-0.7,1.1-1.9,2-3.2,2.3c-0.3,0.1-0.6,0.1-0.8,0.1
		c-7.9,5.1-15,11.3-20.9,18.6c7.5,6.8,27.1,28.2,28.2,67.5l-1,0c-1-38.9-20.4-60.1-27.8-66.8c-2.5,3.2-4.9,6.7-6.9,10.3
		c-3,5.3-4.3,11.3-4.5,17.7c0.5,0.7,0.9,1.4,1.3,2c0.4,0.6,0.4,1.4,0,2.1c-0.3,0.4-0.7,0.7-1.1,0.8c0.5,6.2,2.1,12.6,4.4,18.7
		c4,10.3,10.1,19.7,17,26.5c2.1-0.4,3.9-0.4,5.2,0.5c1.5,1,2.3,2.8,2.4,5.7c1.5,1,3.1,2,4.7,2.8
		C272.6,137.4,277.2,134.1,281.3,128.5z M335.3,19.2l0.6,0.8c-0.3,0.2-32.9,24.6-48.6,58.8l-0.9-0.4C302.2,43.9,335,19.5,335.3,19.2
		z"/>
	<path class="st1" d="M289.1,108.9c-3.4,5.1-5.6,11.1-6.6,17.8c4.2-6.3,8.2-14.7,14.9-19.8c-0.6-0.1-1.2-0.3-1.8-0.4
		C293.2,105.8,290.5,106.7,289.1,108.9z"/>
	<path class="st1" d="M354.2,103.7c-1.9-0.3-3.9,0-5.5,1c-1.4,0.8-3.1,1.7-5.1,2.6c10.7,1.6,20.1,1.7,24.5-4.4
		C362.5,104.7,357.2,104.3,354.2,103.7z"/>
	<path d="M257.3,161.6c0,0,0,0.1,0,0.1c0.1,0,0.1,0,0.2,0C257.5,161.7,257.4,161.6,257.3,161.6z"/>
	<path class="st2" d="M370.8,64.6c0.1-0.4,0.3-0.8,0.9-1c0.8-0.2,1.7-0.5,2.6-0.8c4-1.4,8.2-3.8,10-7.9c1.6-3.6,1.1-8-1.6-13.1
		c-2.1-3.9-4.8-6.3-8.2-6.9c-4.4-0.8-9.2,1.4-13.5,4.4c-2,1.4-3.8,2.9-5.4,4.3c-0.5,0.4-1,0.3-1.3,0.1c-0.3-0.2-0.6-0.7-0.3-1.3
		c1.2-2.8,2.4-6,3.3-9.3c1.9-6.9,2.8-14.5,0.2-20.9c-2-4.8-5.8-8.4-11.3-10.6c-9.6-3.8-19.6-1.1-29.8,8c-1.1,1-2.2,2-3.2,3.1
		c-6.7,6.9-11.8,14.9-14.4,19.4c-0.2,0.3-0.5,0.4-0.8,0.3c-0.3-0.1-0.5-0.3-0.6-0.7c-0.3-4.7-1.1-11.6-3.1-17.1
		c-1.1-3.2-2.7-5.9-4.7-7.3c-1.6-1.1-3.5-1.4-5.5-0.8C279.4,8,275,11.8,271,17.8c-1.2,1.8-2.3,3.8-3.4,6c-0.6,1.2-1.6,2.1-2.9,2.4
		c-1.3,0.3-2.6,0.1-3.7-0.7c-5.6-3.9-14-8.3-22-6.4c-5.1,1.2-9.3,4.7-12.6,10.5c-10.5,18.7-0.5,38.6,4.9,46.9
		c0.2,0.2,0.3,0.5,0.4,0.7c0.2,0.4,0.2,0.7,0,1c-0.1,0.1-0.2,0.2-0.4,0.3c-0.2,0.1-0.3,0.1-0.5,0.1c-5.7-1.1-15.6-1.5-18.4,9
		c-2.4,9,2.7,14.9,7.4,18.3c0.5,0.4,0.8,1,0.7,1.7c-0.1,0.7-0.6,1.2-1.2,1.4c-4.2,1.4-9.5,4.2-11.6,9.7c-2,5.4-1.3,13.7,3.4,18.3
		c2.3,2.3,6.4,4.4,13,2c4.4-1.6,9.1-4.1,13.7-6.6c6-3.2,11.8-6.2,15.8-6.8c1.5-0.2,2.8-0.1,3.8,0.5c1.1,0.7,1.7,2.1,1.9,4.1
		c0.1,0.7,0.1,1.4,0,2.2c-0.3,6.5-1.1,17.3-2,28.2c0.3,0.2,0.6,0.3,1,0.5c0.8-11.1,1.6-22.1,2-28.7c0-0.6,0-1.1,0-1.6
		c-0.1-2.8-0.9-4.7-2.4-5.7c-1.3-0.9-3.1-0.9-5.2-0.5c-4.1,0.8-9.5,3.7-15.4,6.8c-4.6,2.4-9.3,4.9-13.6,6.5c-4.9,1.8-9,1.2-12-1.7
		c-4.3-4.3-5-12.2-3.1-17.3c1.9-5.1,7-7.8,10.9-9.1c1-0.3,1.7-1.2,1.9-2.2c0.2-1-0.3-2-1.1-2.6c-4.4-3.2-9.3-8.8-7-17.2
		c2.6-9.7,11.9-9.3,17.2-8.2c0.3,0.1,0.5,0,0.8,0c0.4-0.1,0.9-0.4,1.1-0.8c0.4-0.6,0.4-1.4,0-2.1c-0.4-0.6-0.8-1.3-1.3-2
		c-5.3-8.8-13.7-27.3-4-44.5c3.1-5.5,7.1-8.9,11.9-10c7.6-1.7,15.8,2.4,21.2,6.3c1.1,0.8,2.4,1.1,3.7,1c0.3,0,0.6-0.1,0.8-0.1
		c1.3-0.3,2.5-1.2,3.2-2.3c0.1-0.2,0.2-0.4,0.4-0.6c1-2.1,2.1-4.1,3.3-5.9c3.8-5.8,8.1-9.4,12.6-10.8c1.7-0.5,3.3-0.3,4.6,0.7
		c1.9,1.3,3.3,3.8,4.3,6.7c2,5.7,2.8,13.1,3.1,16.9c0.1,0.8,0.6,1.4,1.3,1.6c0.7,0.2,1.5-0.1,1.9-0.8c2.5-4.3,7.8-12.8,15.1-19.9
		c8.4-8.3,19.4-14.7,31.1-10.1c5.2,2.1,8.9,5.5,10.7,10.1c2.2,5.4,1.8,11.8,0.4,17.8c-1,4.1-2.4,8.1-3.9,11.6
		c-0.4,0.9-0.1,1.9,0.7,2.5c0.8,0.6,1.8,0.5,2.6-0.2c1.6-1.4,3.4-3,5.4-4.3c4-2.8,8.6-4.8,12.6-4.1c3.1,0.5,5.6,2.7,7.5,6.3
		c2.5,4.8,3,8.9,1.6,12.2c-1.7,3.8-5.6,6.1-9.4,7.4c-0.9,0.3-1.7,0.6-2.6,0.8c-0.9,0.2-1.5,0.9-1.6,1.8c-0.1,0.9,0.2,1.7,1,2.2
		c1.5,0.9,3.1,2.1,4.7,3.5c5.6,4.8,10.4,12.3,4.8,21.6c-3.1,5.3-7.2,8.2-11.3,9.8c-5.8,2.3-11.6,1.8-14.6,1.2
		c-2.1-0.4-4.3,0-6.2,1.1c-1.7,1-3.9,2.1-6.4,3.2c-5,2.1-11.3,3.9-17.5,3.2c-3.9-0.4-8-1.8-12.2-4c-2.1-1.1-4.4-1.3-6.5-0.6
		c-0.9,0.3-1.7,0.5-2.4,0.6c-1.5,0.2-3,0.2-4.5,0c-0.9-0.1-1.8-0.3-2.7-0.6c-2.9-0.9-6,0.3-7.7,2.8c-3.8,5.7-6.1,12.5-7,20.1
		c0,0.1,0,0.2,0,0.2c-0.9,8-1.9,21.4-2.8,34.5c0.3,0.1,0.7,0.2,1,0.3c0.9-13.2,2-26.6,2.8-34.7c0.1-0.7,0.2-1.4,0.3-2.2
		c1-6.7,3.2-12.7,6.6-17.8c1.4-2.1,4.1-3.1,6.6-2.4c0.6,0.2,1.2,0.3,1.8,0.4c1.9,0.4,3.9,0.4,5.8,0.2c0.8-0.1,1.7-0.3,2.6-0.6
		c1.8-0.6,3.9-0.4,5.7,0.6c4.3,2.3,8.5,3.7,12.6,4.1c7,0.8,14.1-1.5,19.4-3.9c2-0.9,3.7-1.8,5.1-2.6c1.7-1,3.6-1.3,5.5-1
		c3,0.5,8.4,1,13.9-0.8c4.7-1.5,9.4-4.6,13.1-10.7c6.3-10.5-0.2-18.8-5.9-23.6c-1.4-1.2-2.8-2.2-3.9-2.9
		C370.9,65.5,370.7,65.1,370.8,64.6z"/>
	<path class="st2" d="M267.1,454.9c-4.4,14.2-7.9,24.4-9.1,27.9c-2.4-6.9-13.7-40.5-22.1-95.9c-0.5-3.4-1-7-1.5-10.8
		c-0.1-0.6-0.2-1.2-0.2-1.8c-0.1-1-0.3-2.1-0.4-3.2h-1c0.2,1.6,0.4,3.2,0.6,4.8c-2.9,6.1-5.7,11.8-8.3,16.9
		c-25.4,49.9-46.8,78.3-51.3,84c0-3.7-0.1-14.5,0.2-29.4c0.4-20.6,1.5-48,4.3-76.4h-1c-2.8,28.3-3.9,55.7-4.3,76.3
		c-0.4,18.5-0.1,30.7-0.1,30.8l0,1.4l0.9-1.1c0.2-0.3,23.7-29.3,52.2-85.3c2.4-4.8,5-10,7.7-15.6c0.4,3.2,0.9,6.3,1.3,9.3
		c9.4,62.2,22.5,97.1,22.7,97.4l0.5,1.3l0.5-1.3c0-0.1,4.1-11.6,9.6-29.3c6.9-22.1,15.6-52.6,22.3-84h-1
		C282.6,402.5,273.9,432.9,267.1,454.9z"/>
	<path class="st2" d="M272.3,161.7c-4.4-0.7-8.8-0.8-13-0.3c-0.3-0.1-0.6-0.3-0.8-0.4c-0.3-0.2-0.6-0.3-1-0.5
		c-1-0.5-1.9-0.9-2.9-1.3c-12-4.7-24.7-3.9-35,2.1c-15.8,9.3-31,34.2-46.4,67.4l1.1,0c15.2-32.9,30.2-57.4,45.8-66.6
		c5.6-3.3,12.1-5,18.7-5c5.1,0,10.3,1,15.4,3c1.1,0.4,2.2,0.9,3.2,1.4c0.1,0,0.1,0.1,0.2,0.1c-0.1,0-0.1,0-0.2,0
		c-6.4,1.1-12.3,3.5-17.4,7.2c-0.6,0.4-1.2,0.9-1.7,1.3c-0.9,0.7-1.7,1.5-2.5,2.3c-5.9,5.9-9.6,13.6-10.9,22.7
		c-1.3,9-1.9,20.5-2,33.6h1c0.1-13,0.8-24.5,2-33.4c1.4-10.1,5.9-18.4,13-24.3c0.6-0.5,1.2-0.9,1.8-1.4c0.3-0.2,0.6-0.5,1-0.7
		c5.1-3.5,11.1-5.7,17.5-6.6c0.6-0.1,1.1-0.1,1.7-0.2c1.3-0.1,2.7-0.2,4-0.2c2.4,0,4.9,0.2,7.3,0.6c12.4,2,22.7,9,28.3,19.1
		c5.8,10.5,7.9,26.7,7.7,47h1c0.3-20.5-1.9-36.8-7.8-47.5c-4.6-8.3-12.4-14.6-21.8-17.8c-0.3-0.1-0.7-0.2-1-0.3
		C276.5,162.6,274.4,162.1,272.3,161.7z"/>
	<path class="st2" d="M171.8,371.2c-0.2,0.2-0.3,0.4-0.5,0.6c-35.4,43.4-62.2,66.6-67.8,71.3c0.7-3.6,2.9-14.2,6.4-28.7
		c2.9-12.4,6.7-27.2,11.2-43.2h-1c-4.5,15.8-8.2,30.6-11.1,42.9c-4.3,18-6.6,30-6.6,30.1l-0.3,1.3l1.1-0.8
		c0.3-0.2,29.3-23.6,69.1-72.3c0.3-0.4,0.6-0.8,1-1.2H171.8z"/>
	<path class="st2" d="M239.7,44.3c0.1,0,1.1,0.8,2.9,2.4c7.4,6.7,26.7,27.8,27.8,66.8l1,0c-1.1-39.3-20.6-60.7-28.2-67.5
		c-1.8-1.6-2.9-2.4-2.9-2.4L239.7,44.3z"/>
	<path class="st2" d="M335.9,20l-0.6-0.8c-0.3,0.2-33.1,24.7-48.9,59.2l0.9,0.4C303,44.6,335.6,20.3,335.9,20z"/>
	<g>
		<line class="st2" x1="102.5" y1="338.8" x2="2.6" y2="338.8"/>
		<rect x="2.6" y="338.2" class="st2" width="99.9" height="1.3"/>
	</g>
	<g>
		<path class="st1" d="M33.6,274.7c-1.5-0.3-3.6-0.4-4.7-0.3c-0.9-0.9-1.4-3.4-1.4-5.1c0-7.2,3.7-16.4,10.3-16.4
			c2.6,0,4.8,1.2,4.8,4.8c0,2.9-1.8,8.1-5.1,9c4,0.9,10.7-1.9,10.7-7.8c0-5.6-7-6.9-10.7-6.9c-10.2,0-17.9,4.8-18.7,12.4
			c-0.4,3.8,1.7,8.1,7.2,10.2C10.7,275.3,0,284.1,0,294.2c0,8.8,6.3,11.5,14.9,11.5c4.5,0,8.7-1.5,12.1-4.2s5.5-6.3,6-9.9
			c-1.3,3.2-3.7,6-7,8.6c-3.7,2.9-7.1,4.7-10.7,4.7c-4.1,0-5.4-1.9-5.4-5.4c0-7.3,9.5-22,17.4-24.1c1.7,0.9,4.7,1.7,6.4,1.8
			c1.3,0.1,2.2-0.2,2.4-0.8C36.1,275.8,35.8,275.1,33.6,274.7z"/>
		<path class="st1" d="M60.3,296c2.8-2.3,4.9-4.8,5.5-7.2c-1,2.2-3.7,4.8-6,6.6c-2.1,1.7-5.1,3.5-8.5,4.5c-0.4,0.1-0.4-0.1-0.1-0.2
			c1.2-0.5,2.3-1.1,3.5-2.4c2.1-2.2,3.6-5.4,3.7-8.9c0.2-4.2-0.6-7.1-0.7-9.1c-0.1-2.3,0.9-3.9,2.6-3.9c1.4,0,1.9,1.9,1.9,4.3
			c0,0.6-0.1,1.2-0.2,1.7c2.7-0.1,5.1-1.8,5.1-4.1c0-2-1.8-3.4-4.2-3.4c-4,0-8.6,3.2-12.2,6.6c-2.9,2.7-5.5,5.8-7.5,7.9
			c-3.2-0.4-7.5,2.2-7.5,7.2c0,4.2,3.7,6,7.6,6c3.2,0,6.2-0.4,8.3-1.1C54.6,299.7,58,297.8,60.3,296z M46.6,297.8
			c-0.9,2-1.9,3.2-3.5,3.2c-1.5,0-2.2-1.1-2.2-2.7c0-4,3-7.3,5.1-7.6c-0.4-1.1-1.4-1.8-1.9-1.9c2.4-2.4,4.3-4.9,7-7.5
			c1.5-1.5,4.3-4,6-4.8c0.2-0.1,0.3,0,0.1,0.1c-3.5,2.3-6,6.3-7.4,10.4C48.5,291.2,47.9,295,46.6,297.8z"/>
		<path class="st1" d="M91.9,274.4c-4.1,0-7.3,3.7-10.2,7.8c-0.2,0.3-0.4,0.1-0.3-0.1c0.6-1.1,1.2-2.6,1.2-3.8c0-2.3-1.6-4-4.8-4
			c-4.8,0-8.6,3.7-9.6,7.1c1.7-2.3,3.4-4,4.8-4c0.6,0,0.9,0.4,0.9,0.9c0,0.9-1.3,3.2-4.6,8.7c-4.1,6.9-8.4,14.5-12.7,21.5
			c-2.9,4.6-5.5,8.6-6.5,9.7c1.2,0,1.6-1.9,3.7-3c1.4-0.7,3.2-0.6,5-0.6c3.2,0,5.1-2.2,7.1-5.5l7-11.8c0.1-0.2,0.2-0.1,0.1,0.1
			c-0.4,2.4,0.3,4.5,3.8,4.5c4.1,0,10.4-2.2,16.3-9.9c2.7-3.5,4.5-8.2,4.5-12C97.3,275.8,94.6,274.4,91.9,274.4z M84.2,289
			c-5.7,9.2-7.6,11.1-9.2,11.1c-1.4,0-2.3-1.5-1-4.8c1.2-2,4.1-7.2,5.8-9.6c5.3-6.7,7.6-9,9.1-9c0.4,0,0.8,0.3,0.8,0.9
			C89.6,279,87.8,283.1,84.2,289z"/>
		<path class="st1" d="M125.1,274.2c-4.1,0-7.5,4.6-11.1,9.6c-0.2,0.3-0.5,0.1-0.2-0.2c1.2-1.7,2.2-3.8,2.2-5.4c0-2.3-1.6-4-4.8-4
			c-4.8,0-8.6,3.7-9.6,7.1c1.7-2.3,3.4-4,4.8-4c0.6,0,0.9,0.4,0.9,0.9c0,1.6-3,5.7-5.6,10c-1.8,3-2.7,5.7-2.7,7.8
			c0,3.5,2.6,6,7.9,5.6c-0.7-0.3-1-0.9-1-1.8c0.1-3.4,4.8-10.3,8.2-14.9c4.4-5.7,6.6-8.2,8.1-8.2c0.3,0,0.6,0.1,0.6,0.6
			c0,2.2-3.7,7.4-4.9,7.4c0.9,0.7,2.2,1.2,4.2,1.2c3.5,0,7.8-3.1,7.8-7.8C129.9,275.6,127.9,274.2,125.1,274.2z"/>
		<path class="st1" d="M145.2,271.3c2.9,0,5.3-2.3,5.6-5c0.3-2.4-1.6-4.8-4.1-4.8c-2.6,0-5.2,2.1-5.6,5
			C140.7,268.8,142.4,271.3,145.2,271.3z"/>
		<path class="st1" d="M142.9,296c-2.4,2.7-4.4,3.9-5.7,3.9c-1.1,0-1.5-0.8-1.5-1.5c0-1.9,1.7-4.7,5.1-9.6c2.8-4.1,5-7.8,5-10.6
			c0-2.3-1.8-4-5-4c-4.8,0-8.6,3.7-9.6,7.1c1.7-2.3,3.4-4,4.8-4c0.6,0,0.9,0.4,0.9,0.9c0,1.4-1.2,3.5-4,7.3c-3.4,4.6-5,7.7-5,10.8
			c0,3.2,2,5.5,6.1,5.5c4,0,6.8-2.2,9.4-5.1c2.1-2.4,3.9-5.4,4.5-7.8C146.4,291.4,145.1,293.5,142.9,296z"/>
		<path class="st1" d="M171,267.6c-1.5,0-3.4-0.1-4.4-0.1c-2,0-2.8,0.5-5.1,3.7c-1,1.4-2.7,3.8-3.8,5.5h-4.2c-0.7,0-1.6,0-1.8,0.4
			s-0.1,0.6,0.7,0.6h4.5c-3.2,4.6-6.2,9.4-7.6,12.2c-1.2,2.4-1.7,4.3-1.6,6.3c0.1,3.3,2.6,5.5,6.8,5.5c4,0,6.8-1.8,9.6-5.1
			c2.1-2.4,3.8-5.4,4.5-7.8c-1.5,2.6-2.9,4.7-5,7.2c-2.4,2.7-4.4,3.9-5.7,3.9c-1.7,0-1.9-1.6-1.9-2.2c0-1.4,0.6-3.1,1.4-4.7
			c1.9-3.8,5.4-9.6,9.4-15.3h2.6c1.4,0,1.7-0.1,1.7-0.4c0.1-0.4-0.1-0.6-0.9-0.6h-2.7c1.2-2,6-9.1,8.6-12.3
			C175.2,264.4,174,267.6,171,267.6z"/>
		<path class="st1" d="M258.8,266.4c1-6.5-3.5-12.7-11.3-15c0.8-1.3,1.5-2.2,2-2.7c0.4-0.4,0.6-0.6,0.6-0.7
			c-0.1-0.2-0.6-0.1-1.4,0.1c-1.2,0.4-2.8,1.4-4.5,2.7c-1.7-0.2-3.9-0.4-7.2-0.4c-10.2,0-22.2,4.5-30.5,11.1
			c-6.3,5-10.4,11.1-10.4,17.4c0,6.2,4.5,9.2,9.1,9.2c3.1,0,4.8-1.7,4.9-2.7c-0.5,0.6-1.9,1.7-4.4,1.7c-1.9,0-4.3-1.4-4.3-5.2
			c0-5.9,3.5-12.3,8.7-18.2c7.1-8,16.6-12.5,27.3-12.5c2.5,0,4.6,0.3,5.8,0.6c-6.6,4.5-14.5,12.5-22.1,24.1
			c-6.9,10.4-15,27.8-24.8,27.8c-2.7,0-4.4-1.6-4.4-4.5c0-1.4,0.9-3.7,1.9-4.6c-0.4-0.2-1.3-0.4-2-0.4c-2.7,0-5.7,1.8-5.7,4.6
			c0,4.7,4.9,5.5,10.2,5.5c8.2,0,16.4-3.8,23.6-11.1c4.9-4.9,9.6-11.3,14.6-19.5c3.8-6.3,8.1-15.1,12.1-20.7c2.7,1.5,4.4,7.4,3,13.1
			c-1.5,6.3-6.4,13.2-9.9,13.6c-0.6-0.8-1.8-1.5-2.7-1.7c-0.8-0.1-1.9-0.1-2.2,0.6c-0.5,1.2,1.4,1.9,3.1,1.9
			C245.7,280.4,257.5,274.6,258.8,266.4z"/>
		<path class="st1" d="M275.9,274.2c-4.1,0-7.5,4.6-11.1,9.6c-0.2,0.3-0.5,0.1-0.2-0.2c1.2-1.7,2.2-3.8,2.2-5.4c0-2.3-1.6-4-4.8-4
			c-4.8,0-8.6,3.7-9.6,7.1c1.7-2.3,3.4-4,4.8-4c0.6,0,0.9,0.4,0.9,0.9c0,1.6-3,5.7-5.6,10c-1.8,3-2.7,5.7-2.7,7.8
			c0,3.5,2.6,6,7.9,5.6c-0.7-0.3-1-0.9-1-1.8c0.1-3.4,4.8-10.3,8.2-14.9c4.4-5.7,6.6-8.2,8.1-8.2c0.3,0,0.6,0.1,0.6,0.6
			c0,2.2-3.7,7.4-4.9,7.4c0.9,0.7,2.2,1.2,4.2,1.2c3.5,0,7.8-3.1,7.8-7.8C280.7,275.6,278.8,274.2,275.9,274.2z"/>
		<path class="st1" d="M296,271.3c2.9,0,5.3-2.3,5.6-5c0.3-2.4-1.6-4.8-4.1-4.8c-2.6,0-5.2,2.1-5.6,5
			C291.5,268.8,293.3,271.3,296,271.3z"/>
		<path class="st1" d="M293.8,296c-2.4,2.7-4.4,3.9-5.7,3.9c-1.1,0-1.5-0.8-1.5-1.5c0-1.9,1.7-4.7,5.1-9.6c2.8-4.1,5-7.8,5-10.6
			c0-2.3-1.8-4-5-4c-4.8,0-8.6,3.7-9.6,7.1c1.7-2.3,3.4-4,4.8-4c0.6,0,0.9,0.4,0.9,0.9c0,1.4-1.2,3.5-4,7.3c-3.4,4.6-5,7.7-5,10.8
			c0,3.2,2,5.5,6.1,5.5c4,0,6.8-2.2,9.4-5.1c2.1-2.4,3.9-5.4,4.5-7.8C297.3,291.4,295.9,293.5,293.8,296z"/>
		<path class="st1" d="M345.1,296c-2.4,2.7-4.4,3.9-5.7,3.9c-1.1,0-1.5-0.8-1.5-1.5c0-1.9,1.7-4.7,5.1-9.6c2.8-4.1,4.5-7.1,4.5-9.7
			c0-3.2-2.5-4.8-5.5-4.8c-4.9,0-8.8,4.8-12.4,9.5c-0.1,0.2-0.4,0.1-0.2-0.2c0.9-1.2,1.9-3.3,1.9-4.8c0-3.2-2.3-4.5-5.3-4.5
			c-4.9,0-8.8,4.8-12.4,9.5c-0.2,0.2-0.4,0.1-0.2-0.2c1.2-1.7,2.2-3.8,2.2-5.4c0-2.3-1.6-4-4.8-4c-4.8,0-8.6,3.7-9.6,7.1
			c1.7-2.3,3.4-4,4.8-4c0.6,0,0.9,0.4,0.9,0.9c0,1.6-3,5.7-5.6,10c-1.8,3-2.7,5.7-2.7,7.8c0,3.5,2.6,5.5,5.8,5.6
			c-0.6-0.4,0.6-3.1,2.4-6.3c1.9-3.4,4.6-7.4,6.8-10.4c4.5-5.9,7.7-8.5,9.3-8.5c0.6,0,0.8,0.4,0.8,0.8c0,1.8-3.5,6.5-6.4,10.8
			c-1.9,2.9-2.8,5.8-2.8,8c0,3.5,2.6,5.5,5.8,5.6c-0.6-0.4,0.6-3.1,2.4-6.3c1.9-3.4,4.6-7.4,6.8-10.4c4.5-5.9,7.7-8.5,9.3-8.5
			c0.6,0,0.8,0.4,0.8,0.8c0,1.4-2.2,4.7-4.9,8.5c-3.2,4.5-4.8,7.5-4.8,10.4c0,3.2,1.9,5.5,6.1,5.5c4,0,6.8-2.2,9.4-5.1
			c2.1-2.4,3.9-5.4,4.5-7.8C348.6,291.4,347.3,293.5,345.1,296z"/>
		<path class="st1" d="M367.6,296.5c-2.4,2.6-5.4,4-6.9,4c-1.7,0-2.7-0.9-2.7-2.8c0-2.4,2-7.8,5.5-12.9c0.5,0.8,1.9,1.4,3.3,1.4
			c5.4,0,10.7-2.9,10.7-7.6c0-2.8-2.4-4.6-6-4.6c-4.4,0-10.9,1.9-16.1,7.4c-3.7,3.9-5.9,9.1-5.9,12.8c0,4.8,3,7.4,8.7,7.4
			c4,0,7.7-1.6,10.4-4.2c2.5-2.4,3.1-4.9,3.1-6.8c0-0.7-0.2-1.4-0.5-1.9C371.8,291.3,369.2,294.9,367.6,296.5z M366.4,280.6
			c2-2.7,4.1-5.8,5.7-5.8c0.5,0,0.7,0.3,0.7,1.1c0,3.1-4.3,9.6-7.6,9.4c-0.6-0.1-1.2-0.4-1.4-0.9
			C364.5,283.3,365.7,281.6,366.4,280.6z"/>
		<path class="st1" d="M407.1,296c-2.4,2.7-4.2,3.9-5.5,3.9c-1.1,0-1.5-0.7-1.5-1.6c0-2.2,2.7-6.1,5.5-10.7c2.2-3.5,3.8-6.6,3.8-9.1
			c0-2.5-1.6-4.2-4.9-4.2c-2.2,0-4.5,1.1-6.3,3.5c0.6-0.5,1.1-0.6,1.5-0.6c0.6,0,0.9,0.3,0.9,0.9c0,0.9-0.5,1.9-1,2.8
			c-2,3.5-4.5,7.2-6.1,9.5c-3.4,4.8-8,9.1-9.7,9.1c-0.6,0-0.9-0.3-0.9-0.9c0-1.4,2.3-4.8,5.2-8.9c3.1-4.4,5.3-8.6,5.3-11.5
			c0-2.3-1.6-4-4.8-4c-4.8,0-8.6,3.7-9.6,7.1c1.7-2.3,3.4-4,4.8-4c0.6,0,0.9,0.4,0.9,0.9c0,1.6-2.9,5.8-5.7,10
			c-2.9,4.2-3.8,6.6-3.8,8.6c0,2.7,2,4.7,5.2,4.7c5.3,0,9.1-4.5,12.7-9.3c0.2-0.2,0.3-0.1,0.1,0.1c-0.9,1.4-1.3,3-1.3,4.2
			c0,3,1.9,5.2,6.1,5.2c4.2,0,6.8-2,9.5-5.1c2.2-2.4,3.9-5.4,4.5-7.8C410.6,291.4,409.2,293.5,407.1,296z"/>
		<path class="st1" d="M438,274.2c-4.1,0-7.5,4.6-11.1,9.6c-0.2,0.3-0.5,0.1-0.2-0.2c1.2-1.7,2.2-3.8,2.2-5.4c0-2.3-1.6-4-4.8-4
			c-4.8,0-8.6,3.7-9.6,7.1c1.7-2.3,3.4-4,4.8-4c0.6,0,0.9,0.4,0.9,0.9c0,1.6-3,5.7-5.6,10c-1.8,3-2.7,5.7-2.7,7.8
			c0,3.5,2.6,6,7.9,5.6c-0.7-0.3-1-0.9-1-1.8c0.1-3.4,4.8-10.3,8.2-14.9c4.4-5.7,6.6-8.2,8.1-8.2c0.3,0,0.6,0.1,0.6,0.6
			c0,2.2-3.7,7.4-4.9,7.4c0.9,0.7,2.2,1.2,4.2,1.2c3.5,0,7.8-3.1,7.8-7.8C442.8,275.6,440.9,274.2,438,274.2z"/>
	</g>
	<g>
		<path class="st2" d="M127.9,335.6c-0.5,3.5-2.8,5.4-6.1,5.4c-3.7,0-6.6-2.3-6.6-7.2c0-4.9,3-7.2,6.6-7.2c3.3,0,5.7,1.9,6.1,5.4
			h-1.1c-0.4-3-2.4-4.5-5.1-4.5c-3.2,0-5.6,2-5.6,6.3c0,4.3,2.4,6.3,5.6,6.3c2.7,0,4.6-1.5,5.1-4.5H127.9z"/>
		<path class="st2" d="M134.6,333.2h9.6v-6.4h1v14h-1v-6.7h-9.6v6.7h-1v-14h1V333.2z"/>
		<path class="st2" d="M151.5,326.7h9v0.9h-8v5.5h7.2v0.9h-7.2v5.8h8.2v0.9h-9.2V326.7z"/>
		<path class="st2" d="M174.9,326.7v0.8l-6.9,10c-0.6,0.8-1.1,1.6-1.7,2.3c0.8,0,1.6,0,2.4,0h6.4v0.9h-10v-0.8l6.9-10
			c0.6-0.8,1.1-1.6,1.7-2.3c-0.8,0-1.6,0-2.4,0h-6v-0.9H174.9z"/>
		<path class="st2" d="M187.3,326.7h1.4l5.8,7.6c1.2,1.5,2.4,3.1,3.6,4.8c0-1.7-0.1-3.5-0.1-5.2v-7.2h1v14h-0.9l-7.1-9.5
			c-1-1.3-1.8-2.5-2.7-3.7c0,1.4,0,2.8,0,4.2v8.9h-1V326.7z"/>
		<path class="st2" d="M214.2,337h-7.6l-1.5,3.8H204l5.9-14h1.1l5.9,14h-1.1L214.2,337z M207,336.1h6.8l-0.8-1.8
			c-1-2.5-1.9-4.6-2.7-6.7c-0.8,2.1-1.7,4.2-2.7,6.7L207,336.1z"/>
		<path class="st2" d="M231.7,326.7v0.9h-5.1v13.1h-1v-13.1h-5.1v-0.9H231.7z"/>
		<path class="st2" d="M253,338.7l2.1,2.1h-1.3l-1.4-1.4c-1.1,1-2.5,1.6-4.3,1.6c-3.1,0-5.2-1.5-5.2-4c0-2.1,1.5-3,3.2-3.7
			c-1.2-1.3-1.9-2.1-1.9-3.5c0-2,1.7-3.2,3.8-3.2s3.8,1.2,3.8,3.1c0,2.2-2.1,2.9-4.2,3.7c0.2,0.1,0.3,0.3,0.5,0.5l4.3,4.2
			c0.6-0.9,1-2.2,1-3.7v-1.2h1v1.3C254.4,336.1,253.9,337.6,253,338.7z M248.1,340.1c1.5,0,2.8-0.5,3.7-1.3l-4.7-4.6
			c-0.1-0.1-0.3-0.3-0.4-0.4c-1.5,0.7-2.8,1.5-2.8,3.2C243.9,338.8,245.5,340.1,248.1,340.1z M247,332.8c1.9-0.7,3.7-1.3,3.7-3.2
			c0-1.4-1.2-2.3-2.8-2.3c-1.6,0-2.8,0.9-2.8,2.3C245.2,330.8,245.8,331.6,247,332.8z"/>
		<path class="st2" d="M277.4,326.7v0.9h-5.1v13.1h-1v-13.1h-5.1v-0.9H277.4z"/>
		<path class="st2" d="M283.4,333.2h9.6v-6.4h1v14h-1v-6.7h-9.6v6.7h-1v-14h1V333.2z"/>
		<path class="st2" d="M300.4,326.7h9v0.9h-8v5.5h7.2v0.9h-7.2v5.8h8.2v0.9h-9.2V326.7z M304.5,325.4l1.4-2.7h1.3l-1.8,2.7H304.5z"
			/>
		<path class="st2" d="M314.6,333.7c0-4.9,3-7.2,6.6-7.2c3.7,0,6.6,2.3,6.6,7.2c0,4.9-3,7.2-6.6,7.2
			C317.6,341,314.6,338.7,314.6,333.7z M326.8,333.7c0-4.3-2.4-6.3-5.6-6.3s-5.6,2-5.6,6.3c0,4.3,2.4,6.3,5.6,6.3
			S326.8,338,326.8,333.7z"/>
	</g>
	<g>
		<line class="st2" x1="440.3" y1="340.6" x2="340.4" y2="340.6"/>
		<rect x="340.4" y="340" class="st2" width="99.9" height="1.3"/>
	</g>
</g>
</svg>
