<?xml version="1.0" standalone="no"?>
<!DOCTYPE svg PUBLIC "-//W3C//DTD SVG 20010904//EN"
 "http://www.w3.org/TR/2001/REC-SVG-20010904/DTD/svg10.dtd">
<svg version="1.0" xmlns="http://www.w3.org/2000/svg"
 width="512.000000pt" height="512.000000pt" viewBox="0 0 512.000000 512.000000"
 preserveAspectRatio="xMidYMid meet">
<metadata>
Created by potrace 1.14, written by Peter Selinger 2001-2017
</metadata>
<g transform="translate(0.000000,512.000000) scale(0.100000,-0.100000)"
fill="#000000" stroke="none">
<path d="M2005 4659 c40 -179 151 -384 278 -511 61 -60 173 -143 230 -169 15
-7 26 -16 25 -20 -2 -4 -41 -37 -88 -75 -80 -64 -232 -211 -381 -369 -62 -67
-73 -74 -225 -142 -257 -116 -337 -154 -333 -157 2 -2 50 3 107 10 100 13 108
16 253 95 83 45 152 80 154 78 1 -2 -1 -29 -6 -58 -14 -87 3 -83 42 9 34 84
105 187 167 248 110 106 308 265 359 289 106 49 246 53 428 11 50 -11 91 -21
92 -22 9 -7 -41 -126 -52 -126 -20 0 -47 31 -41 46 3 8 9 20 12 28 7 19 -30
30 -56 16 -27 -15 -26 -61 3 -87 71 -66 208 -123 294 -123 54 0 103 24 103 50
0 24 -18 36 -33 21 -13 -13 -80 -15 -75 -3 18 46 66 122 77 122 33 0 161 -79
217 -135 98 -97 150 -226 161 -400 6 -101 -4 -182 -48 -367 -29 -127 -29 -127
-19 -290 18 -279 29 -387 62 -578 28 -159 32 -210 33 -360 0 -153 -3 -185 -23
-253 -43 -151 -119 -273 -257 -416 -234 -243 -621 -460 -946 -531 -126 -28
-243 -4 -374 78 -46 28 -47 31 -25 36 86 17 87 19 12 27 -102 10 -188 54 -273
138 -36 36 -77 82 -91 101 -14 19 -28 33 -31 30 -3 -3 6 -33 20 -68 14 -35 24
-65 21 -67 -7 -7 -209 32 -263 50 -27 9 -71 28 -97 43 -40 21 -53 23 -80 16
l-33 -10 50 -37 c87 -63 148 -83 400 -128 81 -14 161 -52 332 -160 79 -50 160
-97 178 -105 83 -34 279 -8 490 66 198 70 508 238 666 362 219 171 359 388
399 621 18 100 -8 358 -60 602 -31 146 -43 295 -44 550 -1 240 -1 240 33 380
42 176 52 328 27 425 -50 194 -157 317 -349 396 -78 33 -87 39 -81 58 8 25 50
136 132 347 68 174 89 243 98 335 6 56 5 63 -14 73 -30 16 -69 14 -180 -10
-80 -16 -102 -25 -124 -49 -26 -29 -27 -30 -21 -139 6 -105 -4 -211 -28 -305
l-10 -38 -29 81 c-72 210 -202 328 -444 407 -114 37 -253 58 -491 74 -88 6
-177 14 -199 17 l-38 6 7 -34z m255 -49 c118 0 378 -45 466 -80 197 -79 335
-213 411 -400 43 -108 27 -113 -54 -16 -159 188 -370 321 -589 372 -62 14
-115 13 -67 -1 136 -42 331 -143 457 -237 88 -66 266 -247 266 -270 0 -10 -11
-23 -23 -29 -19 -9 -46 -4 -138 26 -138 44 -247 54 -329 31 l-55 -15 -73 35
c-133 65 -285 229 -372 404 -25 49 -80 191 -80 205 0 1 23 -4 52 -11 29 -8 86
-14 128 -14z m1228 -22 c7 -7 12 -39 12 -74 0 -107 -38 -239 -128 -446 -28
-64 -61 -149 -73 -190 -34 -115 -64 -168 -94 -168 -33 0 -95 26 -95 39 0 6 27
69 60 140 68 147 103 266 125 426 11 79 13 124 6 160 -11 59 3 91 47 101 15 3
41 10 57 14 44 12 70 11 83 -2z"/>
</g>
</svg>
