<svg xmlns="http://www.w3.org/2000/svg" viewBox="0 0 541.88 317.93"  xmlns:v="https://vecta.io/nano"><g fill="#f9b443"><path d="M141.14 193.81a.36.36 0 0 0 .26.13h.13a.34.34 0 0 0 .25-.13v2.56l-.51.77-.51.64a1.74 1.74 0 0 1-1.28.51 5.16 5.16 0 0 1-1.54-.51l-1.53-.77a8.78 8.78 0 0 0-2.95-1.28h-.38l-1-.26h-.2l-1.79-.38a2 2 0 0 1-1.41.64 2.31 2.31 0 0 1-.77-.13l-1.15-.38-1.15-.39a.57.57 0 0 0-.39-.13 1.2 1.2 0 0 0-.51.13l-.38.13h-.65c-.34 0-.59-.26-.76-.77l-.77.77a2.74 2.74 0 0 1-1.28-.89l-2.44.12.13 3a34.46 34.46 0 0 1-.38 5.25l1.28 14 1.15 14.09q1.55 16.14 3.84 28.82l1.41 5.25 1.54 5.51q1.92 6.92 3.33 11 4.23 12.55 9.86 17.42l.39 1.92a3.78 3.78 0 0 1-1.93.77l-1 .13-1.17.41a4.29 4.29 0 0 0-1-1.15l-.77-.39-.64-.25c-1.19-.6-1.79-1.28-1.79-2.05q-5.9-3.46-10.25-11.91a90.42 90.42 0 0 1-6.4-17.42c.6.08 1.15.77 1.67 2h.18a.34.34 0 0 0 .39-.39v-.77c.08-.17.3-.25.64-.25a2.26 2.26 0 0 1 .25 1 1.35 1.35 0 0 1-.25.77l-.64.39-.51.38a40.77 40.77 0 0 1 1.79 4l.89 2.31.9 2.43q2.43 6.53 4.36 9l-1.28-3.46-1.41-3.59a68.13 68.13 0 0 1-2.31-7.43.57.57 0 0 0-.13.39v.39l.13.51v.52l-.13-.26-.25-.39-.52-.89a2.26 2.26 0 0 1-.12-.64.6.6 0 0 1 .51-.64v-.13c0-.34-.21-.6-.64-.77l-.51-.13a.8.8 0 0 1-.39-.38c0-.43.17-.69.51-.77l.39.13.38.13a5.06 5.06 0 0 1-.51-1.28l-.38-1.16c-.35-.85-.77-1.28-1.28-1.28h-.13a1.16 1.16 0 0 0 .64-1v-.26a2 2 0 0 0-.26-.77 3 3 0 0 1-.38-1.15.4.4 0 0 1 .25-.39 1.31 1.31 0 0 0-.51-.52l-.51-.51a1.73 1.73 0 0 1-.77-1.54l.13-.12a.37.37 0 0 1 .25.12h.39c.08 0 .13 0 .13-.12l-.13-.26a.23.23 0 0 0-.26-.26 2.33 2.33 0 0 0-.64.13 4.49 4.49 0 0 0-.13-1.15l-.25-.64a4.2 4.2 0 0 1-.39-1.67c.34 0 .52.22.52.64v.77a1.59 1.59 0 0 0 .38.77 2.86 2.86 0 0 0 .26-1.28 6.32 6.32 0 0 0-.13-1.15 15.75 15.75 0 0 0-1-2.56c-.17 0-.25.17-.25.51l.13.38.12.51a6.67 6.67 0 0 1-1.41-3.32h.07c.52 0 .81.42.9 1.28a1.27 1.27 0 0 0 .26-.9 6.32 6.32 0 0 0-.16-1.11l-.26-1.29v-1.31c0-.17 0-.25-.13-.25s-.21.17-.38.51-.3.39-.39.39h-.12c-.09 0-.18-.13-.26-.39a15 15 0 0 0 .51-4.1 29.61 29.61 0 0 0-.51-5.25l-.38-2.43-.52-2.44-.51-5.12.77-.13a1.35 1.35 0 0 1 .64.13v-.13c0-.51-.38-.77-1.15-.77h-.64a1.49 1.49 0 0 0 .51-1.28 7.56 7.56 0 0 0-.13-1.28l-.25-.77-.13-.64v-.51a1.75 1.75 0 0 1 .13-.77.53.53 0 0 0-.52-.25h-.64a.57.57 0 0 1-.64-.64.73.73 0 0 0 .51.25.92.92 0 0 0 .39-.13l.38-.25.52-.13a59.36 59.36 0 0 1-1-10.37v-2.82l-.13-3.08-.38-6a1.38 1.38 0 0 1 .38-.25h.52a1 1 0 0 0 .76-.9c-.08-.26-.21-.38-.38-.38s-.17.08-.26.25l-.12.13-.13.26h-.64q-.13-3.08-.26-6.66a9.68 9.68 0 0 0-2.31.25v3.46l-.25 7.82c.6 2 .94 5.63 1 10.75l.13 3.08.13 2.94a32 32 0 0 0 .9 5.64 129.56 129.56 0 0 0 1.79 14.09l1.28 7.68 1.15 7.69a23.23 23.23 0 0 0 .9 2.43l.38 1.41.52 1.28a10 10 0 0 1 .38 2.56 3.64 3.64 0 0 1-.51 2 279.62 279.62 0 0 1-8.2-52.64q-.65-9.6-.9-20l-1.15.51a.75.75 0 0 0-.51-.51l-.64-.26c-.6-.08-.94-.34-1-.77a.82.82 0 0 1-.38.52l-.26.13-.38.38a11.86 11.86 0 0 0-2.56-.26h-1l-1.92.13-1.79.26a27.44 27.44 0 0 1-4.74.51 9.16 9.16 0 0 1-2.43-.26 1.09 1.09 0 0 1 .89-.51 1.15 1.15 0 0 1 .39.13h.64a1.08 1.08 0 0 0 .64-.38h.13v-.13l-.13.13a1.11 1.11 0 0 0-.9-.52l-.9.13h-.55a1.35 1.35 0 0 1-1.15-.51 1.54 1.54 0 0 0 1.15-.9l.26-.64c.17-.25.34-.38.51-.38v.13l-.26.25-.12.26a.4.4 0 0 0 .25.38c.17.26.34.39.52.39a.76.76 0 0 0 .51-.26l.25-.39.26-.25a3.12 3.12 0 0 0 1.79 2.18 1.4 1.4 0 0 0 .77.25 1.56 1.56 0 0 0 1.41-1h-.26a2 2 0 0 0-.64.13l-.51.25-.38.13a6.41 6.41 0 0 0-.26-.64l-.38-.26c-.18-.08-.26-.17-.26-.25l.13-.13a6.83 6.83 0 0 1 1.41-.13h1.28a3 3 0 0 0 2.43-1.66l.9 1.79a.55.55 0 0 0 .13-.39v-.76a.57.57 0 0 1 .12-.39 1.08 1.08 0 0 0 .52.13c.34 0 .55-.21.64-.64a1.7 1.7 0 0 1 .77 1.28 1.26 1.26 0 0 0 .51-.64l.13-.26.25-.25c.09 0 .17.08.26.25l.25.65a.82.82 0 0 0 .77.51h.13a3.92 3.92 0 0 1-.38-1.16c0-.17 0-.25.12-.25a2.35 2.35 0 0 0 .77 1l.64.64a5.13 5.13 0 0 0 1.8-.76l.77-.39.76-.51v-1.15h-5.76l-6 .25a.92.92 0 0 1-.9.51h-.25a1.58 1.58 0 0 1-1.15-.51 17.9 17.9 0 0 1-3.85.9l-3.71.25a22.27 22.27 0 0 0-7.82 1.41.4.4 0 0 0-.38-.25h-.38a1.68 1.68 0 0 1-1-.64l-.25.76-.26.65a.76.76 0 0 1-.64.38h-.26l.64-.77a1.91 1.91 0 0 0-1.41-.51 2 2 0 0 0-.64.13l-.89.25-.9.39q.26.51.51.51h.13l.39-.13a.54.54 0 0 1 .38.13l.13.13h.25c.09 0 .17.08.26.25h-.26l-.25-.12a2.52 2.52 0 0 0 2.3 1.28 3 3 0 0 0 .9-.13l.9-.26.89-.12a2.91 2.91 0 0 1 1.54.38l-.38.38.12.39v.38l.52-.51v-.13a.51.51 0 0 0-.26-.51c.17-.08.26-.3.26-.64l.12-.39c0-.08.09-.17.26-.25l.51 1.15a9.58 9.58 0 0 1 4.74-1 21.2 21.2 0 0 1 2.18.12 2.91 2.91 0 0 1-1.28.52l-1.15.13a2.39 2.39 0 0 0-1.93.63 3.76 3.76 0 0 0 1.16.13l1.15-.13h.38a1.49 1.49 0 0 1 1.41.65l-3.2.25-3.46.51a43.23 43.23 0 0 1-6.14.64h.12l-.25.13-.52.13h-.38a2.31 2.31 0 0 0-.77.13l-1.28.51-.51.13-2.69.64-.51-.9a.52.52 0 0 0-.26.52l.13.25v.26h-.26l-.13.13a.49.49 0 0 0-.38-.13h-.15l-.51.13a1 1 0 0 1-.38.12.76.76 0 0 1-.65-.38q-4.73 1.53-10.63 3l-3.84 13.7a177.31 177.31 0 0 1-4.1 24.85 52 52 0 0 1-.38 6l-.39 2.82-.51 2.81a49.11 49.11 0 0 0-.77 8.2 26.49 26.49 0 0 0 .26 3.72 2.27 2.27 0 0 1-.26 1l-.51 1a3.15 3.15 0 0 0-.38 1.41 3.06 3.06 0 0 0 .12.9 6 6 0 0 1-3.71 1.15h-1l-1-.12h-2.43a9.66 9.66 0 0 1-3.59-3.34 4.75 4.75 0 0 1-.77-2.43 3.74 3.74 0 0 1 1-2.56 32.33 32.33 0 0 1-.39-5.12c0-.86.05-1.76.13-2.69q.25-2.7 1-7.18l.76-3.71.52-3.59a46.23 46.23 0 0 0 .77-7.55 2.76 2.76 0 0 0 .89-1.29l.26-1.53a5.15 5.15 0 0 1 1.54-3 4.11 4.11 0 0 0-.26-1.53l-.39-.52-.25-.64.38.13.39.13q2.3-9.48 4.74-18.44l-6.79 1.53a53.74 53.74 0 0 1-15.12 5.64 12 12 0 0 1-3.45 1.79l-1.67.64-1.79.64a21.88 21.88 0 0 0-6.92 3.46.49.49 0 0 1-.38.13h-.26l-.64-.13a1.11 1.11 0 0 0-.38-.13 1.18 1.18 0 0 0-1 .64 6.69 6.69 0 0 1-1.79-3.07l-.26-1-.38-1a11.66 11.66 0 0 0-.64-2.18 10.1 10.1 0 0 1 .89-4.48c.52-1.2 1.16-1.79 1.93-1.79a2 2 0 0 1 .89.25 24.46 24.46 0 0 1 8.71-4.22l2.18-.65 2.18-.76a25.83 25.83 0 0 0 4.35-2 1.85 1.85 0 0 0 1 .25l.89-.25a2.31 2.31 0 0 1 .77-.13 2.11 2.11 0 0 1 1.28.38 1.64 1.64 0 0 0 .74-.77l.13-.51.25-.51.13.38v.52l4.49-1.16 4.61-1.15 9.47-2.18q3.46-12 6.92-22.16l.26-.51h.13v-.25a72.33 72.33 0 0 0 3.2-7.3l.38-.9v-.13l1.15-2.69a27.43 27.43 0 0 0 .77-2.69 13.21 13.21 0 0 0 1.16-2.43l.64-1.92.76-1.92 1.41-4.1a29 29 0 0 0 .77-3.2 65 65 0 0 0 5.37-11.19l1.15-2.94 1.16-2.82a37.79 37.79 0 0 1 2.81-5.38 5 5 0 0 1 .52-2.05l.38-1a3.23 3.23 0 0 0 .26-1.16 18.51 18.51 0 0 0 2.3-3.58l1-1.92.89-1.93a29.2 29.2 0 0 1 4-7 18.89 18.89 0 0 1 2.31-5.89l1.79-2.82 1.67-2.82a78 78 0 0 1 4-7.56l2.05-3.71c.77-1.45 1.41-2.77 1.92-4l.51-.26.39-.38a2 2 0 0 1 1-.77c-.26-.17-.38-.72-.38-1.66q1.27-.64 3.33-4.23l.76-1.28.9-1.28a10.13 10.13 0 0 1 2.05-2.18v-1.15l.26-.39v-.38q2.43-3.33 6-7.81l2.81-3.59 2.95-3.59h.51a3.88 3.88 0 0 1 2.05.64l.39.39.64.38a2.7 2.7 0 0 0 1.28.26l.13.51.12.39a2.92 2.92 0 0 1 .26 1q.51 0 .51-.9l2.18 1.54.26 1.28V52a14.88 14.88 0 0 1 3.88 3.76 103.69 103.69 0 0 1 .13 5.12 132.9 132.9 0 0 1-.9 14.6l-.51 4.74-.51 4.61q-.78 5.51-1 9.09a2 2 0 0 0-.64.77l-.13 1c-.17.85-.47 1.37-.89 1.53a.37.37 0 0 0 .12.26l.26.13c.17.08.26.3.26.64v.38l-1 8.33-.51 3.84-.51 3.71a113.44 113.44 0 0 0-1.16 14.35.81.81 0 0 0-.51.51l-.13.52a.81.81 0 0 1-.77.89 3.84 3.84 0 0 1 .64 2.05v.39a1.79 1.79 0 0 1-1.4 1.66 1.68 1.68 0 0 0 .64.77l.38.38a.53.53 0 0 1 .26.52 91.57 91.57 0 0 0-1.28 12.42 9.27 9.27 0 0 0 .12 1.66 13.93 13.93 0 0 0-.64 3.34l-.38.12a3.06 3.06 0 0 1 .38.77l-.12.77v1a22.77 22.77 0 0 0 .25 3.45h-.13l.13 1.92a16.93 16.93 0 0 1 .13 1.93 4.12 4.12 0 0 1-1.15 2.94v.51l.38.13q.51 0 .51.39a2.45 2.45 0 0 0-.64 1.79v1l.13 1.16a5.62 5.62 0 0 1 .13 1.15 3.16 3.16 0 0 1-1 2.69 4.5 4.5 0 0 1 1 2.56 3.24 3.24 0 0 1-1.92 2.69 1.91 1.91 0 0 0 .64.77 1.39 1.39 0 0 0 .77.26l-.13 2.43 3.46.13a21.3 21.3 0 0 0 3.46-.26l.25.39.39.12a1.27 1.27 0 0 1 .76.51c0-.25.22-.59.65-1a52.28 52.28 0 0 1 8.19 1.41l2.95.77 2.94.77a5.69 5.69 0 0 1 .52 2.56v1.28a1.44 1.44 0 0 1-.13 1.92l-.13.38zm-105.66 5.63a.55.55 0 0 0 .12.39h.39c.08 0 .17-.09.25-.26a1.19 1.19 0 0 0-.12-.51l-.13.26a.4.4 0 0 1-.26-.13zm6.27-.25l.26-.51a.34.34 0 0 1 .25-.13c.18 0 .39.17.64.51v-.51l.13-.26v-.25a.53.53 0 0 0-.13-.39l-2 .39c-.77.17-1.46.3-2.05.38a10.73 10.73 0 0 0 .64 2.05h.12c.18 0 .43-.21.77-.64q-.25-.39-.51-.39l-.38-.12a.63.63 0 0 1 1 0l.51.38a.36.36 0 0 0 .26.13h.13zm-1.87-2.82l-.26.26h-.38a.41.41 0 0 0-.26.38v.26h.26l.26.12a1.11 1.11 0 0 0 .77-.38zm1.41.26c.08.17.17.34.26.51l.12-.13v.13a1.64 1.64 0 0 1 .39-.26 1.55 1.55 0 0 0-.26-.38h-.13l-.12-.13zm1.66-.77l-.25.13c-.17 0-.26.08-.26.25v.26h.64a.42.42 0 0 0 .26-.39 2.59 2.59 0 0 0-.13-.51.23.23 0 0 1-.33.26zm2.69 7.94l.26-.64-.9.13a2.09 2.09 0 0 0-.12.51c0 .34.12.56.38.64zm-.64 6.79h.13a.36.36 0 0 0 .26-.13.41.41 0 0 0 .25-.39 1.22 1.22 0 0 0-.12-.51.41.41 0 0 0-.26-.12h-.13v.38a.38.38 0 0 1-.25.13 2.26 2.26 0 0 0 .07.64zm2.44-6v-.39a1.09 1.09 0 0 1 .51-.89l.51-.39.52-.51-2.05.51-.77 2.18a19.15 19.15 0 0 0 2.17.26 2.12 2.12 0 0 0 .13-.9v-.77a.86.86 0 0 0-.77.39l-.12.25zm-.9-6a.41.41 0 0 0 .26.38.93.93 0 0 1 .13-.38l.25-.51c-.08.34-.21.51-.38.51a.36.36 0 0 1-.26-.13zm.34-.83a.5.5 0 0 0 .38-.13.33.33 0 0 0-.38-.38h-.26c.08 0 .13 0 .13.12a.38.38 0 0 1-.13.26.35.35 0 0 0 .26.13zm.76-2.56l-.25-.26.13.39zm.26.13l.13-.13.13-.26zm.77 2.94a1.72 1.72 0 0 1 .9-.38l-.13-.39c-.17 0-.26-.13-.26-.38v-.26l.26-.13a3.53 3.53 0 0 1 .13-.89l-.64.13-.39 2.3zm.38-7.68c-.25 0-.38.21-.38.64l.51-.13zm1.8 3.46l-.9.12-.77.13-.13.77 1.16-.13a2.51 2.51 0 0 1 1.66-.64l-.13-.25h-.77l-.12.12zm0-10l-.39 1-.51 1a9.12 9.12 0 0 0-.77 3.21 2.65 2.65 0 0 0 .13.89c.17-.51.43-1.19.77-2.05l.38-1.15.51-1.28a8 8 0 0 0 .65-2.69 2.05 2.05 0 0 0-.39-1.28 8.28 8.28 0 0 1-.35 2.37zm2 4.1a2.86 2.86 0 0 1-.39-.51l-.13-.77c-.17-.51-.38-.77-.64-.77h-.12l-.77 2.31-.77 2.56 2.43-.51.39-1a2.86 2.86 0 0 0 .25-1 .41.41 0 0 0-.38.26l-.39.51a.4.4 0 0 1-.38.25c-.09 0-.22-.12-.38-.38.05-.54.47-.84 1.31-.93zm2-19.34c-.51 1.63-1.06 3.63-1.66 6l-1.54 6.28a56.69 56.69 0 0 0 5.89-17l.9-1.79.51-1 .52-1a5 5 0 0 0 .64-1.92c0-.43-.18-.64-.52-.64a52.18 52.18 0 0 0-4.65 11.09zm4-3.33c-1.29 3.33-2.18 5.21-2.69 5.64v.51a8.31 8.31 0 0 1-.39 2.43l-.51 1.41-.64 1.54a16.32 16.32 0 0 0-1.54 5.51v.24a2 2 0 0 0-.89 1.28l-.26.9-.05.82h.26c.34 0 .55-.08.64-.26l.13-.38.25-.26a2.31 2.31 0 0 1 .13.77l-.13.51a2.65 2.65 0 0 0-.13.77 2.26 2.26 0 0 0 .13.64 13 13 0 0 0 2.31-4.74 9 9 0 0 0 .51-2.81 4.76 4.76 0 0 0-.64-2.57q1.79-1.39 4.48-8.32l1-2.82 1.15-3 1.92-5a.36.36 0 0 1-.26.13l-.25-.13a.57.57 0 0 0-.39-.13c-.17 0-.3.13-.38.39l-.26.12c0 .09.13.13.39.13l.64-.13a.43.43 0 0 1 .13.26 2.31 2.31 0 0 1-1.41.64 1.39 1.39 0 0 1-1-.64 46 46 0 0 1-2.22 6.57zm-2.18 29.85a5.8 5.8 0 0 0 2.94.51c.86 0 1.84 0 2.95-.13.85-.08 2.09-.26 3.71-.51l1.8-.26 1.66-.26c-.08 0-.13 0-.13-.12l-.12-.39a.51.51 0 0 0-.39-.51l-.13-.13a1.09 1.09 0 0 0 .13.39l.13.51.13.13c0 .08-.05.12-.13.12a1.81 1.81 0 0 1-1-1.53 2.2 2.2 0 0 1 .12-.64 14.72 14.72 0 0 1-4.1.89 17.32 17.32 0 0 1-2.69.26 2.33 2.33 0 0 1-1.28-.26 3.92 3.92 0 0 1-2.17 1l-1.28.13-1.28.12-.77 2.69a3.45 3.45 0 0 0 1.97-1.99zm-.9-1.67a20.85 20.85 0 0 0 8.71-1.92 1.2 1.2 0 0 1 .51-.13 2.54 2.54 0 0 1 .77.13h1.41c.94 0 1.41-.26 1.41-.77v-.21a10.84 10.84 0 0 0-1.67-.12 37.76 37.76 0 0 0-10.81 2.12zm50.59-9q0-9.48.39-21v-.13a3 3 0 0 0 .13-.89 4.47 4.47 0 0 0-.13-1v-.77l.25-1.79a6.58 6.58 0 0 0 .26-1.8h-.13a19.83 19.83 0 0 0-.38-2.56h.25a16.48 16.48 0 0 1-.12-1.92 14.54 14.54 0 0 1 .12-1.92 7.76 7.76 0 0 1 1.16-3.33 2.65 2.65 0 0 0-.13-.77l-.26-.51a2.52 2.52 0 0 1-.38-1.28l1-10.25 1-10.5q1.28-13.19 1.92-21a1.18 1.18 0 0 0 .77-.77l.13-.39.38-.38a120.59 120.59 0 0 1 1.79-17.68l.77-4.35.51-4.23a61.27 61.27 0 0 0 .64-8.45l.52-2.82.64-2.95-1 1.41v.13a2.81 2.81 0 0 0-.89 1.15l-.64 1.28-.77 1.41-1.54 2.56a11.63 11.63 0 0 1-3.84 3.85v.64a4.6 4.6 0 0 1-1.16 2.94l-1.28 1.28a8.4 8.4 0 0 0-1.15 1.41 4.38 4.38 0 0 0-.64 1.28l-.26.52-.25.51a1.34 1.34 0 0 1-1.28 1h-.13v1.67a3.6 3.6 0 0 1-1.54 1.15q-1.16 2.43-3.07 5.64l-1.54 2.81-1.6 2.73a42.13 42.13 0 0 0-4.87 11.28 1.86 1.86 0 0 0-.9.51l-.64.89c-.51.69-1 1-1.41 1a1.07 1.07 0 0 1 .13.51v1.28a29.74 29.74 0 0 0-2.94 5q-.9 1.92-2.44 5.63a52.2 52.2 0 0 1-5 10.12v-.51a2.77 2.77 0 0 1 .51-1.54l.51-.77a2.25 2.25 0 0 0 .13-.76v-.39a2.08 2.08 0 0 0-1 .9l-.25.64-.26.77c-.43 1.19-1 1.88-1.79 2.05a3.19 3.19 0 0 0 .26-1.16 4.46 4.46 0 0 0-.13-1l-.26-.77v-.9c.09 0 .17.18.26.52v.38h.13a.5.5 0 0 0 .38-.13q.9-.25.9-1v-.26l-.13-.77v-.35h.38a4 4 0 0 0 2.69-1.41 3.42 3.42 0 0 0 1.15-2.43 4 4 0 0 0-.12-.9 2.92 2.92 0 0 0-.64 1.28l-.26.77-.13.77a.49.49 0 0 0-.38-.13.36.36 0 0 0-.26.13.4.4 0 0 0-.38.25c-.17.17-.3.26-.39.26s-.12 0-.12-.13a9 9 0 0 1 .89-2.18l.51-.89.39-.9a7 7 0 0 0 .64-2.95 9.23 9.23 0 0 0-.13-1.4l2.18-.13v-.26c0-.25-.17-.43-.51-.51l-.39-.26c-.17 0-.25-.12-.25-.38a2.32 2.32 0 0 0 .64-1.41 1.2 1.2 0 0 0-.13-.51 2.42 2.42 0 0 1 1.28-.39h.25v-.38a2.58 2.58 0 0 0-.12-.77l-.13-.38-.13-.39a1.2 1.2 0 0 1 .51-.13l.77-.12a1.3 1.3 0 0 0 1.15-.9h-.51q-.9 0-.9-.39v-.12a2.48 2.48 0 0 0 1.29-.39l.51-.25.64-.26a17 17 0 0 0 .64-2.82l.26-1.41.12-1.28a5.63 5.63 0 0 1 3-4.35v-.39a2.31 2.31 0 0 1 1.28-2.43.74.74 0 0 0 .51.26c.17 0 .34-.17.52-.52l.38-.64.38-.51h-.38l-.38-.13a.59.59 0 0 1-.39-.64l.51-.25.39-.39a2.26 2.26 0 0 1 1-.25h.26a4 4 0 0 1-.13-1 4.65 4.65 0 0 1 .38-1.79l.52-1.41a5.26 5.26 0 0 0 .64-1.66 1.37 1.37 0 0 0 1.28.63 2.26 2.26 0 0 0 .64-.12v-.26a.65.65 0 0 0-.64-.64c-.51-.08-.77-.26-.77-.51v-.13a3.17 3.17 0 0 1 1.28-2.31l1-.64 1.16-.51a1.05 1.05 0 0 1-.77-.25.74.74 0 0 1-.13-.52v-.38a5 5 0 0 0 1-1.15l.64-1.41a4.69 4.69 0 0 1 2-2.44 1.53 1.53 0 0 0-.25 1 1.63 1.63 0 0 0 .9-1.15l.25-.9.13-.9c.17-1.7.85-2.69 2-2.94v.64h.26l.12-.13v-.18c0-.17-.12-.3-.38-.38a10.2 10.2 0 0 1 1.28-3.46 5.58 5.58 0 0 1 3.2-2.44 2.2 2.2 0 0 1 .26-2.43 2.74 2.74 0 0 1 2.05-1.54 1.36 1.36 0 0 1-.26-.76 1.24 1.24 0 0 1 .39-.9l.51-.9a4.7 4.7 0 0 0 .38-1h.26c0-.09.08-.17.25-.26h.77a4.39 4.39 0 0 1 1.41-2.56l.9-1a7.22 7.22 0 0 0 .77-1.16l-1.41 1-1.41 1.28a3.79 3.79 0 0 0-1.54 2.56v.13h-.25a156.53 156.53 0 0 0-15.37 23.95c.34 0 .51.26.51.77a1.05 1.05 0 0 0-.77-.26l-1.54 2.36-1.54 2.18a12 12 0 0 0-2.18 5.12h-.77c-1 2.13-2.17 4.44-3.46 6.91l-3.45 6.66q-4.48 8.6-6.66 13.33a1.19 1.19 0 0 1 .12.51 2.62 2.62 0 0 1-.51 1.41 3.74 3.74 0 0 1-1.41 1.41 44.63 44.63 0 0 1-2.05 6l-1.28 2.69-1.15 2.56a57.93 57.93 0 0 0-4.48 12c-.18 0-.35.12-.52.38l-.25.64a2.49 2.49 0 0 1-1.28 1 4.48 4.48 0 0 1 .77 2.17 1 1 0 0 1-.26.77l-.13-1.28a4.93 4.93 0 0 0-1.79 2.69l-.51 1.54-.26 1.41h.25c.34 0 .55-.22.64-.64l.12-.65a.88.88 0 0 1 .39-.51l.25-.12v-.18a1.11 1.11 0 0 1 .52-.13l-.13.26-.39.25c1.37-.42 2.48-1.75 3.34-4l.38-1.41.51-1.28a5.81 5.81 0 0 1 1.41-2l.13.77.38.13.39.13v-.72l-.13-.39c-.09-.17-.17-.25-.26-.25a.73.73 0 0 0-.51.25v-.12a.53.53 0 0 0-.26-.52l-.25-.38v-.51l1.28-.13q.51-4.35 4.23-10.25a5.39 5.39 0 0 1-.39 1.92l-.38.9-.39.9a6.81 6.81 0 0 0-.89 2.81v.26a14.58 14.58 0 0 0 .89-1.41l.77-1.79c.6-1.37 1.2-2.13 1.79-2.31a131.88 131.88 0 0 0-2 4.87l-2.05 5q-2.57 6.4-3.85 9.09l-.12.38-.13.77a8.2 8.2 0 0 0-.77 1.8l-.51 2v.13l-.13.64-1.44 4.34a7.25 7.25 0 0 0-1 .26v.25a.43.43 0 0 0 .26.39l.26.12.13.13-.13.39v.13a4.36 4.36 0 0 0-.52.63l-.12.9c-.18.77-.52 1.2-1 1.28q-2 8-6 21.26l2.31-.38h.38l.13.13v-.13h1.15a29.51 29.51 0 0 0 3.85-.26l.64-.12 1.79-.26a9 9 0 0 0 1.79-.39h.39a11.23 11.23 0 0 0 1.28-.12l1.15-.13 1.28-.26a68.23 68.23 0 0 0 2.56-.51 6.32 6.32 0 0 0 2.05-.77 15 15 0 0 0 2.18.13 35.83 35.83 0 0 0 5.51-.51l3.84-.52a20 20 0 0 1 2.05-.12 10.8 10.8 0 0 1 1.66.12 3 3 0 0 1 1.28-.51h.64l.77-.38a8.44 8.44 0 0 0 2.69.38l2.56-.12c1-.09 1.93-.13 2.69-.13a9.31 9.31 0 0 1 2.44.25zm-43.29-37.4a2.65 2.65 0 0 1 .13.89 5.81 5.81 0 0 1-.26 1.54 15 15 0 0 1-1 2.43 8.52 8.52 0 0 0-1.36 3.64.49.49 0 0 0 .13.38 26.86 26.86 0 0 0 3.33-6.66l1.15-3.46 1.15-3.58a8.37 8.37 0 0 1 1.16-1.8l1.28-2q.89-1.94 2.3-5.77l1-3.07 1.28-2.95 1.41-3.07 1.41-3.08a49.22 49.22 0 0 0 2.81-6.4 31.19 31.19 0 0 1 2.95-5.64l3.33-5.63a6 6 0 0 0 .64-1.67l.64-1.79a28 28 0 0 1 1.41-3.59l2.18-3.33 1-1.66 1.16-1.79 1.66-2.82 1.54-2.82a37.39 37.39 0 0 0 2.43-5.89c.6-.17 1-.81 1.28-1.92-.34 0-.6.21-.77.64l-.25.64-.26.64-.26.13a4.63 4.63 0 0 1-1 1.41l-.51.64-.51.76a.78.78 0 0 0-.13-.51.55.55 0 0 0-.39.13v.38h.52q-21 38.57-30.74 64.69a.76.76 0 0 0-.52.51l-.25.64c-.15.57-.49.87-1 .87zm-2.19 22.72c.08.26.21.39.38.39a2.33 2.33 0 0 0 .13-.64.6.6 0 0 0-.51-.64zm2.17 27v-.22l-.25.13-.13.26a.34.34 0 0 0-.13.25v.26a.6.6 0 0 0 .47-.65zm4-43l-.25.12a.43.43 0 0 0-.26.39v.27c.51-.08.77-.34.77-.76v-.13zm1.54-2.44l-.13-.25v-.26c0-.09 0-.13-.12-.13a.92.92 0 0 0-.39.13v.26l.13.25c0 .17 0 .26.13.26h.13c-.07-.17.01-.26.18-.26zm.77-3.59a1.08 1.08 0 0 0 .13.52H70l-.13-.64a1.19 1.19 0 0 1-.58.12zm37.14 40.48v-1.28a215 215 0 0 0-29.46 2.69.74.74 0 0 0-.51-.26l-.38.13h-.13a.82.82 0 0 1-.77-.51 1.92 1.92 0 0 1-1.15 1 8.42 8.42 0 0 1-1.67.13h-.64c-1.11 0-1.75.21-1.92.64a9 9 0 0 0 2.18.26 12.42 12.42 0 0 0 2.43-.26l2.31-.51 2.18-.64a7 7 0 0 1 1.4.25l1.54.26c.85-.08 2.14-.3 3.84-.64l1.93-.38 1.92-.39 2.17-.13h2.05a20.46 20.46 0 0 0 4.36-.64 10.75 10.75 0 0 1 1.66-.13c.69 0 1.45.05 2.31.13l2.05.26zm-33.3 7.17l-.25-.25a.12.12 0 0 0-.13-.13c-.09 0-.17.08-.26.25.17.35.34.52.51.52a.4.4 0 0 0 .26-.13zm.13-73.52l-.26.52a1.19 1.19 0 0 0-.12.51.4.4 0 0 0 .25.38l.13-.13.26-.25.25-.51a1 1 0 0 0 .13-.39.61.61 0 0 0-.51-.64 2.29 2.29 0 0 1-.2.51zm1.41 73.27v.41h.13l.13.13.12-.13v-.26a.54.54 0 0 0-.12-.38zm2.43-.39l-.25.26.25.51.26-.26zm3.72-76.34l-.13.39a.5.5 0 0 0-.13.38v.26h.13a.38.38 0 0 0 .26-.13 3.84 3.84 0 0 0 .25-.77.93.93 0 0 0 .13-.38.36.36 0 0 0-.13-.26.38.38 0 0 0-.25-.13h-.26a2.33 2.33 0 0 1 .06.64zm1.53.9v-.38a1.29 1.29 0 0 1 .13-.52l.26-.25a.31.31 0 0 0-.063-.603.31.31 0 0 0-.327.213 2.07 2.07 0 0 0-.38.52v.64c.01.25.14.38.31.38zm.13-4.87v.52l.26.51.13.13a.57.57 0 0 0 .12-.39c-.08 0-.17-.08-.25-.25l-.13-.26zm2.95-1.41l.13-.25v-.13a.41.41 0 0 0-.26-.38v.28l-.13.39v.12a.42.42 0 0 0 .26.39zm2.56-9.09l-.77.13v.48l.77-.13zm.77-.26v-1.13l-.77.13v1zm1.41 0v-.38c-.17 0-.26.05-.26.13v.38c-.25.09-.38.17-.38.26v.13l.25.25h.03a.34.34 0 0 0 .13-.25.92.92 0 0 0-.13-.39.36.36 0 0 0 .29-.13zm1 83.39l.39.13h.38c.26 0 .39-.26.39-.77l-.39.12h-.38a.51.51 0 0 0-.44.52zm1.41-88.89h.51l.26-.52a2.2 2.2 0 0 0 .13-.64.39.39 0 0 0-.26-.12h-.13a4.48 4.48 0 0 0-.56 1.28zm3.2 93.62a.23.23 0 0 0 .26.26h.51c.17-.08.26-.17.26-.26v-.12a.57.57 0 0 0-.13-.39c-.09.18-.17.26-.26.26h-.25a.44.44 0 0 0-.44.25zm.64-102.72l-.25.13h-.13a.12.12 0 0 0-.13.13h.39a.37.37 0 0 0 .07-.26zm.52 104h.12l.26.12a.41.41 0 0 0 .26-.12 2 2 0 0 0-.26-.39.54.54 0 0 0-.38-.13.87.87 0 0 0-.39.39v.51c.12-.25.26-.37.34-.37zm1.92-1a1 1 0 0 1 .12-.38l.13-.51-.25.25-.13.38v.39zm1.15-118.73a.54.54 0 0 1 .13.38v.39l-.26.25-.25.26a.52.52 0 0 0-.13.38c0 .18.21.26.64.26l1.53-2.69 1.54-2.69a33 33 0 0 1 3.59-4.87 27.92 27.92 0 0 1 3.71-5.89l2.05-2.82a14.19 14.19 0 0 0 1.8-3.07 5.84 5.84 0 0 0 1.66-1.41 11.8 11.8 0 0 0 1.15-1.79l-.13-1c-.68.77-1.49 1.75-2.43 2.95l-2.56 3.33a59.37 59.37 0 0 1-5.51 6.28 2.53 2.53 0 0 0-.13.76l.39.9q-1.92 1.15-3.72 4.74l-.64 1.41-.77 1.41a11.92 11.92 0 0 1-1.71 2.51zm.64 120l.26-.13.12-.12c.17 0 .26-.13.26-.39l-.26.13h-.12a.51.51 0 0 0-.31.5zm5.64-1.92l.12-.13v-.25l-.25-.52-.26.26zm1.52-18.07q-.37 4.62-.38 10.89a10.79 10.79 0 0 1 2.56-.26v-1.66h.38c.35 0 .52.13.52.38l-.13.64v.77h.38a.71.71 0 0 0 .13-.51v-.64a1.73 1.73 0 0 1 .26-1.15.36.36 0 0 0-.26-.13.88.88 0 0 0-.38.13l-.39.25h-.69l.13-1.92v-2.05c0-1.71 0-3 .13-4a.41.41 0 0 1 .38-.26h.64a.92.92 0 0 0 .39.13c.17 0 .3-.13.38-.38-.08-.34-.21-.51-.38-.51a1.16 1.16 0 0 0-.51.12l-.26.26-.26.13h-.13a.41.41 0 0 1-.38-.26l.51-10.88a.83.83 0 0 0-.64-.26 1.19 1.19 0 0 0-.64.26l-.51.38h-.85zm2.18 13.45l-2.43.13v1.15l1.15-.38 1.28-.26zm-2.43 3.07a3 3 0 0 1 2.05 1l.38-.39v-1.53h-2.43zm.12 2.95h.13v-.13h-.13zm2.82-34.45c-.25 0-.43-.17-.51-.52.34 0 .68-.42 1-1.28q-.39 0-.39-.51h-.26a2.08 2.08 0 0 0-.89.26l-.51.25a1.41 1.41 0 0 1-.64.13v.51l-.13.64c0 .52.17.77.51.77v-.51c0-.26.08-.38.26-.38l.12 1.4-1 .13v.28a.38.38 0 0 0 .13.26 1.19 1.19 0 0 0 .51.12 1.38 1.38 0 0 0 .38-.25.36.36 0 0 0 .13-.26.38.38 0 0 0-.13-.26 1.12 1.12 0 0 0 .77.39c.34 0 .6-.39.77-1.15zm-1-14.35c0-.26.08-.38.25-.38a1 1 0 0 1 .39.12c.42.09.68.22.77.39-.26 0-.43.21-.52.64l-.12.38a1.39 1.39 0 0 1-.39.26c-.17 0-.3-.21-.38-.64l-.26-.38c0-.09-.08-.13-.25-.13a19.7 19.7 0 0 0-.18 2.26l-.13 2.18a21.14 21.14 0 0 1-.26 3.84.73.73 0 0 1 .52-.25c.17 0 .29.17.38.51l.13.51c.08.26.21.39.38.39a.23.23 0 0 1 .26-.26h.13l.38.26a1.48 1.48 0 0 0 .64-.13 3.94 3.94 0 0 0-.51-1.28l-.26-.64-.38-.52 1.15-.12a15.79 15.79 0 0 1-.13-2 19.87 19.87 0 0 1 .13-2.31l.13-2.18.26-2a30.2 30.2 0 0 0 .38-4.22 7.31 7.31 0 0 0-.38-2.69 9.69 9.69 0 0 0 .51-2.31 20.48 20.48 0 0 0 .51-3.07 26.56 26.56 0 0 0 .26-3.46 10.73 10.73 0 0 0-.26-2.56h.26l.12-.51.26-.52a2.78 2.78 0 0 1 .51-.89 2.1 2.1 0 0 1-.51-1.54 3.61 3.61 0 0 1 .13-.9 5.85 5.85 0 0 1 1-2.56 4.35 4.35 0 0 1-.38-1.92v-.51l.13-1.28.38-1.15a7.71 7.71 0 0 0 .26-1.8 2.7 2.7 0 0 0-1-2.3 4.08 4.08 0 0 1-1.15 2.17c.08.17.17.26.26.26h.38c.43 0 .68.09.77.26a2.41 2.41 0 0 0-.77 1.41l-.13.76-.25.9c-.18 1.11-.6 1.66-1.28 1.66a1.2 1.2 0 0 1-.52-.12 1.09 1.09 0 0 1 .39.77l.13.64a1.6 1.6 0 0 0 .51 1.15.51.51 0 0 0-.26.51v.64a1.49 1.49 0 0 1-.89 1.28h.76c.43 0 .64.13.64.39a4 4 0 0 1-.25 1.15l-.39 1.41a4 4 0 0 0-.12.89 1.36 1.36 0 0 0 .51 1.16l-.51.12-.26.26h-.26a1.07 1.07 0 0 1-.51-.13 1.37 1.37 0 0 0 .26.52l.38.51a.34.34 0 0 1 .13.25q0 .39-.9.39a4.48 4.48 0 0 1 .52 2.43 9.24 9.24 0 0 1-.13 1.41l-.26 2.31v2c-.09.17-.17.25-.26.25h-.12l-.26-.13h-.38a4.84 4.84 0 0 1 .12 1.28l.1 1.43c.09 1.11.39 1.8.9 2a2 2 0 0 0-.9.51l-.38.26-.51.39a.75.75 0 0 1 .12.51l.13.77c.01.7.1 1.04.27 1.04zm1.15 32.41c.09.59.21.89.39.89a.36.36 0 0 0 .25-.13c-.15-.51-.36-.76-.7-.76zm.51-10.25l-.12 1.41a22.43 22.43 0 0 0-.26 2.94 10.81 10.81 0 0 0 1-2.81 4 4 0 0 0 .13-1 2.34 2.34 0 0 0-.64-1.92zm.13 30.87l.13-.52v-.25a.34.34 0 0 0-.38-.39.41.41 0 0 1 .12.26.39.39 0 0 1-.12.26l-.13.38a.36.36 0 0 0-.13.26c0 .17.17.25.51.25zm-.19-16.51c-.17 0-.25 0-.25.13v.13h.13l.12.13h.13l.13-.26c0-.13-.09-.13-.26-.13zm.39-18.18l.25.13a.4.4 0 0 0 .26-.13c0-.34-.13-.52-.38-.52a.84.84 0 0 0-.39.52zm.13 57.12h.25l.26-.13c.17-.08.25-.17.25-.25l-.25.13-.26.12c-.17-.02-.25.03-.25.11zm1.19-73.94a1.2 1.2 0 0 1-.51.13l.12.89a1.21 1.21 0 0 1 .52-.13zm-.39-4.23h.39l.51.13-.26-.39v-.38c-.08-.17-.3-.26-.64-.26zm0 40.35a7 7 0 0 0 .13 1.28c.09.34.17.51.26.51a3.16 3.16 0 0 0 .13-1.28 1.61 1.61 0 0 0 .38-.9c0-.34-.21-.59-.64-.77a2.12 2.12 0 0 0-.3 1.18zm.26 12.8a2.06 2.06 0 0 0-.26.77v.13l.39-.38a5.79 5.79 0 0 0 .38-.64c0-.09-.08-.13-.25-.13h-.26zm.64 4.87v-.51l-.9.13a1.07 1.07 0 0 1 .13.51zm0-60.71v-1l.13-1.28v-.52q0-1-.51-1v2a3.9 3.9 0 0 0 .34 1.82zm.38 94.53c0-.52-.21-.77-.64-.77h-.12l.12.51v.51c.09.26.17.39.26.39a.53.53 0 0 0 .38-.13zm.52-48.8l.77-.13-.13-.51v-.52c-.09-.25-.17-.38-.26-.38a.33.33 0 0 0-.25.13 2.65 2.65 0 0 1-.13.77l-.26.25-.13.39zm-.13-81.21a1.07 1.07 0 0 1 .26.77v.77a2.35 2.35 0 0 0 .51 1.54h-.26a.49.49 0 0 1-.13.38l-.25.13a.49.49 0 0 0-.13.38v.26a1.07 1.07 0 0 0 .51.13 1 1 0 0 0 1-.77c-.18 0-.43-.17-.77-.51h.51l-.13-1-.13-.89v-1.54a1.44 1.44 0 0 1-.51.26zm.9 104.65a1.2 1.2 0 0 0-.52.12l-.38.26v.26h.38l.26-.13.13-.13a.53.53 0 0 0 .09-.36zm-.39-148.71l-.38-.38v.84a.22.22 0 0 0 .25.25h.26a2 2 0 0 0-.17-.69zm.64 155.88l-.13-.39a.5.5 0 0 0-.51-.38.88.88 0 0 0-.38.13c.08.68.34 1 .77 1h.12zm-.77-113.35h.34l.13.12h.12c.09 0 .17-.08.26-.25s-.13-.13-.38-.13a.71.71 0 0 0-.51.28zm.9 68.39l-.13-.51c-.08-.26-.21-.38-.38-.38a.39.39 0 0 0-.26.12v.31a1 1 0 0 0 .77 1zm0-32.28c0-.25 0-.38.13-.38l.13.13c-.09-.6-.3-.9-.64-.9l.12.9c.05.19.13.27.22.27zm-.26 17.42c.34 0 .52-.08.52-.25-.39.02-.56.1-.56.27zm.9 72.12l-.13.12h-.25c-.09 0-.13 0-.13.13.31.03.47-.07.47-.23zm-.38 13.7a1.07 1.07 0 0 0 .51-.13 1.2 1.2 0 0 0-.13-.51 1.07 1.07 0 0 0-.51.13 1.2 1.2 0 0 1 .09.53zm.51-58.15l.13-.64a1.19 1.19 0 0 0 .12-.51.5.5 0 0 0-.38-.52 1.44 1.44 0 0 0-.26.52v.88q0 .9.39.9h.13zm.77-40h-.39a.49.49 0 0 0-.38.13.87.87 0 0 0-.26.64.88.88 0 0 0 .26.64.73.73 0 0 0 .51.25h.13a7.88 7.88 0 0 0 .09-1.6zm-1 57.25a2.88 2.88 0 0 0 .77-2.3v-.52a17.85 17.85 0 0 0-.38-3.33h-.26v3a29.36 29.36 0 0 1-.23 3.21zm.13-35.73a.41.41 0 0 1 .26.12l.25.26a.76.76 0 0 0 .64.39l-.13-1.16-.76.13a.23.23 0 0 0-.33.32zm.13 36.63l.25-.13c.17-.08.26-.17.26-.26h-.13l-.25.13c-.18 0-.26 0-.26.13v.13zm.13 1.28l-.13.89v.52a1.05 1.05 0 0 0 .25.77 7.35 7.35 0 0 0 .26-1.67 1.86 1.86 0 0 0-.64-1.54 2.34 2.34 0 0 1 .19 1.09zm-.26 4l.26 3.84.12 4.1a21.63 21.63 0 0 0 1.29 7.43.55.55 0 0 0 .12-.39 1 1 0 0 0-.12-.38l-.26-.51v-.64l-.26-3.59-.25-3.59a23.14 23.14 0 0 0-.97-6.24zm.31-111.7l.13.13h.13l.13-.26c0-.08-.05-.12-.13-.12h-.13c-.17 0-.25 0-.25.12zm.52 68.27a1.19 1.19 0 0 0 .12-.51v-.26a.84.84 0 0 0-.76-.38l.12.38.13.26c.09.38.21.55.39.55zm.25 77.62v-2.82a3.62 3.62 0 0 0-.77-2.31v2.57a11.43 11.43 0 0 0 .77 2.6zm-.51-83.39a1.19 1.19 0 0 1 .51-.12 1.07 1.07 0 0 0-.13-.51h-.51v.25zm0 10.64l.38.25a.92.92 0 0 0 .39.13.52.52 0 0 0 .26-.51h-.26l-.13-.26a.41.41 0 0 0-.38-.25.37.37 0 0 0-.26.12zm.77-36.89l.26-.13h-.13l-.13.13-.26.13a.69.69 0 0 0 .13 1.15l.13-.51zm.13 47.26l-.13-.13a.12.12 0 0 0-.13-.13 1.05 1.05 0 0 0-.38.13v.52a.52.52 0 0 0 .38.12h.13a.41.41 0 0 0 .26-.12.39.39 0 0 0 .12-.26v-.13zm-.39 22.29c0 .08-.08.13-.25.13a2.14 2.14 0 0 1 .12.64h.52a.57.57 0 0 0 .13-.39 1 1 0 0 0 .12-.38c0-.09 0-.13-.12-.13a.43.43 0 0 0-.26-.13.4.4 0 0 0-.26.13zm-.13-58.41h.13l.13.13.39.38c-.09-.76-.31-1.15-.65-1.15zm.82 84.61l.26-.64v-.13a.46.46 0 0 0-.51-.52h-.26a1.62 1.62 0 0 1 .26.52v.77c0 .42.08.64.25.64h.13a1.55 1.55 0 0 1-.13-.64zm-.38 15.88a1.07 1.07 0 0 0-.13.51 2 2 0 0 0 .13.64.88.88 0 0 0 .64.77 1.47 1.47 0 0 1-.26-.51v-.64c-.13-.55-.26-.8-.43-.8zm.26-189.56h-.13v.51l.25.13zm-.13 72.87h.13c.42 0 .68-.42.76-1.28v-.64a1.48 1.48 0 0 0-.25-1 3.44 3.44 0 0 1-.26 1.28l-.25.64a3.2 3.2 0 0 0-.18.97zm0 102.73h.13l.25.13c.09 0 .13-.09.13-.26s-.09-.13-.26-.13-.3.06-.3.23zm0 19a1.14 1.14 0 0 0 .13.52 1.6 1.6 0 0 0 .76.76.75.75 0 0 1-.12-.51l-.13-.64c-.09-.34-.17-.51-.26-.51a.47.47 0 0 0-.38.38zm1.53-10.5v-1.66a15.51 15.51 0 0 0-.12-2c-.18-1.8-.6-3-1.28-3.59a14.77 14.77 0 0 1 .25 1.79l.13 2.18a7.67 7.67 0 0 0 .97 3.2zm-.89-50.08v1.28a18 18 0 0 0 5.63-.64 1.23 1.23 0 0 0 .9.38 2.26 2.26 0 0 0 .64-.12q-.25-.39-.51-.39h-.13l-.38.13h-.54l-.13-.13h-.25a2.93 2.93 0 0 1-.9-.25l-1.02-.26a.38.38 0 0 0 .13-.26v-.12a.4.4 0 0 0-.13-.26c-.09 0-.13 0-.13.13v.13a.93.93 0 0 0 .13.38zm.25 64.3v.38a.82.82 0 0 0 .52.64 1.35 1.35 0 0 1-.13-.64l.13-.51c0-.26-.13-.38-.39-.38a1 1 0 0 0-.38.12zm14.86-59.43a1.61 1.61 0 0 1 .9-.26 2.08 2.08 0 0 1 .89.26l.9.25a2 2 0 0 0 .64.13h.17l-1-.77-1.28-.64a2.35 2.35 0 0 0-1.15-.38 1.13 1.13 0 0 0-.77.38l-.13-.25c-1.71-.52-4.82-.77-9.35-.77h-2.18a.34.34 0 0 1 .13.25 1 1 0 0 1-.38.64v-.25a2.26 2.26 0 0 0-.13-.64l-1.15-.26-1.15-.25v1h.12a1.42 1.42 0 0 1 .77-.26 1.39 1.39 0 0 1 .77.26l.77.64.64.64a2 2 0 0 1-.13-.64.49.49 0 0 1 .39-.51 1.79 1.79 0 0 0 1 .25l.9-.12h.38a2 2 0 0 1 1.67.64h-.13a.73.73 0 0 0-.51.25.74.74 0 0 0 .64.39.93.93 0 0 0 .38-.13l.51-.26.52-.25a2.12 2.12 0 0 1 1-.39 1.42 1.42 0 0 1 1.15.77 6.28 6.28 0 0 1 2.82-.64 1.35 1.35 0 0 0 .64-.13l.13.13c.08 0 .17.09.26.26zm-13.83 46.62c-.09-.51-.26-.77-.51-.77h-.16l.13.77c.08.17.17.26.25.26a.23.23 0 0 1 .24-.34zm.51 6.53l.13-.89v-.26a1 1 0 0 0-.77-1 2.57 2.57 0 0 1 .26 1.16v1.28c0 .42.17.64.51.64a2.12 2.12 0 0 1-.18-1.01zm.38 5.51a.79.79 0 0 0 .64-.9 4 4 0 0 0-.2-.97c-.34-1.12-.73-1.71-1.16-1.8a9.08 9.08 0 0 1 .39 1.67v.9c.11.33.2.68.28 1.02zm1.54 7a9.17 9.17 0 0 1-.38-1.66v-1.54a4 4 0 0 0-.52-2.43.57.57 0 0 0-.12-.39 1.15 1.15 0 0 0-.39-.13l.13 1.67.18 1.61a9.12 9.12 0 0 0 .77 2.81 5.91 5.91 0 0 1 .12 1c.09.17.17.25.26.25s.13-.12.13-.38a2.08 2.08 0 0 0-.23-.85zm1.28 5.64l-.13-.39v-.25c-.08-.17-.17-.26-.25-.26a.4.4 0 0 0-.26.13v.51h.26l.13.13a.34.34 0 0 0 .2.09zm1.41 7.3a.87.87 0 0 0 .26-.64 2.08 2.08 0 0 0-.26-.9c-.08-.25-.21-.38-.38-.38h-.13c-.09 0-.17.08-.26.26h.13c.17 0 .26.25.26.76l.13.64c-.05.13.03.22.2.22zm11.4-81.2a3.52 3.52 0 0 0 1.92.76 2 2 0 0 0 .64.13c.51 0 .77-.17.77-.51-.68-.26-1.49-.51-2.43-.77l-2.69-.64-5.51-.51a5.86 5.86 0 0 1-1.92-.26q-.14.39-.39.39h-.64a.11.11 0 0 0-.12.12 1 1 0 0 0 .12.39l1.93.26h1.92l4.22.51a21.33 21.33 0 0 0 2.13.09zm-6.92 94.26l-.38-1.15-.26-1.15q-.37-1.29-1-1.41a1.72 1.72 0 0 1 .38.9l.26 1.15c.19.9.53 1.45.95 1.62zm4-91.32v-.55l-.13.13-.26.12v.13a1.11 1.11 0 0 0 .13.52zm4-.13q0 .39.12.39h.39l.13-.26a1 1 0 0 0 .12-.38l-.25.12c-.09 0-.13 0-.13-.12a1.38 1.38 0 0 0-.48.21z"/><path d="M215.3 170.37a39.81 39.81 0 0 1 .26 4.35v1.29a15.84 15.84 0 0 1-.13 1.66l-.13.9-.25.77-.64 2.3-.52 2.18-.76 2.18a46.58 46.58 0 0 1-8.07 15.88l-.13.13a22.82 22.82 0 0 1-4.23 7.3l-1.41 1.66-1.41 1.54-2.81 3.33-.13.26a5.16 5.16 0 0 0-1.67 1.15l-.64.77-.64.76a6.76 6.76 0 0 1-3.2 2.44l-.25.13a24.38 24.38 0 0 1-4.1 3.33 21.88 21.88 0 0 1-2.95 1.79 16 16 0 0 1-2.05.77l-1 .26-1 .25a21.17 21.17 0 0 1-2.18.13 10.57 10.57 0 0 1-5.89-1.67 11.82 11.82 0 0 1-4.74-6.27 1.87 1.87 0 0 0-.38-.51l-.77-.77a1.05 1.05 0 0 1-.26-.77l-1.34 3.07-1.53 2.95a22.4 22.4 0 0 0-2.05 5.63l-.26.52-.77 1-.64 1.28a5.19 5.19 0 0 0-.64 2.31v.77a1 1 0 0 1-.25.76 12.52 12.52 0 0 0-1.41 2.44l-1 2.82a16.74 16.74 0 0 1-2.18 5.12v.2a.53.53 0 0 0 .13.38l.26.26v.36a33.89 33.89 0 0 0-2.82 6.4l-1.15 3.34-1.41 3.2a1.07 1.07 0 0 0-.13.51v.38a7.15 7.15 0 0 1-.26 1.8l-.51 1.66a10.14 10.14 0 0 0-.77 3.33v.38l-.38.25-.26.26c-.17.17-.29.25-.38.25a21.22 21.22 0 0 1-1.54 6l-.89 2.94a15.06 15.06 0 0 0-.64 2.95.88.88 0 0 1-.26.64 14.78 14.78 0 0 0-1.41 3.84l-.51 1.92a8.61 8.61 0 0 1-.64 1.92 18.13 18.13 0 0 0-.26 2.95l-.38.25-.39 1.54.52.64a3.45 3.45 0 0 0-1 1.54 29.45 29.45 0 0 0-.38 2.94l.38-.25-.26 1.41-.25-.13-.13.38-.26.39a.52.52 0 0 0-.12.38c0 .17.12.34.38.51l.26-.51.12-.38v.37l-.38 2.18-.26 2.31v.63a8.81 8.81 0 0 0-1.53 4.62l-.39.12v.52c0 .77-.47 1.23-1.41 1.4l-1 3.59a4.08 4.08 0 0 1-2.05.51h-.51l-1.16-.12a2.07 2.07 0 0 0-1.28.38l-.38-.38-.38-.13a4.6 4.6 0 0 1-.65-.51c-.08 0-.16.08-.25.25a.53.53 0 0 0 .13.39l-2.56-.13-.65-.64-.64-.64a2.55 2.55 0 0 1-.38-1.28v-.39a10.71 10.71 0 0 1 .51-1.79l.9-1.67a9.53 9.53 0 0 0 1.41-3.45v-.26l.38-1.28v-.13a1.39 1.39 0 0 0 .26-.77v-.25l.25-2.05.26-2.18a6.63 6.63 0 0 1 1.79-3.72v-.25a2.55 2.55 0 0 1-.38-1.28 3.4 3.4 0 0 1 .26-1.28l.64-1.16.51-1.28a1.55 1.55 0 0 0 .25-.89l-.12-.9a1 1 0 0 1 .76-1l.13-.39-.51-.77a2.92 2.92 0 0 1 .64-1l.13-1.54.13-.38.64-1.8 1.28-5.38a29.15 29.15 0 0 0 1-6.78 14.33 14.33 0 0 0-.12-1.92 5.3 5.3 0 0 0 .64-.52l.38-.77c.26-.59.56-.89.9-.89l-.64-1.28a20.15 20.15 0 0 0 1.28-4l.38-2 .13-2.18q.64-5.38 2-7.81a2.08 2.08 0 0 1 .26.89l-.26.64a1.39 1.39 0 0 0-.26.77 1.25 1.25 0 0 0 .26.64 1.14 1.14 0 0 0 .64-.77l.13-.51v-.51c.08-.94.47-1.5 1.15-1.67a1.21 1.21 0 0 0-.13.52 1.08 1.08 0 0 0 .39.76l.38.52.38.38q1.55-4.23 2.82-7.68a24.67 24.67 0 0 0 .26-3.46v-1.2a.84.84 0 0 0 .38-.39l.13-.38a1.54 1.54 0 0 1 .9-.9l-.64-.51-.52-.39a1.19 1.19 0 0 1-.12-.51 1.52 1.52 0 0 1 .12-.64l.39.9a3.05 3.05 0 0 0 1.15-2.05v-2.13c-.51 0-.77.21-.77.64v.36a.41.41 0 0 1-.25.38v.13l-.13.13a1.46 1.46 0 0 1-.39.25v-.25l.26-.13c-1.19.34-1.92 1.36-2.18 3.07l-.12.9-.13 1a2.71 2.71 0 0 1-.9 1.54l-.13-.51-.51-.13h-.38c.25.51.51.77.76.77a.38.38 0 0 0 .26-.13q0 .26.51.51l.39.13a.76.76 0 0 1 .13.51l-1.16.13a4 4 0 0 1 .13 1 18 18 0 0 1-1.66 6.66 6.9 6.9 0 0 1-.13-1.41l.38-1.41a4.25 4.25 0 0 0 .26-1.28 1.26 1.26 0 0 0-.26-.9 5.79 5.79 0 0 0-.51 1l-.26 1.4c-.25 1-.64 1.63-1.15 1.8l.77-3.72.64-3.71a47.5 47.5 0 0 1 1.54-6.92l-.09.19v-.9a2.49 2.49 0 0 0 .38-1.28v-1.52l.13-.13h-.13v-.52l.39-3.07 1-.25a.51.51 0 0 0-.38-.52h-.26l-.25-.13v-.38a.78.78 0 0 0 .38-.51v-.64a.79.79 0 0 1 .64-.9 172.42 172.42 0 0 1 2.18-17.42l1.41-8.45 1.66-8.45-.13-4.62a66.53 66.53 0 0 1 1.41-13.57l-.13-2.82v-1.54l.26-2 .26-2.05a31 31 0 0 0 .25-3.84 21.48 21.48 0 0 0-.51-4.87 1.36 1.36 0 0 1 .26-.76l.38-.64a1.69 1.69 0 0 0 .38-1 1.38 1.38 0 0 0-.25-.77 7.87 7.87 0 0 1 2.94-.51h.73l1 .13 1 .26q1.28.12 2.31.12a11.17 11.17 0 0 1 3.71 3 3.27 3.27 0 0 1 .77 1.92 2.36 2.36 0 0 1-.77 1.67 23.68 23.68 0 0 1 .51 5.12 44.7 44.7 0 0 1-.38 5.63l-.38 2.56-.26 2.57-.13 3.71v1.67a3.07 3.07 0 0 0-.64 1l-.13 1a2.52 2.52 0 0 1-1.15 2 1.91 1.91 0 0 0 .38 1.15l.39.38.38.39-.38-.13h-.39q-1.14 6.15-2.94 16.52l-1.41 8.71-1.41 8.45 2.82-6.27 2.69-6.41.25-.25a22.54 22.54 0 0 0 1.67-2.82l1.28-3a15.65 15.65 0 0 1 3.2-5.5l.26-.39a85.23 85.23 0 0 1 8.58-14.47 59.7 59.7 0 0 1 11.91-12.43l.51-.51.26-.51a1.87 1.87 0 0 0 .38-.51 1.88 1.88 0 0 1 .9-.64l2.56-1.28 2.82-1.54.9-.51.77-.51.76-.65.52-.25h.38l.51-.13a6.09 6.09 0 0 1 1-.13l1.15-.38a13.5 13.5 0 0 1 2.82-.77 9.24 9.24 0 0 1 1.41-.13 13 13 0 0 1 3.58.51 7.68 7.68 0 0 1 2.31.9 8.2 8.2 0 0 1 2.05 1.41 26.74 26.74 0 0 1 3.46 3.71l.12.39a6.46 6.46 0 0 1 .65 1.79l.38 1.41a24.2 24.2 0 0 1 .48 2.71zm-89.27 142.56a1.19 1.19 0 0 0 .51.12l-.13-.12zm3.07.51v.12l-.89-.25a3.54 3.54 0 0 0-.13.9.68.68 0 0 0 .51.76zm3.59-42.14v-.13l-.13-.13h-.25c-.09 0-.13 0-.13.13l.25.26c-.17 0-.25 0-.25.13l.13.38a.39.39 0 0 0 .12-.26v-.25zm1.28-6.92c0-.17-.13-.25-.38-.25l.38.64zm.64-3.71h.27c.25 0 .38-.17.38-.51a.57.57 0 0 0-.64-.65c.17.18.26.3.26.39a.38.38 0 0 1-.13.26l-.13.25zm4.36-9.23v-.25l-.13-.13a.4.4 0 0 0-.26-.13 1.11 1.11 0 0 0-.38.13c-.34.17-.51.38-.51.64a1.08 1.08 0 0 0 .12.39l.39.51a1.11 1.11 0 0 1 .13.38h-.26a2.73 2.73 0 0 0-2.31 1.28 2.08 2.08 0 0 0-.51 1.28 1.62 1.62 0 0 0 .51 1.16 2.15 2.15 0 0 0 .13-.9v-1.15h.64l.26-.39a.53.53 0 0 1 .38-.13h.13a3.48 3.48 0 0 1-.25 1.29l-.26 1.15a4.5 4.5 0 0 0-.26 1.41 2.65 2.65 0 0 0 .13.77zm-3.59 11l.13-.26h-.26v.26zm.51-1.28l.13-.51-.51.13c0 .19.13.31.37.4zm.26-.9l.26-1-.13-.13c-.17 0-.3.13-.39.38a1 1 0 0 0 .26.77zm2.82-22.28h.51a1.64 1.64 0 0 0-.26-.39h-.51a1.64 1.64 0 0 0 .26.41zm.51-2.56l.13.12.13.13a.34.34 0 0 0 .25-.13l-.13-.38a.49.49 0 0 0-.38-.13v.13a.12.12 0 0 1-.13.13zm.64-2h.38a.38.38 0 0 0 .13-.26.36.36 0 0 0-.13-.26q-.51.14-.51.39v.25zm2.3-3.72a1.85 1.85 0 0 1 1.29-.64 1.47 1.47 0 0 1 1 .51 31 31 0 0 1 .64-4.73c.51-2.48 1-3.89 1.54-4.23a4.55 4.55 0 0 1-.13-1.15 12.7 12.7 0 0 1 .51-3.08l.26-1.15.25-1v-.64a3.27 3.27 0 0 0-.25-1.41 1.16 1.16 0 0 0 .77-.89l.12-.64-.12-.64c-.43 0-.64.08-.64.25l-.13.26-.26.26a2.33 2.33 0 0 1-.25-1l.12-.38a5.38 5.38 0 0 1-.25-.64 8.43 8.43 0 0 0-1.54 3.45 4.14 4.14 0 0 0-.13.9 4.22 4.22 0 0 0 1.28 3.08c-.93.68-1.83 2.68-2.69 6a162.08 162.08 0 0 0-.89 4.22l-.39 2-.38 1.79a.37.37 0 0 1 .25-.12l.39.12h.13a.4.4 0 0 0 .38-.25l.26-.13h-.9c-.15-.06-.24-.06-.24-.15zm-.25-8.32v.25c0 .34.21.56.64.64l-.13-.25v-.39a.51.51 0 0 0-.51-.28zm3.07 13.57l.39-1 .38-.9a2 2 0 0 0 .13-.64 1.2 1.2 0 0 0-.39-.89 12.36 12.36 0 0 0-1.66 5l-.13 1.79zm3.33-12.68l.39-4.48.38-4.48a26.51 26.51 0 0 0-2.46 11.24v1.15a3.76 3.76 0 0 1-.39 1.28l-.25.77-.39.77a6.12 6.12 0 0 0-.13 1c0 .52.22.77.64.77a25.18 25.18 0 0 0 2.21-8.05zm-1.66-17a1.48 1.48 0 0 1 .13.64 4.23 4.23 0 0 1-.13.9l-.26.63v.77a.42.42 0 0 0 .39-.25l.25-.39a.42.42 0 0 1 .39-.25c.08 0 .21.08.38.25v.13c0 .34-.38.56-1.15.64l.51.39.26.51c.34.43.64.64.89.64l.39-2.18.38-2.17a18.13 18.13 0 0 0 .26-3 9.76 9.76 0 0 0-.13-1.67c-.09.18-.39.3-.9.39a1.57 1.57 0 0 1 .39.89 1.48 1.48 0 0 1-.13.64 1.93 1.93 0 0 1-1.92 1l.13.38.12.39a.78.78 0 0 0 .64.38.73.73 0 0 1-.25-.51c0-.17.13-.34.38-.51l.26.25.13.13.12.13c-.25.09-.38.34-.38.77v.57a1.19 1.19 0 0 1-.26.38l-.38-.51a.8.8 0 0 0-.54-.42zm1.53-7.05l.52.64.38.52v.12c0 .26-.3.52-.9.77a.43.43 0 0 1 .26-.13.12.12 0 0 1 .13.13l.38.26a1.1 1.1 0 0 0 .51.13h.16l.39-2.31a14.36 14.36 0 0 1 .64-2.3 15.79 15.79 0 0 0-1.67-.13h-.51v.25a4.83 4.83 0 0 0 .13.9c.34 0 .55-.08.64-.26l.13-.25.12-.13a.93.93 0 0 1 .13.38c0 .26-.17.47-.51.64l-.49.31c-.31.11-.44.23-.44.4zm1.16 14a3 3 0 0 1 .12-.89l.13-.77.26-.77a4.83 4.83 0 0 0 .26-1.54 2.62 2.62 0 0 0-.39-1.4 6.48 6.48 0 0 1-.26 1.53l-.51 1.67a6.86 6.86 0 0 0-.13 1.28 2.26 2.26 0 0 0 .64 1.66 2.53 2.53 0 0 1-.12-.87zm1.15-7.17l.38-.89v-.4a1.69 1.69 0 0 0-.64-1.41.5.5 0 0 1 .13.38.92.92 0 0 1-.13.39l-.25.77a1.35 1.35 0 0 0-.13.64 2.35 2.35 0 0 0 .38 1.15h-.25c0 .09-.09.17-.26.26l.26.51a.34.34 0 0 0 .38-.39.93.93 0 0 0-.13-.38zm.51-12.81a.38.38 0 0 0-.25-.13l-.26.26v.13a.49.49 0 0 0 .13.38.7.7 0 0 0 .51.13l-.13-.25c0-.09 0-.13.13-.13a.53.53 0 0 0-.13-.49zm.26 7.69v-.13h.13a.93.93 0 0 1-.13-.38h-.51a.38.38 0 0 1-.13.25.92.92 0 0 0 .13.39 1.07 1.07 0 0 1 .51-.23zm-.39 1l-.25.39c0 .34.25.51.77.51a.49.49 0 0 1-.13-.38v-.52c0-.17-.13-.29-.39-.38zm.64-4l-.25.26v.9l.77-.13a.53.53 0 0 1-.13-.39l.13-.38v-.13c0-.26-.18-.38-.52-.38zm30.74 15c0-.17.13-.26.39-.26a3.22 3.22 0 0 0 1.66-1l.77-.64a4.83 4.83 0 0 1 .77-.64 1 1 0 0 0-.51-.77h.64a1.11 1.11 0 0 0 .38.13.34.34 0 0 0 .39-.39 2.93 2.93 0 0 1 1.15-1.41l.64-.51.77-.38.13-.13a5.78 5.78 0 0 1 1-2.05l.77-.9.77-.77 1.41-1.66a6.1 6.1 0 0 0 .89-1.79.4.4 0 0 1 .13-.26l.64-.38.64-.52a2 2 0 0 0 .52-1.28v-.56a.52.52 0 0 1 .12-.38 5.83 5.83 0 0 0 1.92-2.69l.26-.77.39-.64a4.44 4.44 0 0 1 1-1.16V190a.36.36 0 0 0-.13-.26l-.26-.13v-.25a14.12 14.12 0 0 0 1.93-3.33l.77-1.93a9.63 9.63 0 0 1 1-1.66.32.32 0 0 0 0-.51 2 2 0 0 1-.13-.64v-.39l.39-1a3.15 3.15 0 0 0 .25-1.15 1.85 1.85 0 0 0-.25-1h.38l.26-.13a.38.38 0 0 1 .25-.13h.13v-.51l-.13-.38v-1.92a2.35 2.35 0 0 0 .13-.77 1.35 1.35 0 0 0-.13-.64 3.79 3.79 0 0 0-.51-1.41v-.26a2.54 2.54 0 0 0 .13-.77v-.38a5.33 5.33 0 0 0-.39-1 1.4 1.4 0 0 1-.25-.77 1.14 1.14 0 0 1 .13-.52l-.26.26-.26.13-.51-.26-.38-.13h-.13a.86.86 0 0 0-.77.39v.38a.43.43 0 0 0-.26.13v-.51c-.08 0-.12.21-.12.64v.26l-.26.12-.38.13a4.6 4.6 0 0 0-.65.51l-.12.26a1.28 1.28 0 0 0-.64-.26c-.34 0-.56.22-.64.64l-.13-.25c0 .17-.05.25-.13.25l-.13-.12a11.89 11.89 0 0 1-3.84 2 .76.76 0 0 0-.51.52l-.26.25-.38.26c-.09 0-.13 0-.13.13a.93.93 0 0 0 .13.38 17.22 17.22 0 0 0-5.38 4.1l-2.38 2.39a24.16 24.16 0 0 1-2.69 2.57c-.25.17-.38.34-.38.51a9.25 9.25 0 0 1-1.41 2.56 5.53 5.53 0 0 1-2.18 2 1.16 1.16 0 0 0-.76.9 9.2 9.2 0 0 1-1.16 3.07c-.34.6-.89 1.45-1.66 2.56a13 13 0 0 0-2.82 5.12 1.93 1.93 0 0 1-.51.9 9.11 9.11 0 0 0-1.92 2.82l-.9 1.67a7 7 0 0 1-.9 1.53c0 .34.26.56.77.64l-.38.26-.39.25a1.93 1.93 0 0 0-.89.64l.12.13a17.31 17.31 0 0 0 2.82 1l1.54.38 1.54.39a1.89 1.89 0 0 1 1 .64 3.88 3.88 0 0 1 1 2.3 1.48 1.48 0 0 1-.13.64c0 .09.08.13.25.13h.52q-.39.26-.39.51v.13l.13.13a8.32 8.32 0 0 1 .64 1c.17-.25.34-.38.51-.38a1.05 1.05 0 0 1 .64.38l.13.13c.09 0 .17-.08.26-.25a3.87 3.87 0 0 1 2.43-2.18l.77-.26.64-.38a2.44 2.44 0 0 0 1.07-1.33zm11 .77a66.85 66.85 0 0 0 7.68-10.38 122 122 0 0 1-11.5 13.44 39.4 39.4 0 0 1-3.21 2.31c-1.45.94-2.17 1.53-2.17 1.79a34.6 34.6 0 0 0 9.22-7.22zm11.53-22.16a169.55 169.55 0 0 1-8.44 15.22 6.32 6.32 0 0 1-1.15 1.41l-.64.77-.77.77a6.15 6.15 0 0 0-1.41 2.05v.12a41.26 41.26 0 0 0 7.05-9 61.49 61.49 0 0 0 5.38-11.4zm-3.16 10.83a11.1 11.1 0 0 1 1.16-2.18l1.28-1.92a8.8 8.8 0 0 0 1.66-4.1 12.75 12.75 0 0 1-1.15 2.05l-1.41 2.3a9.68 9.68 0 0 0-1.54 3.85zm4.59-14.61l.89-2a9.2 9.2 0 0 0 .9-3.59v-.64a10.24 10.24 0 0 1-.64 2.18l-.9 2.3a11.68 11.68 0 0 0-.89 3.59v.51a9 9 0 0 1 .64-2.35zm0 4.87l.64-1 .64-1.16a5.33 5.33 0 0 0 .38-1.79 1.38 1.38 0 0 0-.13-.64 4.32 4.32 0 0 1-.38 1.15l-.51 1a7.53 7.53 0 0 0-.64 2.43h-.26a.23.23 0 0 1-.26.26l-.07.88c.16 0 .29-.12.38-.38zm2-11.4a.51.51 0 0 0 .26-.51l.13-.77.38-1 .39-1.28a4.06 4.06 0 0 0 .13-.9 2.27 2.27 0 0 0-.39-1.41 5.55 5.55 0 0 1-.13 1.15l-.25 1a4.82 4.82 0 0 0-.26 1.53 3.54 3.54 0 0 0 .13.9l-.26.13c0 .17 0 .26-.13.26zm.65 5.38l.12-.51a.93.93 0 0 0 .13-.38.41.41 0 0 0-.25-.39 1.15 1.15 0 0 1-.13.39l-.26.63a1 1 0 0 0-.13.39c0 .26.13.38.39.38zm.51-19c-.09-.35-.22-.52-.39-.52a.38.38 0 0 0-.25.13l.13.39.12.38a5.33 5.33 0 0 0 .39 1l.51-.38a.8.8 0 0 1-.38-.51zm.13 16.52a2.26 2.26 0 0 0 .12-.64.49.49 0 0 0-.38.13c0 .17-.09.25-.26.25v.64a.57.57 0 0 1 .39-.13c.04-.12.08-.2.17-.2zm.25-12.55v-.13a.36.36 0 0 1 .13-.26 1.36 1.36 0 0 1-.26-.43l-.25.25c0 .18-.05.26-.13.26a1.2 1.2 0 0 1 .13.51.52.52 0 0 0 .42-.15zm-.13.89v.52l-.12.63v.26c0 .17 0 .26.12.26h.26v-1c.04-.32-.05-.53-.26-.62zm.9 9.1l.26-1.28a1.08 1.08 0 0 0 .12-.39c0-.17-.12-.3-.38-.38l-.13.51-.12.38a3.29 3.29 0 0 0-.26 1.28z"/><path d="M264.1 177.41a3.29 3.29 0 0 1 .77 1.41 2 2 0 0 1 .13.64.51.51 0 0 1-.13.39 4.8 4.8 0 0 0-1.66 1.92 37.18 37.18 0 0 1-3 4 18.65 18.65 0 0 0-3.07 5.64l-.13.25q-2.56 3-6.28 7.81l-6.15 8.2a62.43 62.43 0 0 1-7 8.07l-.77.77-.51.38-.9.77-.89.77-1.92 1.28-.9.51-1 .39a12.36 12.36 0 0 1-4 .64 8 8 0 0 1-3.84-1.28l-.38-.13a11.26 11.26 0 0 1-5.64-5.64l-.9-1.92-.38-1.15-.13-.51-.13-.39c-.08-.42-.17-1.06-.25-1.92a14.63 14.63 0 0 1-.13-1.92l.26-2.82.38-2.69.51-4.86.13-.26a9.09 9.09 0 0 0 .77-2.31l.13-2.17a8.57 8.57 0 0 1 1.28-4.23l.13-.26a71.57 71.57 0 0 1 2.17-11.14q1.15-4.61 3.2-10.76v-.51l-.25-.77a1.35 1.35 0 0 1 .13-.64 7.25 7.25 0 0 0 1.15-3.33l.26-1.92.12-2.18c0-.42.35-.72 1-.9h.38a3.35 3.35 0 0 1 1.54.39l.64.26a3.17 3.17 0 0 1 1.41.76 26 26 0 0 0 2.31 1.67l1.28.77 1.15.77a1.54 1.54 0 0 1 .77.89 8 8 0 0 1 .25 1.92 5.28 5.28 0 0 1-.89 3.08v1l-.13.26v.13c0 .08.08.17.25.25a18.56 18.56 0 0 0-1.15 2.57l-.77 2.56a18.72 18.72 0 0 1-2.05 5v1.15a7.57 7.57 0 0 1-.12 1.41 3.86 3.86 0 0 1-1.16 1.8.76.76 0 0 0-.38.64v.13a6.86 6.86 0 0 1 .13 1.28 8.32 8.32 0 0 1-.77 3.2l-.39 1-.38.9a5.05 5.05 0 0 0-.13 1.15 4.54 4.54 0 0 0 .13 1 1.38 1.38 0 0 1-.13.64 4.77 4.77 0 0 0-.89 2.3l-.26 1.28a4.4 4.4 0 0 1-.39 1.16c.09.25.39.38.9.38l-.25.26-.3.16a.83.83 0 0 0-.51.77v.13a2.33 2.33 0 0 1 .13.64 3.38 3.38 0 0 1-.39 1.54l-.38 1-.26.9v.26a6.73 6.73 0 0 1 .13 1.4 6.27 6.27 0 0 1-.13 1.29v1.15l-.13.64v.77c0 .94.22 1.49.65 1.66.08 0 .12.05.12.13l-.12.64.25.51c.08.17.17.26.26.26a.74.74 0 0 0 .51-.26.38.38 0 0 1 .26-.13h.12a.82.82 0 0 0 .77.52 2.06 2.06 0 0 0 .77-.52l.64-.63.39-.13.25-.26.39-.13.12-.13a.37.37 0 0 0-.12-.25l-.13-.26.13-.38a14.72 14.72 0 0 0 3.45-3.08l1.54-1.79a24 24 0 0 1 1.8-1.66.55.55 0 0 0 .25-.52 4.44 4.44 0 0 1 .38-1.15l.9-1a4.87 4.87 0 0 0 1.15-2.31h.39l.25-.13a.33.33 0 0 1 .52 0 10.25 10.25 0 0 1 2.17-3.71l1.28-1.67a5.86 5.86 0 0 0 1-1.92.78.78 0 0 1 .38-.38 7.72 7.72 0 0 0 1.16-1.15l1-1.41a4.94 4.94 0 0 1 2.31-2.31l-.26-.26h-.13v-.12l.77-1.41.77-1.16 2.62-3.84a41.79 41.79 0 0 1 3.66-4.74l.38.13.13-.25a1.25 1.25 0 0 1 1.15-.65h.26q1 .13 4.22 6.01zm-44.31 32.92c.25.51.47.77.64.77a36.65 36.65 0 0 1-.77-8.2l.13-4a101.26 101.26 0 0 1 1.66-13.45 58.17 58.17 0 0 0-2.3 15.5l.13 3.2v1.92a18 18 0 0 0 .12 2.31 9.77 9.77 0 0 0 .39 1.95zm9.6 6.66a2.05 2.05 0 0 0 .9-.26 11.77 11.77 0 0 1-4.87-1.28 7.74 7.74 0 0 1-3.07-4.22 27.44 27.44 0 0 1-1.15-8.58l.12-4.1a31.82 31.82 0 0 0-.64 6.15 23.46 23.46 0 0 0 .13 2.43 13.36 13.36 0 0 0 1 4.35 7.17 7.17 0 0 0 2.56 3.59l.64.51.77.52.89.38.9.25 1 .26zm-7.68-22l.51-2.3a17.76 17.76 0 0 0 .64-4.1v-.52c-.17.52-.38 1.33-.64 2.44l-.34 1.25-.26 1.28a14.38 14.38 0 0 0-.38 3 4.09 4.09 0 0 0 .25 1.53 13.16 13.16 0 0 1 .22-2.61zm1.66-18.23l-.38 1.28-.51 1.41a11.69 11.69 0 0 0-.6 3.31 3.59 3.59 0 0 0 .12 1 17.1 17.1 0 0 1 .52-2.56l.77-2.31a13.39 13.39 0 0 0 .89-4.1v-.38a11.18 11.18 0 0 1-.81 2.35zm-.77 10.89c.18 0 .3-.17.39-.51v-.77l.51-1.15.38-1.28a5.82 5.82 0 0 0 .26-1.67 2.75 2.75 0 0 0-.13-.9l-.25 1.29-.39 1a7.1 7.1 0 0 0-.38 2.18v.51h-.11c0 .26-.08.38-.26.38zm1.8-13.45c.25-.08.42-.51.51-1.28l.51-1.15.52-1.28a6.51 6.51 0 0 0 .38-1.92 1.48 1.48 0 0 0-.13-.64 7.76 7.76 0 0 1-.38 1.28l-.39 1a4.85 4.85 0 0 0-.51 2.18v.51h-.26a.42.42 0 0 1-.25.39zm.64 5.64l.13-.51a1.08 1.08 0 0 0 .12-.39.4.4 0 0 0-.25-.38l-.13.38-.26.64a1 1 0 0 0-.12.39.33.33 0 0 0 .38.38h.13zm.64-2.56v-.64a1.08 1.08 0 0 0-.39.12c0 .18 0 .26-.12.26a1.48 1.48 0 0 1-.13.64.49.49 0 0 0 .38-.13c.09-.16.17-.24.26-.24zm1-4.23l-.25.51a2.73 2.73 0 0 0-.26 1.28l.71-.08v-.64l.26-.64a1.05 1.05 0 0 0 .13-.38.34.34 0 0 0-.39-.39zm.52-7.56l-.26.64a2 2 0 0 0-.13.52c0 .17.09.25.26.25h.13v-.51l.25-.51a.92.92 0 0 0 .13-.39.41.41 0 0 0-.26-.38 1 1 0 0 1-.1.39zm.25-1.79v.51h.43c0-.25.08-.38.25-.38v-.52h-.38a.41.41 0 0 1-.28.45zm1.79-4l-.25.38a8.12 8.12 0 0 0-.39 1.28l.64-.12v-.64l.26-.64a1.14 1.14 0 0 0 .13-.52c0-.08-.09-.17-.26-.25zm.13-14.35v-.25a.57.57 0 0 1 .13-.39 10 10 0 0 0 1.15-3.33l.13-2 .26-2.05c0-.42.3-.72.89-.89h.39a3.53 3.53 0 0 1 1.54.38l.51.26a4.38 4.38 0 0 1 1.28.64 11.18 11.18 0 0 0 2.18 1.54l1.15.76 1.15.77a1.62 1.62 0 0 1 .64.9 2.31 2.31 0 0 1 .13.77 8.28 8.28 0 0 1-.64 2.94 14.36 14.36 0 0 1-.64 1.8 12.74 12.74 0 0 1-.77 1.15v.64l-.25.13a2.33 2.33 0 0 1-1 .25 4.13 4.13 0 0 1-1.66-.38l-1.28-.64a3.41 3.41 0 0 0-1.54-.39 28.46 28.46 0 0 1-1.92-.25l-1.67-1.28v-.26z"/><path d="M320.2 180.36a1.66 1.66 0 0 1-.38 1 10.86 10.86 0 0 0-1.54 1.29l-2.94 2.56a51.65 51.65 0 0 0-6.92 6.91l-.26.39q-4.1 2.94-11.91 9.09l-5.89 4.74-6.15 4.74q-3.33 2.43-6.27 4.35a62.19 62.19 0 0 1-7 4.23 29.07 29.07 0 0 1-8.45 2.82 20.61 20.61 0 0 1-3.84.38 17 17 0 0 1-6.66-1.28l-.39-.13a11.43 11.43 0 0 1-5.25-3.2 13.17 13.17 0 0 1-3.2-5.25 19.16 19.16 0 0 1-.77-5.51 29.64 29.64 0 0 1 .38-4.48 38.9 38.9 0 0 1 1.16-4.1l.64-1.92.64-1.79 2.69-6.92.25-.38a14.5 14.5 0 0 0 1.8-2.95l1.41-3.2a15.82 15.82 0 0 1 4-5.64l.25-.38a52.17 52.17 0 0 1 12-13.83 27.43 27.43 0 0 1 3.84-2.82 17.83 17.83 0 0 1 5.13-2.56 11.59 11.59 0 0 1 3.71-.64 10.13 10.13 0 0 1 2.18.25l1.28.26.9.38a10.79 10.79 0 0 1 3.58 2.56 13.29 13.29 0 0 1 2.05 3.34l.51 1.15a3.28 3.28 0 0 1 .39.77 2.9 2.9 0 0 1 .38.77 3.4 3.4 0 0 1 .26 1.28v.51a23.82 23.82 0 0 1-.39 2.81l-.51 1.67-.38 1.28-.77 2.56-.77 2.69-.9 2.56a2 2 0 0 1-1.66 1.41h-.64a2.09 2.09 0 0 1-1.54-.64l-.64-.51a2 2 0 0 1-1-1.15 9.38 9.38 0 0 0-1.92-2.56l-1-1.16-1.15-1.15a2.59 2.59 0 0 1-.51-1.41 15.34 15.34 0 0 1 .64-3.71l.51-1.54-.64.38-.77.26a9.58 9.58 0 0 1-1.66.77.85.85 0 0 0-.39.38 8.87 8.87 0 0 1-1.92 2 4.79 4.79 0 0 1-2.56 1.41 1.17 1.17 0 0 0-.9.77 11.24 11.24 0 0 1-1.54 2.82l-2 2a9.93 9.93 0 0 0-3.32 4.86 2 2 0 0 1-.52.77 8.24 8.24 0 0 0-2.05 2.69l-.89 1.67a14.37 14.37 0 0 1-.9 1.41c0 .42.26.68.77.77l-.38.25-.39.26a1.25 1.25 0 0 0-1 1 7.24 7.24 0 0 1-1.16 3.08l-.77 1.28-.76 1.28-.13.38-.39 1.92-.51 1.8-.38 1.66-.52 1.67a11.83 11.83 0 0 0-.25 2.3 2.3 2.3 0 0 0 .9 2.18.39.39 0 0 1 .12.26 1.2 1.2 0 0 0 .13.51 1.72 1.72 0 0 0 .39.64 1.1 1.1 0 0 0 1.53.13 1.08 1.08 0 0 1 .52-.13.34.34 0 0 1 .25.13 3 3 0 0 0 1.54.38h.51a7 7 0 0 0 2.3-.51l1.16-.39 1.28-.51a9.71 9.71 0 0 1 2.3-.64.52.52 0 0 0 .26-.51v-.26l.26-.38a20.81 20.81 0 0 0 6-3.08l3.07-1.92a32.21 32.21 0 0 1 3.08-1.92.77.77 0 0 0 .51-.51 6.76 6.76 0 0 1 1.28-1.41l1.41-1.15a9.59 9.59 0 0 0 2.81-2.69h.77a.92.92 0 0 1 .39-.13.34.34 0 0 1 .25.13 22.39 22.39 0 0 1 4.74-4.36l2.44-1.92a18.33 18.33 0 0 0 2.17-2.3 1.72 1.72 0 0 1 .64-.39 9.35 9.35 0 0 0 2-1.28l1.92-1.66a10.6 10.6 0 0 1 4-2.56v-.13c0-.09 0-.13-.12-.13l-.26-.13v-.13l1.79-1.66 1.54-1.41a36.58 36.58 0 0 0 3.14-2.95 28.28 28.28 0 0 0 2.75-3.45l.52.12.12-.25a1.51 1.51 0 0 1 1.54-.9c.77.09 1.56.77 2.37 2a19.66 19.66 0 0 1 2 4.16 11.4 11.4 0 0 1 .63 3.33zm-73.13 22.16a5.81 5.81 0 0 0-.26 1.54c0 .34.09.55.26.64q1.53-5.13 2.82-8.59a82 82 0 0 1 3.71-9.22 34.3 34.3 0 0 0-5.51 12.68l-.12.51-.39.77zm4.61-6.15a29.92 29.92 0 0 0-2.43 5.76 17.14 17.14 0 0 0-.77 5 13.34 13.34 0 0 0 .12 1.79l-.12.52v.76a11.88 11.88 0 0 0 .12 1.54c.09 1.11.31 1.67.65 1.67h.12a25.77 25.77 0 0 1-.38-4.36 25.36 25.36 0 0 1 .26-3.58 49.9 49.9 0 0 1 2.43-9.1zm2.31-5.38l-1.11 1.54a4.74 4.74 0 0 0-.89 2.3 1.58 1.58 0 0 0 .25.9 2.93 2.93 0 0 1 .51-1.66l.52-.77.51-.77a5.29 5.29 0 0 0 1.1-2.77v-.26l-.89 1.49zm3.89-11.23a8.15 8.15 0 0 1-1 1.41l-1.28 1.54a4.51 4.51 0 0 0-1.28 2.68 1.21 1.21 0 0 0 .13.52 8.2 8.2 0 0 1 .77-1.8l.64-.64.51-.64a5.19 5.19 0 0 0 1.51-3.07zm-2 7.9l.77-.77a2.49 2.49 0 0 0 .38-1.28 2 2 0 0 0-.13-.64 3.06 3.06 0 0 1-.38.77l-.52.64a2.91 2.91 0 0 0-.76 1.92l-.13-.13c-.09.17-.17.26-.26.26l-.13.64h.16c.17 0 .3-.26.39-.77zm2.3-3.46l.26-.25a1.09 1.09 0 0 0 .13-.39.38.38 0 0 0-.13-.25l-.26.25-.38.39a.34.34 0 0 0-.13.25q0 .25.51.39zm-.13-4.61h.13c.26 0 .43-.25.51-.77l.77-.64.77-.77a1.92 1.92 0 0 0 .64-1.4.92.92 0 0 0-.13-.39l-.51.77-.64.51a3.15 3.15 0 0 0-.9 1.92l-.12-.12-.13.12h-.13zm1.16 2.95a.55.55 0 0 0 .13-.39h-.13l-.39-.12c0 .08 0 .12-.13.12h-.12v.52a1 1 0 0 1 .38.12.26.26 0 0 1 .29-.25zm1.53-2.69l-.25.25a2 2 0 0 0-.52.9l.77.13V181a.43.43 0 0 1 .14-.24l.26-.38a1 1 0 0 0 .12-.38.42.42 0 0 0-.25-.39zm1.41-5.64l-.38.39c-.17.17-.26.3-.26.38s.17.3.51.38v-.38l.26-.38c.17-.17.26-.3.26-.39s-.09-.17-.26-.25a.34.34 0 0 1-.1.25zm.51-1.28a.57.57 0 0 0-.12.39 1 1 0 0 0 .38.12.39.39 0 0 1 .26-.12.29.29 0 0 0 .03-.503.29.29 0 0 0-.29-.017c.03.09-.04.13-.23.13zm2.05-2a2 2 0 0 0-.51.9l.64.26a1.08 1.08 0 0 1 .13-.52l.38-.38c.17-.17.26-.3.26-.39a.5.5 0 0 0-.13-.38l-.25.26-.13.12zm10.17 42.6l.39-.12a1.74 1.74 0 0 0 .77-.77l-.52-.39a.8.8 0 0 1-.38.39l-.39.25a.42.42 0 0 0-.25.39.93.93 0 0 0 .13.38zm3.33-1.92a1.38 1.38 0 0 1-.38-.25h-.26l-.38.38a1.38 1.38 0 0 1 .38.26l.13-.13a.38.38 0 0 1 .26.13 1.65 1.65 0 0 1 .23-.39zm.64-.77l.51-.25q.39-.26.39-.39c0-.17-.13-.3-.39-.38 0 .08-.08.17-.25.25l-.26.26c-.25.09-.38.22-.38.39a.34.34 0 0 0 .13.25zm1.67-44.57h-.13l.13.13zm4 40.48l-.13-.13c-.26 0-.47.21-.64.64l-1 .38-.9.51a2.62 2.62 0 0 0-1.15 1.67 4.43 4.43 0 0 1 .77-.64l.76-.39a3.31 3.31 0 0 0 1.54-1.53l.13.12.13-.12h.12zm-1.92-2.44a.74.74 0 0 1-.26.51l-.51.26a.42.42 0 0 0-.26.39.34.34 0 0 0 .13.25l.38-.13.39-.12a3.49 3.49 0 0 0 .77-.77zm2.05-.25a.34.34 0 0 1 .25-.13h.13l.13-.26.13-.13a1.65 1.65 0 0 1-.39-.25.37.37 0 0 1-.25.12h-.13a1.64 1.64 0 0 0-.26.39 1.39 1.39 0 0 1 .34.26zm.25 2.56c.34-.26.85-.6 1.54-1l1.79-1.15c1.45-.94 2.18-1.84 2.18-2.69a5.55 5.55 0 0 1-1.41 1.41l-1.54 1a5.51 5.51 0 0 0-2.58 2.43zm1.15-4.61l-.25.25c-.26.17-.38.34-.38.51l.12.13a1 1 0 0 0 .34-.14l.38-.25q.39-.25.39-.39c0-.17-.13-.29-.39-.38 0 .1-.08.18-.26.27zm5.26-3.46l-.13-.13c-.26 0-.47.21-.64.64l-1.8 1.02a2.13 2.13 0 0 0-1.15 1.67 4.83 4.83 0 0 1 .77-.64l.77-.38a4.49 4.49 0 0 0 1.41-1.67l.13.13.12-.13a.36.36 0 0 1 .26.13zm5.51-5.38a5.89 5.89 0 0 1-1.41 1.41l-1.54 1a4.62 4.62 0 0 0-2.44 2.56 9.7 9.7 0 0 1 1.54-1.15l1.67-1.15c1.4-.92 2.13-1.82 2.13-2.67zm5.5-1.54c.26-.17.64-.47 1.16-.9l1.4-1.15c.94-.77 1.41-1.32 1.41-1.66v-.16a67.49 67.49 0 0 0-7.17 6l-3.71 3.58-3.85 3.59a51.73 51.73 0 0 0 10.71-9.3zm6-8.07a11.15 11.15 0 0 1 1.15-.89l1.29-1.16c.85-.77 1.28-1.28 1.28-1.53v-.13q-2.57 1.92-6.92 5.89l-3.84 3.46-3.75 3.56a60.28 60.28 0 0 0 10.76-9.2z"/><path d="M352.48 177.41a3.29 3.29 0 0 1 .77 1.41 2.33 2.33 0 0 1 .13.64.55.55 0 0 1-.13.39 4.8 4.8 0 0 0-1.67 1.91 35.59 35.59 0 0 1-2.94 4 18.71 18.71 0 0 0-3.08 5.64l-.13.25c-1.7 2-3.8 4.57-6.27 7.81l-6.15 8.2a62.43 62.43 0 0 1-7 8.07l-.52.51-.25.26-.51.38-1.8 1.54-1.92 1.28-.9.51-1 .39a12.41 12.41 0 0 1-4 .64 7.91 7.91 0 0 1-3.84-1.28l-.39-.13a11.28 11.28 0 0 1-5.63-5.64l-.9-1.92-.38-1.15-.13-.51-.13-.39c-.09-.42-.17-1.06-.26-1.92a16.58 16.58 0 0 1-.13-1.92l.26-2.82.39-2.69a56.28 56.28 0 0 0 .51-4.86l.13-.26a8.71 8.71 0 0 0 .76-2.31l.13-2.17a8.67 8.67 0 0 1 1.28-4.23l.1-.28a70.53 70.53 0 0 1 2.18-11.14q1.16-4.61 3.2-10.76v-.51l-.26-.77a1.48 1.48 0 0 1 .13-.64 7.37 7.37 0 0 0 1.16-3.33l.25-1.92.13-2.18q0-.63 1-.9h.39a3.41 3.41 0 0 1 1.54.39l.64.26a3.19 3.19 0 0 1 1.4.76c.52.43 1.29 1 2.31 1.67l1.28.77 1.15.77a1.47 1.47 0 0 1 .77.89 8.08 8.08 0 0 1 .26 1.92 5.21 5.21 0 0 1-.9 3.08v1l-.13.26v.13c0 .08.09.17.26.25a17.44 17.44 0 0 0-1.15 2.57l-.77 2.56a18.72 18.72 0 0 1-2.05 5v1.15a6.77 6.77 0 0 1-.13 1.41 3.85 3.85 0 0 1-1.15 1.8.73.73 0 0 0-.38.64v.13a6.85 6.85 0 0 1 .12 1.28 8.14 8.14 0 0 1-.77 3.2l-.38 1-.38.9a4.55 4.55 0 0 0-.13 1.15 4 4 0 0 0 .13 1 1.52 1.52 0 0 1-.13.64 4.77 4.77 0 0 0-.9 2.3l-.25 1.28a4.79 4.79 0 0 1-.39 1.16c.09.25.39.38.9.38l-.26.26-.38.12a.83.83 0 0 0-.52.77v.13a2 2 0 0 1 .13.64 3.5 3.5 0 0 1-.38 1.54l-.39 1-.25.9v.26a7.49 7.49 0 0 1 .13 1.4 7.05 7.05 0 0 1-.13 1.29v1.15l-.13.64v.77c0 .94.21 1.49.64 1.66a.12.12 0 0 1 .13.13l-.13.64.26.51c.08.17.17.26.25.26a.78.78 0 0 0 .52-.26.38.38 0 0 1 .25-.13h.13a.81.81 0 0 0 .77.52 2.14 2.14 0 0 0 .77-.52l.64-.63.38-.13.26-.26.38-.13.13-.13a.34.34 0 0 0-.13-.25l-.13-.26.13-.38a14.73 14.73 0 0 0 3.46-3.08l1.54-1.79c.68-.68 1.28-1.24 1.79-1.66a.53.53 0 0 0 .26-.52 4.44 4.44 0 0 1 .38-1.15l.9-1a5 5 0 0 0 1.15-2.31h.38l.26-.13a.32.32 0 0 1 .51 0 10.3 10.3 0 0 1 2.18-3.71l1.28-1.67a6 6 0 0 0 1-1.92.84.84 0 0 1 .39-.38 7.72 7.72 0 0 0 1.15-1.15l1-1.41a4.93 4.93 0 0 1 2.3-2.31l-.13-.13-.12-.13h-.13v-.12c.25-.52.51-1 .77-1.41l.77-1.16q1-1.4 2.62-3.84a41.68 41.68 0 0 1 3.65-4.74l.39.13.12-.25a1.27 1.27 0 0 1 1.16-.65h.25c.76.15 2.16 2.16 4.3 6.08zm-44.32 32.92c.26.51.47.77.64.77a37.25 37.25 0 0 1-.77-8.2c0-1.28.05-2.6.13-4a101.27 101.27 0 0 1 1.72-13.42 58.21 58.21 0 0 0-2.31 15.5 40.9 40.9 0 0 0 .13 3.2v1.92a16.11 16.11 0 0 0 .13 2.31 9.84 9.84 0 0 0 .33 1.92zm9.61 6.66a2 2 0 0 0 .89-.26 11.72 11.72 0 0 1-4.86-1.28 7.75 7.75 0 0 1-3.08-4.22 27.74 27.74 0 0 1-1.15-8.58c0-1.28 0-2.65.13-4.1a31.06 31.06 0 0 0-.64 6.15 21 21 0 0 0 .13 2.43 13.65 13.65 0 0 0 1 4.35 7.23 7.23 0 0 0 2.56 3.59l.64.51.77.52.9.38.9.25 1 .26zm-7.69-22l.52-2.3a18.32 18.32 0 0 0 .64-4.1v-.52c-.17.52-.39 1.33-.64 2.44l-.39 1.28-.25 1.28a14.5 14.5 0 0 0-.39 3 4.08 4.08 0 0 0 .26 1.53 13.14 13.14 0 0 1 .25-2.64zm1.67-18.23l-.39 1.28-.48 1.42a12 12 0 0 0-.64 3.33 3.54 3.54 0 0 0 .13 1 18.32 18.32 0 0 1 .51-2.56l.77-2.31a13.16 13.16 0 0 0 .9-4.1v-.38a11.84 11.84 0 0 1-.8 2.32zm-.77 10.89c.17 0 .3-.17.38-.51v-.77l.52-1.15.38-1.28a6.19 6.19 0 0 0 .26-1.67 3 3 0 0 0-.13-.9l-.26 1.29-.38 1a6.84 6.84 0 0 0-.39 2.18v.51h-.12c0 .26-.09.38-.26.38zm1.79-13.45c.26-.08.43-.51.52-1.28l.51-1.15.51-1.28a6.2 6.2 0 0 0 .38-1.92 1.49 1.49 0 0 0-.12-.64 7.81 7.81 0 0 1-.39 1.28l-.38 1a4.85 4.85 0 0 0-.51 2.18v.51h-.26a.43.43 0 0 1-.26.39zm.64 5.64l.13-.51a1 1 0 0 0 .13-.39.41.41 0 0 0-.26-.38l-.12.38-.26.64a.92.92 0 0 0-.13.39.34.34 0 0 0 .39.38h.12zm.64-2.56v-.64a1 1 0 0 0-.38.12c0 .18 0 .26-.13.26a1.35 1.35 0 0 1-.13.64.53.53 0 0 0 .39-.13c.08-.16.17-.24.25-.24zm1-4.23l-.26.51a2.86 2.86 0 0 0-.25 1.28l.64-.13v-.64l.25-.64a.88.88 0 0 0 .13-.38.34.34 0 0 0-.38-.39zm.51-7.56l-.25.64a2 2 0 0 0-.13.52.22.22 0 0 0 .25.25h.13v-.51l.26-.51a1.09 1.09 0 0 0 .13-.39.41.41 0 0 0-.26-.38 1.11 1.11 0 0 1-.1.39zm.32-1.73v.51h.38c0-.25.09-.38.26-.38v-.52h-.39a.4.4 0 0 1-.25.39zm1.79-4l-.26.38a7.14 7.14 0 0 0-.38 1.28l.64-.12v-.64l.26-.64a1.29 1.29 0 0 0 .13-.52c0-.08-.09-.17-.26-.25zm.13-14.35v-.25a.53.53 0 0 1 .08-.4 10.19 10.19 0 0 0 1.15-3.33l.13-2 .25-2.05c0-.42.3-.72.9-.89h.39a3.46 3.46 0 0 1 1.53.38l.51.26a4.25 4.25 0 0 1 1.28.64 11.51 11.51 0 0 0 2.18 1.54l1.15.76 1.16.77a1.67 1.67 0 0 1 .64.9 2.59 2.59 0 0 1 .13.77 8.5 8.5 0 0 1-.64 2.94 16.24 16.24 0 0 1-.65 1.8 12.75 12.75 0 0 1-.76 1.15v.64l-.26.13a2.26 2.26 0 0 1-1 .25 4.18 4.18 0 0 1-1.67-.38l-1.28-.64a3.35 3.35 0 0 0-1.54-.39c-.76-.08-1.41-.16-1.92-.25l-1.68-1.34v-.26z"/><path d="M439.45 182.03a1.52 1.52 0 0 1-.13.64 13.76 13.76 0 0 0-3 3.33 28 28 0 0 0-4.48 5.89l-.26.25q-3.33 3-8.19 7.69l-4.1 4.1-4.1 4q-4.49 4.49-8.33 7.81l-2.3 1.79-2.31 1.67-1.15.9-1.28.76-4.1 2.44-.38.25-.77.64-2 .9-.9.38-1 .26-1 .13h-1l-1.16-.13-1-.26a10 10 0 0 1-6.15-5.5 21.44 21.44 0 0 1-1.53-4.49l-.39-2.3-.13-1.28a6.25 6.25 0 0 1-.13-.9l-.12-3.07v-.9a4.44 4.44 0 0 1 .12-1v-1l.13-.77.13-.25a18.61 18.61 0 0 0 .9-2.56l.13-1.29.12-1.15a10 10 0 0 1 1.54-4.74l.13-.38.77-4.1-5.98 7.97q-8.2 10.76-14.61 16l-.12.13-1.67 2.18-2.69 2.56-.77.64-.38.25-.51.26-1.92 1.15a7.88 7.88 0 0 1-2 1l-1.93.77a14.53 14.53 0 0 1-3.2.38 9.93 9.93 0 0 1-4.48-1 10.72 10.72 0 0 1-4.87-5.64l-.13-.51-.25-2.05v-2.12l-.26-2.05-.18-1.95-.12-.9v-2.17a6.26 6.26 0 0 1 .76-2.44l.13-.38a52 52 0 0 1 2-12.55 113.37 113.37 0 0 1 4.03-11.56v-.39l-.12-.89v-.26a.52.52 0 0 1 .12-.38 7.46 7.46 0 0 0 1.41-3.46 19.68 19.68 0 0 0 .51-4.1c0-.43.35-.68 1-.77h.38a4.5 4.5 0 0 1 1.8.39l.64.38a3.2 3.2 0 0 1 1.4.77 28.87 28.87 0 0 0 2.57 1.79l1.28.77 1.28.9a2 2 0 0 1 .77 1.15 9.15 9.15 0 0 1 .12 1.41 6.09 6.09 0 0 1-1.28 3.84v1l-.12.38v.13c0 .08.08.17.25.25a18.87 18.87 0 0 0-1.41 2.57l-.89 2.56a21.13 21.13 0 0 1-2.31 5.12.57.57 0 0 0-.13.39v.76a6.77 6.77 0 0 1-.13 1.41 3.18 3.18 0 0 1-1.28 1.92.53.53 0 0 0-.25.52v.25a4.18 4.18 0 0 1 .25 1.54 8.33 8.33 0 0 1-.64 3l-.38.89-.26 1a4.06 4.06 0 0 0-.13.89 2.57 2.57 0 0 0 .26 1.16.49.49 0 0 1 .13.38.36.36 0 0 1-.13.26 2.66 2.66 0 0 0-.51 1.15v.64a2.08 2.08 0 0 1-.26 1.15 2.71 2.71 0 0 0 1-.51l-.26.26-.26.25q-.51.39-.51.51c0 .09 0 .13.13.13.26 0 .38.22.38.64v1.25h.13l.77-.26.51-.26h.52l.51-.13c.25-.08.6-.21 1-.38a1.45 1.45 0 0 0 .52-.51l.51-.77a.12.12 0 0 1 .13-.13 3.66 3.66 0 0 0 1.66-.77 2.72 2.72 0 0 0 1-1.66.85.85 0 0 1 .38-.77 8.37 8.37 0 0 0 3.2-2.69 8.48 8.48 0 0 1 2.82-2.82l.13-.13a.38.38 0 0 0-.13-.25l-.13-.39v-.25a22.84 22.84 0 0 0 3.59-3.59l1.66-2.05 1.92-1.79a1.31 1.31 0 0 0 .26-.51 2.42 2.42 0 0 1 .39-1.28l.89-1a4.21 4.21 0 0 0 1.15-2.56h.77a1.21 1.21 0 0 1 .52-.13 10.67 10.67 0 0 1 2.3-3.84l1.28-1.79a11.92 11.92 0 0 0 1-2.05.42.42 0 0 1 .25-.39 4.41 4.41 0 0 0 1.28-1.28l1-1.41a6.18 6.18 0 0 1 2.18-2.56v-.13h-.13c-.17-.08-.26-.17-.26-.25a6.34 6.34 0 0 1 .77-1.54l.64-1.15a11.86 11.86 0 0 0 1.28-3.08h-.38a2.88 2.88 0 0 0 .38-.89l.26.25.25-.25.26-.13a.4.4 0 0 0 .13-.26 1.06 1.06 0 0 0-.39-.64c-.17.34-.3.51-.38.51v-.25a16.45 16.45 0 0 0 1.15-3.08l.13-.51a4 4 0 0 0 1.92-2.82h.38v-.12q0-.78.9-.9a3.21 3.21 0 0 1 1.92.77l.39.38h.89l1.67.9.38.13 2.44 1a2.81 2.81 0 0 1 1.92 1.54l1.41.9a1.84 1.84 0 0 1 .89 1.15 8.41 8.41 0 0 1 .26 2 7 7 0 0 1-1 3.71v1.54a.22.22 0 0 0 .25.25 18.79 18.79 0 0 0-1.28 3l-.9 2.95a17.94 17.94 0 0 1-2.17 5.63 1.07 1.07 0 0 0-.13.51v.9a10.11 10.11 0 0 1-.13 1.54 3.93 3.93 0 0 1-1.41 2 .87.87 0 0 0-.26.64v.25a4.1 4.1 0 0 1 .13 1 9.49 9.49 0 0 1-1 4l-.51 1.15-.39 1a4.81 4.81 0 0 0-.25 1.53 4 4 0 0 0 .12.9 1.38 1.38 0 0 1-.25.77 6.1 6.1 0 0 0-1 2.56l-.38 1.28a3 3 0 0 1-.51 1.28 1 1 0 0 0 1 .51l-.38.26-.26.26c-.43.17-.64.43-.64.76v.39l.13.26v.76l-.13.52-.26 1-.12.9v.25a1.65 1.65 0 0 0 .25.39l.13.38.13.51.13.52.12.64a1.76 1.76 0 0 0 .64 1.15 1 1 0 0 0 .39.13.74.74 0 0 0 .64-.39l.13-.12c.08 0 .13 0 .13.12a.7.7 0 0 0 .51.26.93.93 0 0 0 .38-.13q.51-.12.51-.9c0-.25.09-.38.26-.38l.26.13a.93.93 0 0 0 .38-.13l.9-.64a13.85 13.85 0 0 0 1.79-1.41 9.35 9.35 0 0 1 3.33-2.43.4.4 0 0 0 .13-.26v-.26l-.13-.25.25-.32a19.45 19.45 0 0 0 4.35-3.21l2-1.79a17.45 17.45 0 0 1 2.18-1.67.82.82 0 0 0 .39-.51 5 5 0 0 1 .76-1.28l1-1a5.34 5.34 0 0 0 1.79-2.31h.64a1.09 1.09 0 0 1 .39-.13c.08 0 .12 0 .12.13a11.77 11.77 0 0 1 3.21-3.71l1.66-1.67a7.24 7.24 0 0 0 1.51-1.95 1.87 1.87 0 0 1 .51-.38 6 6 0 0 0 1.54-1l1.28-1.41a7.71 7.71 0 0 1 2.82-2.17v-.13l-.13-.13a.23.23 0 0 1-.26-.26l1.16-1.41 1-1.15q1.27-1.41 2.82-3.39a23.76 23.76 0 0 0 2.43-3.78l.39.13.12-.26a1 1 0 0 1 1-.64h.32c.68.09 1.25.85 1.73 2.31a47.06 47.06 0 0 0 1.79 4.67 11.11 11.11 0 0 1 1.05 3.37zm-93 37a4 4 0 0 0 1.54-.51l-.52-.39a1 1 0 0 1-.76.26l-.77.13c-.52.09-.77.25-.77.51zm4.23-1.54a1.87 1.87 0 0 0 .51-.38 2 2 0 0 0-.39-.26.34.34 0 0 1-.25.13h-.13l-.51.51a.49.49 0 0 0 .38.13 1.09 1.09 0 0 1 .4-.12zm1.66-1.4l.64-.39c.34-.26.51-.47.51-.64s-.08-.13-.25-.13l-.39.39-.51.38q-.51.25-.51.51l.13.13zm7.56-6.66a1.19 1.19 0 0 0-.64.25l-.52.77-.51.38-.51.39-1.28 1a5.45 5.45 0 0 0-1.67 2.18l1-.9 1-.77a6.77 6.77 0 0 0 1.92-2.3h.26a.42.42 0 0 1 .39-.26zm-1.92-1.54c-.09.17-.22.38-.39.64l-.51.51c-.26.17-.38.34-.38.51a.37.37 0 0 0 .12.26l.39-.38.38-.26a11.46 11.46 0 0 0 1-1.15zm2.3-1.92a1.87 1.87 0 0 1-.38.51.49.49 0 0 1 .38.13l.26-.26h.13l.38-.64h-.38c-.17.18-.29.27-.38.27zm0 3.2a24.19 24.19 0 0 1 1.8-1.92l1.15-1 1-1c1.62-1.8 2.52-3.16 2.69-4.1a17.3 17.3 0 0 1-1.66 2.18l-1.92 1.92a14 14 0 0 0-3.05 3.93zm1.92-5.51l-.38.51c-.26.26-.39.43-.39.52a.38.38 0 0 0 .13.25c0-.08.09-.21.26-.38l.64-.51c.25-.26.38-.43.38-.52s-.13-.25-.38-.25zm6-6.66c-.25 0-.6.38-1 1.15l-2.05 2.05a5.22 5.22 0 0 0-1.28 2.31l.9-1 .89-.89a8.33 8.33 0 0 0 1.54-2.44h.25a.42.42 0 0 1 .39-.25zm12-13.83l1.28-1.67 1.54-2a7.65 7.65 0 0 0 1.41-2.56v-.18q-2.68 3.35-7.81 10.76l-4.1 6-4.36 6a115.54 115.54 0 0 0 12.11-16.34zm-5.89 4.86a27.43 27.43 0 0 1-1.54 2.44l-1.79 1.92a13.86 13.86 0 0 0-2.82 4.23l1.8-2 1.92-2.31q2.37-2.72 2.5-4.27zm12.62-17.27a12.27 12.27 0 0 1 1.16-1.66l.76-1 .77-1a9.61 9.61 0 0 0 1.54-2.56v-.13q-3 3.58-7.69 10.76l-4.09 6-4.23 6a151.12 151.12 0 0 0 11.78-16.41z"/><path d="M493.75 180.23a2.48 2.48 0 0 1-.87 1.53h-.13a18.59 18.59 0 0 0-3.46 2.82 55.93 55.93 0 0 1-5.63 4.61l-3 2-2.82 2a92.42 92.42 0 0 0-10.89 8.32l-.51.39q-6.15 3.71-11.4 7.17a27.45 27.45 0 0 1 .77 6.4 24.25 24.25 0 0 1-.13 2.56 49.69 49.69 0 0 1-1 6.41l-.77 3-.9 2.81a2.83 2.83 0 0 1-.51 1l-1.15 1.66-1.54 1.92a36.3 36.3 0 0 0-2.69 4 3.82 3.82 0 0 1-1.28 1.54l-2.17 1.39-2.3 1.28a20.29 20.29 0 0 1-5.25 1.8 17.59 17.59 0 0 1-3.59.38 14.63 14.63 0 0 1-1.92-.13 11.12 11.12 0 0 1-2.69-.77 8.05 8.05 0 0 1-2.31-1.41 1.19 1.19 0 0 0-.64-.25h-.64l-.25-.13a2.06 2.06 0 0 1-.77-.51l-.64-.77-.52-.77-.51-.77-.38-.89a6.56 6.56 0 0 1-.64-1.8l-.26-.89-.12-.9a16.81 16.81 0 0 1-.13-2.18 18 18 0 0 1 .64-4.61 22.41 22.41 0 0 1 2.43-5.76 18.75 18.75 0 0 1 3.84-4.49 4.67 4.67 0 0 0 .77-1 16.69 16.69 0 0 1 3.84-4.1l2.18-1.79a15.43 15.43 0 0 0 2.05-2.18h.51l.52-.13a1.17 1.17 0 0 1 .51-.13.38.38 0 0 1 .25.13 29.66 29.66 0 0 1 3.33-3.07l1.29-1a30.34 30.34 0 0 0-2.44-4.22l-.13-.52a20.18 20.18 0 0 0-1.92-3.84l-1.28-1.79-1.41-1.79a38 38 0 0 1-2.69-4.1 22.67 22.67 0 0 1-1.79-5.25l-.26-.9a22.42 22.42 0 0 1-1.28-7.3v-.77a20.52 20.52 0 0 1 1.28-7.17 22.93 22.93 0 0 1 4.1-6.79 54.12 54.12 0 0 1 5-4.87 44.16 44.16 0 0 1 11.52-6.91 28.54 28.54 0 0 1 6.92-1.93 14.43 14.43 0 0 1 2.56-.25 11.28 11.28 0 0 1 2.44.25 13.38 13.38 0 0 1 4.48 1.54l1.41.77a6.35 6.35 0 0 1 1 .64 7.22 7.22 0 0 1 1 .64 5.51 5.51 0 0 1 1.41 1.92 15 15 0 0 1 1.28 6 17.3 17.3 0 0 1-1.41 6.53l-2.05 4.49-.9 1.92-.77 1.66a2.65 2.65 0 0 1-1.92 1.54h-.51a2.22 2.22 0 0 1-1.66-.64l-.52-.51a1.92 1.92 0 0 1-1.15-1.15 10.92 10.92 0 0 0-1.54-2.95l-.89-1.41-.9-1.54a3.53 3.53 0 0 1-.13-.89 2.75 2.75 0 0 1 .13-.9l.38-1.41.52-1.28.38-1.15.13-.51v-.32a1.88 1.88 0 0 1 .38-.64v-.13h-.13l-.64.13a.36.36 0 0 0 .13-.26.12.12 0 0 0-.13-.13c-.08-.17-.17-.25-.25-.25a.53.53 0 0 0-.39-.13 1.07 1.07 0 0 0-.51.13 9.08 9.08 0 0 0-1.79.51l-4.23 1.67-2.13 1.1-2.3 1-.77.51a26.41 26.41 0 0 1-2.43 2.82 12.08 12.08 0 0 1-3.08 2.18 1.49 1.49 0 0 0-.89 1l-.39 1.66-.25 1.54a18.3 18.3 0 0 0-.65 2.94v.77a8.21 8.21 0 0 0 1.93 5.64 2.12 2.12 0 0 1 .51 1.15 12.25 12.25 0 0 0 2.05 4.23l1.54 2.17 1.28 2.44a.73.73 0 0 0 .51.25.77.77 0 0 0 .64-.38l.13.64.12.64v.38a2.73 2.73 0 0 0 .65 1.8 17.62 17.62 0 0 1 1.92 3.07l.51-.51a8 8 0 0 1 .9-.51 15.42 15.42 0 0 0 2.94-1.67l2.95-1.92a24.72 24.72 0 0 1 5.89-3.33l.13-.13c0-.08-.09-.13-.26-.13h-.13v-.25l2.69-2.05 1.28-.77 1.16-.9a51.56 51.56 0 0 0 5-3.84h-.67l1.67-1.28.12.38a.44.44 0 0 1 .39-.25l.64-.26a1.06 1.06 0 0 0 .64-.89v-.14l-.64.38-.51.26.25-.26v-.12l2.69-1.93 2.44-2.17.64-.64a15 15 0 0 0 5.76-3.59h.64l.13-.26a2.78 2.78 0 0 1 2.18-1c.93 0 1.83.64 2.69 1.92a5.59 5.59 0 0 1 .7 4.48 20.33 20.33 0 0 0-.56 3.4zm-53 50.08a26 26 0 0 0 4-13.7l-1.92 1.41-1.95 1.41q-2.06 1.67-3.59 3.07l-3.2 3.2a16.6 16.6 0 0 0-1.92 3.08 9.26 9.26 0 0 0-1.16 2.94 5.91 5.91 0 0 0-.12 1 1.56 1.56 0 0 0 .12.64v.25l.13.13a.35.35 0 0 1 .13.26l.26.12a4 4 0 0 0 1 .13h.64a8.46 8.46 0 0 0 2.05-.25 10.9 10.9 0 0 0 5.38-3.46zm-5.64-48.93a.33.33 0 0 0 .13-.25.53.53 0 0 0-.13-.39l-.25-.51-.13-.51-.13-1.54-.26-3.33a3.85 3.85 0 0 0-.51-1.41 1.75 1.75 0 0 1 .13.77 3.54 3.54 0 0 1-.13.9v1.41l.13.77.13.76a3.93 3.93 0 0 0 .64 1.67l-.13.26a.38.38 0 0 1 .13.25.4.4 0 0 1-.13.26zm-.77-10.37v.75a.12.12 0 0 0 .13.13h.26v-.64l.13-.64a2.26 2.26 0 0 0 .12-.65.22.22 0 0 0-.25-.25l-.13.51zm.77-3.2a2.54 2.54 0 0 0-.13.77 1.09 1.09 0 0 0 .39-.13c0-.26.08-.39.26-.39a2.51 2.51 0 0 1 .12-.76h-.12l-.26.12c-.11.26-.19.39-.28.39zm0 14.09l.39 1.41.51 1.41a16.93 16.93 0 0 0 1.15 3.2q1.41 3.58 2.82 4.61a19.64 19.64 0 0 1-2.56-5.51l-1-2.69a20.69 20.69 0 0 0-1.33-2.43zm2.18-1.41a5.25 5.25 0 0 1-.26-.64l-.12-.77c-.09-.43-.26-.64-.52-.64h-.13l.13.51v.64a5.71 5.71 0 0 0 .52 1.41zm.77-17.17l-.39.39a7.82 7.82 0 0 0-.89 1.41h.64l.38-.64.51-.77a1.28 1.28 0 0 0 .26-.64.38.38 0 0 0-.13-.26zm-.64 20.11a.41.41 0 0 1 .12.26.39.39 0 0 1-.12.26 1.87 1.87 0 0 1 .38.51l.26-.26v-.51a1.65 1.65 0 0 1-.39-.64 1.38 1.38 0 0 1-.27.38zm1.92 3.21l-.39-.64c-.17-.43-.3-.65-.38-.65h-.13a2 2 0 0 0 .13.52l.26.77c.17.42.34.64.51.64s.17-.09.26-.26a1.19 1.19 0 0 1-.28-.38zm3.2 7.55l-.25-.77-.26-.64-.64-1.66a4.72 4.72 0 0 0-1.67-2.31l.64 1.28.52 1.29a11.5 11.5 0 0 0 1.66 2.81l-.13.13a.5.5 0 0 1 .13.38v.13l.64.77a.34.34 0 0 0 .13-.25.53.53 0 0 0-.13-.39zm-1.79.26l2.13 4.61 2.18 5a52.6 52.6 0 0 1 3.46 10.88 13.29 13.29 0 0 1 .13 2.18v1.41l-.13 1.28-.13 3v.38a25.79 25.79 0 0 0 .64-5.51v-1.41a32.55 32.55 0 0 0-1.41-7.43 52.07 52.07 0 0 0-3.07-7.3l-1.79-3.58zm8.13 13.31a44.16 44.16 0 0 1 1.29 10v.77a33.74 33.74 0 0 1-2.69 11.65l-1.16 2.05-.77 1-.76 1.15c-1.2 1.62-1.8 2.6-1.8 3v.12a30.57 30.57 0 0 0 7.05-13.19 29.36 29.36 0 0 0 .64-5.89 23.31 23.31 0 0 0-.13-2.43 44.91 44.91 0 0 0-1.67-8.23zm-.38-1.28c-.43-.85-.85-1.84-1.28-3l-.9-2.81a15.56 15.56 0 0 0-2.69-4.74 20.15 20.15 0 0 1 1.16 2.56l1.15 3.07a16.62 16.62 0 0 0 2.6 4.93z"/></g><g fill="#fff"><path d="M389.07 93.1l-15-4.94 1.51-4.4c1.361-4.128 5.812-6.371 9.94-5.01s6.371 5.812 5.01 9.94zm-1.26-2.94l.7-2.13a5.17 5.17 0 0 0-.36-4.21 6 6 0 0 0-7.76-2.56 5.16 5.16 0 0 0-2.8 3.16l-.71 2.14zm7.37-33.55l-4.6 4.66 3.3 3.29 4-4 1.52 1.5-4 4 3.33 3.29 4.61-4.67 1.51 1.49-6.3 6.38-11.21-11.06 6.3-6.38zm31.88 2.48l.9-15.73 2.41.14-.78 13.61 5.58.31-.12 2.12zm20.55-6.57l.22-1.07a1.22 1.22 0 0 0 1.14-.51 2.82 2.82 0 0 0 .67-1.24c.06-.28 0-.44-.12-.47a1.35 1.35 0 0 1-.89-.62 1.39 1.39 0 0 1-.19-1.07 1.36 1.36 0 0 1 .6-.89 1.39 1.39 0 0 1 1.08-.19 1.32 1.32 0 0 1 1 .89 3.17 3.17 0 0 1 .06 1.72 5.35 5.35 0 0 1-1.34 2.58 2.36 2.36 0 0 1-2.23.87zm27.58 7.76l-1.83-2.86-7.48 1.61-.53 3.35-2.57.55 2.9-16.72 2.65-.56 9.42 14.11zm-9-3.38l6-1.28-4.69-7.27zm21.58 2.18l2-15.62 2.39.3-1.71 13.52 5.54.7-.26 2.1zm17.42 4.77l8.32-13.37 2 1.28-8.32 13.37zm30.77 12.47l1.23 2.25-13.8 7.58-1.16-2.1 10.79-5.92-10.49-.88 4.92-9.26-10.78 5.92-1.16-2.15 13.8-7.58 1.24 2.27-4.61 8.92zm3.81 28.44l-.53-6.53-4.67.37.46 5.65-2.14.18-.45-5.65-4.67.37.53 6.53-2.11.17-.73-8.93 15.7-1.27.72 8.94zm-1.03 26.17l-.48 2.34-15.38-3.2.49-2.34 13.51-6.26-11.74-2.44.49-2.36 15.42 3.2-.49 2.34-13.54 6.28zm-9.32 25.65l-1.94-.82 1.66-3.85-12.5-5.41 1-2.2 12.5 5.41 1.67-3.85 2 .84zm-36.27 22.5l3 1.58 5.76-5.08-1.18-3.19 2-1.73 5.67 16-2 1.79-15.15-7.63zm9.52-1.49l-4.61 4.07 7.64 4zm5.32 11.91l1.36-1.2 4 .94-1.77 1.57zm-38.69-1.15l-.85 15.72-2.42-.13.75-13.6-5.58-.31.11-2.12zm-19.87 9.22l.09 1.09a1.21 1.21 0 0 0-.94.82 2.66 2.66 0 0 0-.28 1.37q0 .45.24.42a1.34 1.34 0 0 1 1 .34 1.42 1.42 0 0 1 .18 2 1.36 1.36 0 0 1-1 .5 1.3 1.3 0 0 1-1.24-.56 3 3 0 0 1-.55-1.62 5.31 5.31 0 0 1 .53-2.86 2.37 2.37 0 0 1 1.97-1.5zm-23.41-14.61l-.35 3.37 6.87 3.44 2.51-2.29 2.35 1.17-12.7 11.26-2.42-1.21 1.39-16.94zm5 8.27l-5.51-2.75-.87 8.6zm-24.76-16.67l2.55-7.63 1.83 2-2.63 7.34 1.55 1.68 5.08-4.65 1.63 1.78-11.61 10.68-4.1-4.48a4.51 4.51 0 0 1 .31-6.4 4 4 0 0 1 2.66-1.11 4.2 4.2 0 0 1 2.73.79zm1.84 4.71l-2.42-2.64a2.28 2.28 0 0 0-1.65-.77 2.37 2.37 0 0 0-1.72.63 2.38 2.38 0 0 0-.15 3.36l2.43 2.64zm-23.44-22.63l1.88-1 1.92 3.73 12.12-6.23 1.1 2.13-12.12 6.23 1.92 3.73-1.89 1zM462.88 4.58a11.08 11.08 0 0 1 4.23-4 7.46 7.46 0 0 1 8.39 1.87 8.9 8.9 0 0 1 1.66 8.62 13.09 13.09 0 0 1-4 5.6 38.9 38.9 0 0 1-5.78 3.88l-6.21 3.65c-1.71 1-3.69 2.44-3.83-.45a31.53 31.53 0 0 1 2.11-12.71 31 31 0 0 1 3.43-6.46z"/><circle cx="391.65" cy="124.12" r="3.82"/></g></svg>